<svg width="27" height="32" viewBox="0 0 27 32" fill="none" xmlns="http://www.w3.org/2000/svg">
<path d="M22.5183 17.0333C22.4756 13.0263 25.902 11.1087 26.0539 11.0125C24.1295 8.29759 21.1349 7.92415 20.0648 7.88291C17.5187 7.63089 15.0912 9.33085 13.7956 9.33085C12.5048 9.33085 10.5069 7.91727 8.39264 7.95393C5.61164 7.99517 3.05132 9.51642 1.61811 11.9174C-1.26967 16.7561 0.877774 23.9225 3.69199 27.8516C5.06825 29.7715 6.71028 31.9274 8.86246 31.8518C10.9363 31.7716 11.7194 30.5551 14.2275 30.5551C16.7356 30.5551 17.4404 31.8518 19.6329 31.8128C21.8658 31.7716 23.2776 29.854 24.642 27.9295C26.2223 25.7003 26.8725 23.5399 26.9128 23.4322C26.8606 23.4047 22.5634 21.817 22.5183 17.0333Z" fill="white"/>
<path d="M18.3942 5.28237C19.5356 3.94669 20.3091 2.08636 20.098 0.23291C18.4488 0.297059 16.458 1.28908 15.2739 2.62705C14.2133 3.81152 13.2902 5.70163 13.537 7.51842C15.3736 7.65818 17.2529 6.61575 18.3942 5.28237Z" fill="white"/>
</svg>
