<svg width="260" height="245" viewBox="0 0 260 245" fill="none" xmlns="http://www.w3.org/2000/svg">
<g filter="url(#filter0_d_1771_11300)">
<path fill-rule="evenodd" clip-rule="evenodd" d="M173.095 120.233C172.73 119.702 172.156 119.325 171.495 119.183C170.835 119.04 170.141 119.144 169.562 119.472L148.042 132.015L131.09 124.127C130.734 123.964 130.342 123.88 129.945 123.88C129.548 123.88 129.156 123.964 128.799 124.127L111.848 132.015L90.3954 119.447C89.8185 119.111 89.1216 119.001 88.4579 119.143C87.7942 119.284 87.2182 119.665 86.8565 120.202C86.4948 120.738 86.377 121.386 86.5292 122.003C86.6814 122.621 87.091 123.156 87.6679 123.493L106.474 134.463L87.8179 143.137C87.4023 143.342 87.0553 143.649 86.8148 144.025C86.5743 144.401 86.4495 144.831 86.4541 145.268V192.928C86.4525 193.364 86.5785 193.793 86.8187 194.169C87.0589 194.544 87.4043 194.851 87.8179 195.058L128.731 214.082C129.086 214.251 129.478 214.339 129.877 214.339C130.275 214.339 130.668 214.251 131.022 214.082L171.935 195.058C172.349 194.851 172.694 194.544 172.935 194.169C173.175 193.793 173.301 193.364 173.299 192.928V145.293C173.304 144.856 173.179 144.426 172.939 144.05C172.698 143.674 172.351 143.367 171.935 143.163L153.402 134.463L172.29 123.467C172.857 123.131 173.259 122.6 173.41 121.991C173.56 121.381 173.447 120.741 173.095 120.208V120.233ZM129.945 161.679L165.13 145.319L129.945 128.895L94.6914 145.293L129.945 161.679ZM168.294 191.482L132.441 208.146V165.813L168.294 149.136V191.482ZM91.5274 191.482L127.381 208.146V165.813L91.5274 149.149V191.482Z" fill="url(#paint0_linear_1771_11300)" fill-opacity="0.3" shape-rendering="crispEdges"/>
<path fill-rule="evenodd" clip-rule="evenodd" d="M67.2795 156.91L26.2981 137.887C25.888 137.675 25.5494 137.361 25.3206 136.98C25.0917 136.599 24.9816 136.167 25.0025 135.731V88.0965C24.9979 87.6592 25.1227 87.2292 25.3632 86.8534C25.6037 86.4776 25.9507 86.1706 26.3663 85.9659L67.3477 66.9426C67.7021 66.7734 68.0948 66.6852 68.4933 66.6852C68.8917 66.6852 69.2844 66.7734 69.6389 66.9426L95.6596 79.0414L108.111 71.8126C108.688 71.4762 109.385 71.3667 110.048 71.5083C110.712 71.6498 111.288 72.0307 111.65 72.5672C112.012 73.1036 112.129 73.7517 111.977 74.3689C111.825 74.9861 111.415 75.5218 110.838 75.8582L101.047 81.5398L110.593 85.9913C111.008 86.196 111.356 86.503 111.596 86.8788C111.837 87.2545 111.961 87.6846 111.957 88.1219V122.136C111.982 122.462 111.935 122.791 111.818 123.1C111.702 123.409 111.517 123.693 111.277 123.933C111.038 124.173 110.747 124.364 110.424 124.495C110.101 124.626 109.752 124.694 109.4 124.694C109.047 124.694 108.699 124.626 108.375 124.495C108.052 124.364 107.762 124.173 107.522 123.933C107.282 123.693 107.098 123.409 106.981 123.1C106.864 122.791 106.817 122.462 106.843 122.136V91.9773L70.9753 108.654V150.924L77.5214 147.88C77.8239 147.725 78.1573 147.627 78.5013 147.594C78.8454 147.561 79.193 147.593 79.5234 147.688C79.8538 147.783 80.1601 147.94 80.4238 148.148C80.6875 148.356 80.9031 148.612 81.0578 148.899C81.2125 149.187 81.303 149.501 81.3238 149.822C81.3447 150.143 81.2954 150.465 81.1791 150.768C81.0627 151.071 80.8817 151.348 80.6469 151.585C80.412 151.821 80.1282 152.01 79.8126 152.142L69.5706 156.91C69.214 157.073 68.8222 157.157 68.4251 157.157C68.028 157.157 67.6361 157.073 67.2795 156.91ZM30.0075 92.028L65.8612 108.705V150.95L30.0075 134.285V92.028ZM103.679 88.1219L68.4251 71.7365L33.1715 88.1219L68.4251 104.52L103.679 88.1219Z" fill="url(#paint1_linear_1771_11300)" fill-opacity="0.3" shape-rendering="crispEdges"/>
<path fill-rule="evenodd" clip-rule="evenodd" d="M89.0317 70.3034C89.7093 70.3034 90.3594 70.0539 90.8399 69.6095C91.3203 69.1651 91.592 68.5619 91.5956 67.9318V44.3429L127.449 61.02V103.328L120.903 100.284C120.302 100.05 119.628 100.038 119.018 100.249C118.408 100.46 117.907 100.88 117.617 101.422C117.327 101.965 117.27 102.589 117.457 103.169C117.645 103.749 118.062 104.241 118.626 104.545L128.868 109.314C129.224 109.476 129.616 109.561 130.013 109.561C130.41 109.561 130.802 109.476 131.159 109.314L141.401 104.545C141.964 104.241 142.382 103.749 142.569 103.169C142.756 102.589 142.699 101.965 142.409 101.422C142.119 100.88 141.618 100.46 141.008 100.249C140.398 100.038 139.724 100.05 139.123 100.284L132.577 103.328V61.02L168.43 44.3429V67.9318C168.43 68.5641 168.701 69.1706 169.181 69.6177C169.662 70.0648 170.314 70.316 170.994 70.316C171.674 70.316 172.327 70.0648 172.807 69.6177C173.288 69.1706 173.558 68.5641 173.558 67.9318V40.4875C173.56 40.0507 173.434 39.6218 173.194 39.2465C172.954 38.8712 172.608 38.5637 172.195 38.3569L131.281 19.3335C130.927 19.1644 130.534 19.0762 130.136 19.0762C129.737 19.0762 129.345 19.1644 128.99 19.3335L88.077 38.3569C87.6634 38.5637 87.318 38.8712 87.0778 39.2465C86.8376 39.6218 86.7116 40.0507 86.7132 40.4875V67.9318C86.7137 68.5243 86.9515 69.0955 87.3801 69.5339C87.8087 69.9723 88.3974 70.2466 89.0317 70.3034ZM165.198 40.5128L129.945 24.1274L94.6914 40.4875L129.945 56.8856L165.198 40.5128Z" fill="url(#paint2_linear_1771_11300)" fill-opacity="0.3" shape-rendering="crispEdges"/>
<path fill-rule="evenodd" clip-rule="evenodd" d="M192.61 66.9679L233.592 85.9913C234.005 86.1977 234.349 86.5054 234.587 86.8811C234.825 87.2567 234.948 87.6859 234.942 88.1219V135.782C234.951 136.22 234.828 136.652 234.587 137.028C234.346 137.405 233.997 137.711 233.578 137.912L192.597 156.936C192.24 157.098 191.848 157.182 191.451 157.182C191.054 157.182 190.662 157.098 190.305 156.936L180.064 152.167C179.748 152.036 179.464 151.846 179.229 151.61C178.994 151.374 178.813 151.096 178.697 150.793C178.581 150.49 178.531 150.168 178.552 149.847C178.573 149.526 178.664 149.213 178.818 148.925C178.973 148.637 179.189 148.382 179.452 148.173C179.716 147.965 180.022 147.809 180.353 147.714C180.683 147.618 181.031 147.586 181.375 147.619C181.719 147.653 182.052 147.75 182.355 147.906L188.901 150.95V108.654L153.034 91.9773V122.136C153.059 122.462 153.012 122.791 152.895 123.1C152.778 123.409 152.594 123.693 152.354 123.933C152.114 124.173 151.824 124.364 151.501 124.495C151.178 124.626 150.829 124.694 150.476 124.694C150.124 124.694 149.775 124.626 149.452 124.495C149.129 124.364 148.839 124.173 148.599 123.933C148.359 123.693 148.175 123.409 148.058 123.1C147.941 122.791 147.894 122.462 147.919 122.136V88.1219C147.915 87.6846 148.04 87.2545 148.28 86.8788C148.521 86.503 148.868 86.196 149.283 85.9913L158.83 81.5398L149.038 75.8582C148.752 75.6916 148.504 75.4744 148.309 75.2189C148.114 74.9634 147.974 74.6745 147.899 74.3689C147.824 74.0633 147.814 73.7469 147.87 73.4378C147.926 73.1286 148.047 72.8328 148.226 72.5672C148.405 72.3015 148.639 72.0713 148.914 71.8896C149.189 71.7079 149.499 71.5783 149.828 71.5083C150.156 71.4382 150.497 71.429 150.829 71.4812C151.161 71.5334 151.48 71.646 151.765 71.8126L164.298 79.0668L190.319 66.9679C190.674 66.7988 191.066 66.7106 191.465 66.7106C191.863 66.7106 192.256 66.7988 192.61 66.9679ZM191.465 104.52L156.211 88.1219L191.465 71.7365L226.732 88.1219L191.465 104.52ZM194.042 150.95L229.882 134.298L229.896 91.9773L194.042 108.654V150.95Z" fill="url(#paint3_linear_1771_11300)" fill-opacity="0.3" shape-rendering="crispEdges"/>
</g>
<defs>
<filter id="filter0_d_1771_11300" x="0.588465" y="0.119729" width="258.765" height="244.086" filterUnits="userSpaceOnUse" color-interpolation-filters="sRGB">
<feFlood flood-opacity="0" result="BackgroundImageFix"/>
<feColorMatrix in="SourceAlpha" type="matrix" values="0 0 0 0 0 0 0 0 0 0 0 0 0 0 0 0 0 0 127 0" result="hardAlpha"/>
<feOffset dy="5.45509"/>
<feGaussianBlur stdDeviation="12.2058"/>
<feComposite in2="hardAlpha" operator="out"/>
<feColorMatrix type="matrix" values="0 0 0 0 0.141176 0 0 0 0 0.0470588 0 0 0 0 0.392157 0 0 0 1 0"/>
<feBlend mode="normal" in2="BackgroundImageFix" result="effect1_dropShadow_1771_11300"/>
<feBlend mode="normal" in="SourceGraphic" in2="effect1_dropShadow_1771_11300" result="shape"/>
</filter>
<linearGradient id="paint0_linear_1771_11300" x1="-299.276" y1="-154.616" x2="824.283" y2="1053.58" gradientUnits="userSpaceOnUse">
<stop stop-color="#0DFEF6"/>
<stop offset="0.26" stop-color="#1AC3F2"/>
<stop offset="0.51" stop-color="#268EEF"/>
<stop offset="1" stop-color="#E439F7"/>
</linearGradient>
<linearGradient id="paint1_linear_1771_11300" x1="-299.276" y1="-154.616" x2="824.283" y2="1053.58" gradientUnits="userSpaceOnUse">
<stop stop-color="#0DFEF6"/>
<stop offset="0.26" stop-color="#1AC3F2"/>
<stop offset="0.51" stop-color="#268EEF"/>
<stop offset="1" stop-color="#E439F7"/>
</linearGradient>
<linearGradient id="paint2_linear_1771_11300" x1="-299.276" y1="-154.616" x2="824.283" y2="1053.58" gradientUnits="userSpaceOnUse">
<stop stop-color="#0DFEF6"/>
<stop offset="0.26" stop-color="#1AC3F2"/>
<stop offset="0.51" stop-color="#268EEF"/>
<stop offset="1" stop-color="#E439F7"/>
</linearGradient>
<linearGradient id="paint3_linear_1771_11300" x1="-299.276" y1="-154.616" x2="824.283" y2="1053.58" gradientUnits="userSpaceOnUse">
<stop stop-color="#0DFEF6"/>
<stop offset="0.26" stop-color="#1AC3F2"/>
<stop offset="0.51" stop-color="#268EEF"/>
<stop offset="1" stop-color="#E439F7"/>
</linearGradient>
</defs>
</svg>
