<svg width="28" height="33" viewBox="0 0 28 33" fill="none" xmlns="http://www.w3.org/2000/svg">
<path d="M26.9646 26.5424C26.1067 26.1903 25.3999 25.636 25.4512 24.5743C25.5011 23.5141 24.6931 22.8115 24.6931 22.8115C24.6931 22.8115 25.3999 20.4901 24.743 18.5734C24.0875 16.6539 21.9186 13.5786 20.2541 11.2586C18.5924 8.93721 20.0033 6.26239 18.4912 2.83367C16.9764 -0.595044 13.0432 -0.394073 10.9242 1.06939C8.8038 2.53016 9.45934 6.1612 9.55912 7.87973C9.66031 9.59268 9.60486 10.8137 9.40942 11.2572C9.20986 11.7007 7.84611 13.3277 6.93698 14.6887C6.02921 16.0496 5.37367 18.8754 4.71538 20.0355C4.05984 21.1955 4.51441 22.2543 4.51441 22.2543C4.51441 22.2543 4.05984 22.404 3.70641 23.1648C3.35297 23.9187 2.64758 24.2722 1.38644 24.5217C0.125294 24.7739 0.125294 25.5847 0.427393 26.4924C0.730906 27.3988 0.428807 27.906 0.0753727 29.0633C-0.278061 30.2206 1.48763 30.5767 3.20199 30.7749C4.91776 30.9786 6.83444 32.0887 8.45043 32.2897C10.0622 32.492 10.5681 31.1809 10.5681 31.1809C10.5681 31.1809 12.3836 30.7749 14.299 30.7277C16.2171 30.6765 18.0298 31.131 18.0298 31.131C18.0298 31.131 18.3833 31.9376 19.0388 32.2896C19.6958 32.6431 21.108 32.6943 22.0157 31.7381C22.9248 30.7776 25.3461 29.5691 26.707 28.8111C28.0719 28.0516 27.8224 26.893 26.9646 26.5424ZM15.1595 4.29727C16.0242 4.29727 16.7228 5.15512 16.7228 6.2126C16.7228 6.96373 16.3722 7.61098 15.8607 7.92554C15.7304 7.86874 15.5933 7.81054 15.4477 7.74815C15.7554 7.59569 15.9744 7.20351 15.9744 6.74612C15.9744 6.15021 15.6057 5.66648 15.1497 5.66648C14.6994 5.66648 14.3293 6.15156 14.3293 6.74612C14.3293 6.9665 14.382 7.17852 14.472 7.35173C14.2032 7.24501 13.9551 7.14524 13.7611 7.0718C13.6558 6.81403 13.5961 6.52298 13.5961 6.21253C13.5961 5.15512 14.2947 4.29727 15.1595 4.29727ZM15.0472 8.33577C15.4796 8.48547 15.9605 8.76682 15.9107 9.04534C15.8594 9.32527 15.6321 9.32527 15.0472 9.68288C14.461 10.0377 13.1915 10.8248 12.7854 10.8761C12.3766 10.9274 12.1493 10.6987 11.7169 10.4201C11.2845 10.1402 10.4709 9.47632 10.676 9.12295C10.676 9.12295 11.3094 8.63787 11.588 8.38428C11.8679 8.12927 12.5803 7.52084 13.0127 7.59986C13.4451 7.6733 14.6148 8.18331 15.0472 8.33577ZM11.1486 4.60078C11.8305 4.60078 12.3849 5.41289 12.3849 6.41492C12.3849 6.59925 12.3669 6.7697 12.3322 6.93463C12.1659 6.99142 11.9968 7.08291 11.8333 7.2215C11.7501 7.28941 11.6766 7.35315 11.606 7.41688C11.7141 7.21456 11.757 6.92628 11.7085 6.62276C11.617 6.07536 11.2525 5.67618 10.8908 5.73304C10.5305 5.79543 10.3129 6.28738 10.4044 6.83761C10.4972 7.38784 10.8604 7.78696 11.2207 7.72733C11.2415 7.72316 11.2609 7.71763 11.2816 7.71069C11.1057 7.8798 10.9435 8.02532 10.7786 8.14861C10.2797 7.91719 9.91377 7.22837 9.91377 6.41344C9.91383 5.41154 10.4668 4.60078 11.1486 4.60078ZM9.81682 30.0889C9.65607 30.8123 8.80926 31.3376 8.80926 31.3376C8.04149 31.5787 5.9072 30.6529 4.9398 30.2469C3.97381 29.8464 1.51385 29.7217 1.19093 29.364C0.870777 28.9981 1.35168 28.193 1.47504 27.4293C1.59422 26.6601 1.23391 26.1792 1.35309 25.654C1.47504 25.1315 3.04664 25.1315 3.64955 24.7698C4.25516 24.4053 4.37576 23.3575 4.85942 23.0762C5.34309 22.7921 6.2287 23.7997 6.59177 24.3665C6.95349 24.9278 8.32412 27.3476 8.88823 27.9519C9.45368 28.5561 9.97757 29.3655 9.81682 30.0889ZM18.7379 23.0596C18.5923 23.7706 18.5923 26.34 18.5923 26.34C18.5923 26.34 17.029 28.5062 14.6051 28.861C12.1839 29.2158 10.9727 28.9608 10.9727 28.9608L9.61167 27.3989C9.61167 27.3989 10.6691 27.245 10.5194 26.1862C10.367 25.1274 7.2917 23.6639 6.73595 22.3515C6.18295 21.0418 6.63617 18.8202 7.34297 17.71C8.04843 16.6013 8.50023 14.1815 9.20703 13.3721C9.91383 12.5683 10.4668 10.8525 10.2146 10.0945C10.2146 10.0945 11.728 11.9114 12.7854 11.6106C13.8443 11.3071 16.2183 9.54006 16.5689 9.84498C16.921 10.1485 19.9478 16.805 20.2485 18.924C20.552 21.0417 20.0462 22.6549 20.0462 22.6549C20.0462 22.6549 18.8875 22.3528 18.7379 23.0596ZM26.4795 27.8119C26.0083 28.2443 23.3862 29.3031 22.6003 30.1291C21.8187 30.9481 20.7972 31.6148 20.1722 31.4207C19.543 31.2225 18.9956 30.3619 19.27 29.1063C19.543 27.8548 19.78 26.4828 19.7412 25.6983C19.7024 24.9139 19.543 23.8537 19.7412 23.6971C19.9366 23.5446 20.2484 23.6209 20.2484 23.6209C20.2484 23.6209 20.0946 25.1079 20.994 25.5029C21.8935 25.891 23.1879 25.3463 23.5801 24.9514C23.9737 24.5619 24.2481 23.9743 24.2481 23.9743C24.2481 23.9743 24.639 24.1725 24.6001 24.7975C24.5613 25.424 24.8731 26.3276 25.4636 26.6394C26.0499 26.9485 26.9507 27.3822 26.4795 27.8119Z" fill="white"/>
</svg>
