<svg width="34" height="35" viewBox="0 0 34 35" fill="none" xmlns="http://www.w3.org/2000/svg">
<g clip-path="url(#clip0_3003_14847)">
<path d="M20.7225 34.2357C21.8175 34.2357 22.7724 33.2479 22.7724 32.1151V27.1625H24.1412C24.9626 27.1625 25.51 26.596 25.51 25.7465V11.6011H9.09753V25.7466C9.09753 26.5962 9.64505 27.1626 10.4663 27.1626H11.8352V32.1152C11.8352 33.248 12.7899 34.2359 13.8852 34.2359C14.9801 34.2359 15.9349 33.248 15.9349 32.1152V27.1626H18.6726V32.1152C18.6725 33.2479 19.6274 34.2357 20.7225 34.2357Z" fill="white"/>
<path d="M28.9289 25.7466C30.0239 25.7466 30.9786 24.7589 30.9786 23.626V13.7208C30.9786 12.594 30.0239 11.6011 28.9289 11.6011C27.8337 11.6011 26.8789 12.594 26.8789 13.7208V23.626C26.8789 24.7587 27.8336 25.7466 28.9289 25.7466Z" fill="white"/>
<path d="M5.67877 25.7466C6.77391 25.7466 7.72873 24.7589 7.72873 23.626V13.7208C7.72873 12.594 6.77402 11.6011 5.67877 11.6011C4.58374 11.6011 3.62903 12.594 3.62903 13.7208V23.626C3.62903 24.7587 4.58374 25.7466 5.67877 25.7466Z" fill="white"/>
<path d="M23.8673 0.570115C23.5937 0.285222 23.1863 0.285222 22.9126 0.570115L21.0768 2.46296L20.9921 2.55046C19.9035 1.98656 18.683 1.70494 17.3238 1.70223C17.3172 1.70223 17.3106 1.702 17.3039 1.702H17.3037C17.2968 1.702 17.2905 1.70223 17.2836 1.70223C15.9245 1.70494 14.704 1.98656 13.6156 2.55046L13.5307 2.46296L11.6949 0.570115C11.421 0.285222 11.0138 0.285222 10.7402 0.570115C10.4663 0.853426 10.4663 1.27387 10.7402 1.55695L12.5161 3.3944C11.9438 3.78964 11.425 4.27328 10.9737 4.82645C9.89345 6.15109 9.20441 7.87503 9.10966 9.74289C9.10879 9.76234 9.10693 9.78156 9.10606 9.801C9.10027 9.92819 9.09753 10.0561 9.09753 10.1844H25.51C25.51 10.0561 25.507 9.92819 25.5015 9.801C25.5006 9.78156 25.4987 9.76234 25.4976 9.74289C25.4031 7.87503 24.7139 6.15098 23.6336 4.82656C23.1826 4.27339 22.6635 3.78975 22.0912 3.39452L23.8673 1.55707C24.1412 1.27387 24.1412 0.853426 23.8673 0.570115ZM13.8826 7.71201C13.3162 7.71201 12.8571 7.23707 12.8571 6.65123C12.8571 6.06539 13.3162 5.59046 13.8826 5.59046C14.4489 5.59046 14.908 6.06539 14.908 6.65123C14.908 7.23707 14.4489 7.71201 13.8826 7.71201ZM20.725 7.71201C20.1587 7.71201 19.6996 7.23707 19.6996 6.65123C19.6996 6.06539 20.1587 5.59046 20.725 5.59046C21.2913 5.59046 21.7504 6.06539 21.7504 6.65123C21.7504 7.23707 21.2913 7.71201 20.725 7.71201Z" fill="white"/>
</g>
<defs>
<clipPath id="clip0_3003_14847">
<rect width="32.7503" height="33.8796" fill="white" transform="translate(0.92865 0.356445)"/>
</clipPath>
</defs>
</svg>
