<svg width="268" height="246" viewBox="0 0 268 246" fill="none" xmlns="http://www.w3.org/2000/svg">
<g filter="url(#filter0_d_1771_11301)">
<path fill-rule="evenodd" clip-rule="evenodd" d="M244.14 157.163L250.041 136.685C250.181 136.215 250.18 135.719 250.038 135.25C249.896 134.781 249.617 134.357 249.233 134.026L212.368 103.609L217.828 84.6602C218.024 83.9795 217.921 83.2542 217.542 82.6439C217.164 82.0336 216.54 81.5883 215.808 81.4059L196.518 76.5993L204.644 48.3948C204.782 47.9252 204.779 47.4296 204.637 46.9612C204.495 46.4928 204.218 46.0691 203.837 45.7355L165.623 14.2656C165.294 13.9885 164.899 13.7882 164.47 13.6814C164.041 13.5745 163.591 13.5641 163.157 13.6511L113.142 23.1365C112.633 23.2482 112.166 23.4866 111.791 23.8262C111.416 24.1657 111.147 24.5937 111.013 25.0642L102.886 53.2687L83.5967 48.4622C83.2342 48.3719 82.8561 48.3488 82.4841 48.3944C82.1121 48.4399 81.7533 48.5531 81.4284 48.7276C81.1034 48.9021 80.8187 49.1344 80.5903 49.4112C80.3618 49.688 80.1944 50.004 80.0972 50.341L74.6453 69.2623L26.3648 78.4629C25.8539 78.5718 25.3851 78.8091 25.0096 79.1491C24.6342 79.4891 24.3665 79.9186 24.2359 80.3906L18.3355 100.868C18.1949 101.338 18.1957 101.834 18.3381 102.303C18.4805 102.772 18.7589 103.196 19.1427 103.528L56.008 133.944L50.5561 152.866C50.459 153.203 50.4341 153.554 50.4831 153.9C50.5321 154.246 50.6537 154.58 50.8414 154.882C51.029 155.184 51.2788 155.449 51.5765 155.661C51.8742 155.874 52.214 156.03 52.5765 156.12L71.8662 160.926L63.7316 189.158C63.5944 189.628 63.597 190.124 63.7392 190.592C63.8813 191.06 64.1577 191.484 64.5388 191.818L102.753 223.288C103.082 223.565 103.477 223.765 103.906 223.872C104.335 223.979 104.785 223.989 105.219 223.902L155.234 214.417C155.743 214.305 156.21 214.066 156.585 213.727C156.96 213.387 157.229 212.959 157.363 212.489L165.49 184.284L184.779 189.091C185.511 189.273 186.291 189.178 186.948 188.825C187.604 188.473 188.083 187.893 188.279 187.212L193.731 168.291L242.011 159.09C242.522 158.981 242.991 158.744 243.367 158.404C243.742 158.064 244.01 157.635 244.14 157.163ZM197.97 142.658L241 134.476L210.561 109.333L205.841 125.715C205.767 126.074 205.615 126.415 205.393 126.716C205.171 127.018 204.885 127.274 204.553 127.468C204.22 127.662 203.848 127.79 203.459 127.844C203.071 127.898 202.675 127.878 202.295 127.783C201.916 127.689 201.561 127.522 201.254 127.295C200.947 127.067 200.694 126.783 200.51 126.46C200.326 126.138 200.216 125.783 200.186 125.419C200.156 125.055 200.207 124.689 200.336 124.344L205.056 107.961L165.103 115.564L197.97 142.658ZM238.954 154.246L195.383 162.557L199.643 147.772L243.406 139.451L238.954 154.246ZM160.55 118.805L156.275 133.644L189.731 161.149L193.991 146.364L160.55 118.805ZM206.704 102.241L158.424 111.442C157.914 111.552 157.446 111.79 157.07 112.13C156.695 112.47 156.427 112.898 156.295 113.37L150.395 133.847C150.256 134.317 150.257 134.813 150.4 135.282C150.542 135.75 150.819 136.174 151.202 136.507L188.067 166.923L183.347 183.306L166.802 179.183L169.017 171.497C169.154 171.027 169.151 170.532 169.009 170.063C168.867 169.595 168.591 169.171 168.21 168.838L129.995 137.368C129.662 137.097 129.266 136.901 128.839 136.795C128.411 136.688 127.963 136.674 127.529 136.753L77.5144 146.239C77.0051 146.35 76.5379 146.589 76.1629 146.928C75.7879 147.268 75.5193 147.696 75.3856 148.166L73.171 155.852L56.5823 151.719L61.3026 135.337L109.583 126.136C110.093 126.026 110.561 125.788 110.936 125.448C111.312 125.108 111.58 124.68 111.712 124.209L117.612 103.731C117.751 103.261 117.749 102.765 117.607 102.297C117.465 101.828 117.188 101.404 116.805 101.072L79.9399 70.6548L84.6602 54.2726L101.205 58.3952L98.9823 66.1084C98.845 66.5781 98.8477 67.0737 98.9898 67.5421C99.132 68.0105 99.4084 68.4341 99.7895 68.7677L138.004 100.238C138.337 100.508 138.733 100.704 139.16 100.811C139.588 100.917 140.036 100.931 140.47 100.852L190.485 91.3667C190.994 91.255 191.461 91.0166 191.836 90.6771C192.211 90.3375 192.48 89.9096 192.613 89.439L194.828 81.7531L211.373 85.8756L206.704 102.241ZM127.322 142.115L84.2869 150.311L117.141 177.446L160.184 169.223L127.322 142.115ZM118.631 182.543L162.394 174.222L152.226 209.512L108.463 217.833L118.631 182.543ZM113.127 181.113L79.7009 153.558L69.5326 188.848L102.958 216.403L113.127 181.113ZM67.2862 114.734L111.064 106.416L106.808 121.187L63.0261 129.518L67.2862 114.734ZM61.8399 113.377L28.414 85.8212L24.1421 100.647L57.5641 128.216L61.8399 113.377ZM73.635 92.6996L78.3553 76.3175L108.868 101.479L65.837 109.661L32.9706 82.5671L72.9237 74.9641L68.2034 91.3462C68.0743 91.6912 68.0231 92.0572 68.053 92.4214C68.0829 92.7856 68.1933 93.1402 68.3771 93.4629C68.561 93.7857 68.8144 94.0697 69.1216 94.2973C69.4288 94.5249 69.7831 94.6912 70.1625 94.7857C70.5419 94.8802 70.9381 94.901 71.3265 94.8468C71.7149 94.7925 72.0872 94.6643 72.4199 94.4703C72.7527 94.2763 73.0389 94.0205 73.2606 93.719C73.4823 93.4175 73.6348 93.0767 73.7085 92.718L73.635 92.6996ZM129.195 60.7083C129.571 61.3174 129.672 62.04 129.477 62.7183L129.526 62.6574C129.332 63.3311 128.861 63.9068 128.214 64.2603C127.568 64.6139 126.798 64.7169 126.07 64.5472L106.707 59.7224L104.949 65.8247L138.371 93.3935L148.539 58.1038L115.117 30.5349L108.167 54.6575L127.471 59.4677C128.199 59.6531 128.819 60.0992 129.195 60.7083ZM187.638 86.502L143.871 94.8372L154.059 59.4792L197.826 51.144L190.895 75.1983L171.59 70.3881C170.858 70.2057 170.079 70.3012 169.422 70.6535C168.766 71.0059 168.287 71.5862 168.091 72.2669C167.895 72.9476 167.998 73.6728 168.376 74.2831C168.755 74.8934 169.379 75.3388 170.111 75.5211L189.416 80.3314L187.638 86.502ZM152.611 54.3483L195.596 46.2134L162.771 19.0858L119.748 27.2408L152.611 54.3483Z" fill="url(#paint0_linear_1771_11301)" fill-opacity="0.15" shape-rendering="crispEdges"/>
</g>
<defs>
<filter id="filter0_d_1771_11301" x="0.630468" y="-0.00722694" width="267.115" height="245.568" filterUnits="userSpaceOnUse" color-interpolation-filters="sRGB">
<feFlood flood-opacity="0" result="BackgroundImageFix"/>
<feColorMatrix in="SourceAlpha" type="matrix" values="0 0 0 0 0 0 0 0 0 0 0 0 0 0 0 0 0 0 127 0" result="hardAlpha"/>
<feOffset dy="4"/>
<feGaussianBlur stdDeviation="8.8"/>
<feComposite in2="hardAlpha" operator="out"/>
<feColorMatrix type="matrix" values="0 0 0 0 0.0592 0 0 0 0 0.422293 0 0 0 0 0.74 0 0 0 0.3 0"/>
<feBlend mode="normal" in2="BackgroundImageFix" result="effect1_dropShadow_1771_11301"/>
<feBlend mode="normal" in="SourceGraphic" in2="effect1_dropShadow_1771_11301" result="shape"/>
</filter>
<linearGradient id="paint0_linear_1771_11301" x1="-858.186" y1="-1094.12" x2="-3.77849" y2="497.237" gradientUnits="userSpaceOnUse">
<stop stop-color="#0DFEF6"/>
<stop offset="0.26" stop-color="#1AC3F2"/>
<stop offset="0.51" stop-color="#268EEF"/>
<stop offset="1" stop-color="#E439F7"/>
</linearGradient>
</defs>
</svg>
