<svg viewBox="0 0 1010 1010" fill="none" xmlns="http://www.w3.org/2000/svg"
            class="-top-20 right-0">
            <g opacity="0.53">
                <path
                    d="M354.932 509.754L246.367 548.123C246.367 501.19 266.599 517.497 279.823 510.806C294.079 503.589 286.83 477.497 315.363 473.92C347.031 469.943 354.932 509.754 354.932 509.754Z"
                    fill="#0F6CBD" stroke="#240C64" stroke-width="2" stroke-linecap="round" stroke-linejoin="round" />
                <path
                    d="M246.367 548.123C246.367 501.19 266.599 517.497 279.823 510.806C294.079 503.589 286.83 477.497 315.363 473.92C347.031 469.943 354.932 509.754 354.932 509.754"
                    stroke="#240C64" stroke-width="2" stroke-linecap="round" stroke-linejoin="round" />
                <path
                    d="M254.51 545.241C254.678 506.419 271.564 519.465 282.969 513.983C295.036 508.186 289.997 487.471 313.469 483.673C340.454 479.307 348.103 512.174 348.103 512.174"
                    stroke="#240C64" stroke-width="2" stroke-linecap="round" stroke-linejoin="round" />
                <path
                    d="M262.654 542.371C262.98 511.66 276.521 521.434 286.126 517.163C295.995 512.786 293.186 497.383 311.576 493.428C333.901 488.63 341.266 514.585 341.266 514.585"
                    stroke="#240C64" stroke-width="2" stroke-linecap="round" stroke-linejoin="round" />
                <path
                    d="M270.797 539.493C271.291 516.883 281.475 523.375 289.282 520.345C296.941 517.367 296.384 507.183 309.682 503.185C327.399 497.862 334.437 516.999 334.437 516.999"
                    stroke="#240C64" stroke-width="2" stroke-linecap="round" stroke-linejoin="round" />
                <path
                    d="M278.939 536.616C279.602 522.119 286.409 525.306 292.438 523.528C297.877 521.919 299.571 516.763 307.798 512.944C320.897 506.863 327.619 519.415 327.619 519.415"
                    stroke="#240C64" stroke-width="2" stroke-linecap="round" stroke-linejoin="round" />
                <path
                    d="M287.072 533.739C288.524 522.555 297.919 530.278 305.884 522.703C313.858 515.128 320.76 521.83 320.76 521.83"
                    stroke="#240C64" stroke-width="2" stroke-linecap="round" stroke-linejoin="round" />
                <path
                    d="M354.541 462.219C360.685 477.338 371.774 487.648 390.301 484.808C422.958 479.81 432.311 507.406 429.428 528.722C425.031 561.136 404.042 597.402 350.806 605.555C326.503 609.28 294.351 603.556 290.785 580.316C283.725 534.214 313.826 542.788 319.433 517.359C321.863 506.312 316.571 493.203 310.869 481.557C292.247 443.461 339.065 424.145 354.552 462.209L354.541 462.219Z"
                    fill="#0F6CBD" stroke="#240C64" stroke-width="2" stroke-linecap="round" stroke-linejoin="round" />
                <path
                    d="M354.541 462.219C360.685 477.338 371.774 487.648 390.301 484.808C422.958 479.81 432.311 507.406 429.428 528.722C425.031 561.136 404.042 597.402 350.806 605.555C326.503 609.28 294.351 603.556 290.785 580.316C283.725 534.214 313.826 542.788 319.433 517.359C321.863 506.312 316.571 493.203 310.869 481.557C292.247 443.461 339.065 424.145 354.552 462.209L354.541 462.219Z"
                    stroke="#240C64" stroke-width="2" stroke-linecap="round" stroke-linejoin="round" />
                <path
                    d="M316.014 486.335C300.032 452.479 341.905 435.488 355.54 468.934C360.906 482.085 371.301 491.143 387.913 488.881C417.077 484.904 425.388 509.491 422.789 528.702C418.834 557.95 399.907 590.365 352.268 598.161C330.175 601.78 301.432 596.215 298.465 575.362C292.72 533.837 319.317 541.464 323.641 518.697C325.524 508.776 320.864 496.603 316.024 486.335H316.014Z"
                    stroke="#240C64" stroke-width="2" stroke-linecap="round" stroke-linejoin="round" />
                <path
                    d="M321.17 491.111C307.85 461.506 344.757 446.84 356.541 475.667C361.128 486.84 370.818 494.657 385.526 492.974C411.186 490.028 418.477 511.595 416.162 528.702C412.638 554.783 395.773 583.358 353.742 590.786C333.858 594.3 308.439 588.892 306.146 570.417C301.559 533.489 324.81 540.117 327.85 520.033C329.187 511.217 325.168 500.012 321.17 491.122V491.111Z"
                    stroke="#240C64" stroke-width="2" stroke-linecap="round" stroke-linejoin="round" />
                <path
                    d="M326.324 495.875C315.666 470.509 347.607 458.168 357.539 482.376C361.348 491.582 370.332 498.158 383.136 497.042C405.293 495.117 411.553 513.676 409.523 528.668C406.429 551.582 391.616 576.338 355.204 583.376C337.518 586.796 315.487 581.535 313.825 565.438C310.479 533.087 330.29 538.715 332.068 521.346C332.857 513.623 329.491 503.397 326.324 495.875V495.875Z"
                    stroke="#240C64" stroke-width="2" stroke-linecap="round" stroke-linejoin="round" />
                <path
                    d="M331.479 500.65C323.515 479.545 350.406 469.54 358.539 489.098C361.548 496.337 369.827 501.66 380.748 501.124C399.37 500.208 404.63 515.769 402.894 528.657C400.233 548.404 387.481 569.372 356.676 575.99C341.19 579.325 322.547 574.201 321.505 560.482C319.401 532.707 335.75 537.294 336.276 522.67C336.518 516.011 333.794 506.794 331.479 500.65Z"
                    stroke="#240C64" stroke-width="2" stroke-linecap="round" stroke-linejoin="round" />
                <path
                    d="M336.635 505.426C331.406 488.592 353.227 480.891 359.539 495.82C361.769 501.091 369.376 506.383 378.361 505.205C393.3 503.237 397.709 517.861 396.267 528.645C394.037 545.226 383.337 562.449 358.15 568.603C344.852 571.854 329.607 566.857 329.197 555.526C328.345 532.317 341.159 535.81 340.496 524.005C340.181 518.356 338.129 510.213 336.635 505.426V505.426Z"
                    stroke="#240C64" stroke-width="2" stroke-linecap="round" stroke-linejoin="round" />
                <path
                    d="M341.79 510.191C339.36 497.692 356.046 492.242 360.549 502.532C361.99 505.825 368.765 510.086 375.983 509.276C387.429 507.992 390.807 519.954 389.639 528.623C387.84 542.038 379.192 555.588 359.623 561.206C348.513 564.394 336.687 559.502 336.887 550.559C337.308 531.906 344.778 534.389 344.715 525.33C342.968 520.87 342.474 513.663 341.801 510.191H341.79Z"
                    stroke="#240C64" stroke-width="2" stroke-linecap="round" stroke-linejoin="round" />
                <path
                    d="M346.945 514.973C345.63 507.146 358.802 503.642 361.548 509.271C362.2 510.607 368.113 512.091 373.594 513.374C381.411 515.205 383.884 522.064 383.01 528.629C381.643 538.877 375.067 548.882 361.096 553.837C352.153 557.015 343.778 552.154 344.567 545.621C346.282 531.491 349.933 533.006 348.923 526.673C346.472 523.306 346.335 517.141 346.945 514.984V514.973Z"
                    stroke="#240C64" stroke-width="2" stroke-linecap="round" stroke-linejoin="round" />
                <path
                    d="M352.1 519.736C353.257 516.233 361.853 514.876 362.547 515.98C362.463 515.318 367.871 514.676 371.206 517.443C375.677 518.937 376.961 524.145 376.372 528.595C375.446 535.675 370.974 542.367 362.558 546.428C355.803 549.689 350.911 544.765 352.247 540.641C355.362 531.025 355.088 531.593 353.142 527.985C349.996 525.723 350.596 520.546 352.1 519.736V519.736Z"
                    stroke="#240C64" stroke-width="2" stroke-linecap="round" stroke-linejoin="round" />
                <path
                    d="M364.031 539.044C359.781 542.831 358.171 537.487 359.928 535.688C364.747 530.774 360.244 530.196 357.351 529.322C353.511 528.155 354.836 523.978 357.256 524.525C360.886 525.346 364.705 526.24 363.547 522.715C362.685 520.075 367.387 518.065 368.818 521.537C371.364 527.671 369.06 534.572 364.031 539.054V539.044Z"
                    stroke="#240C64" stroke-width="2" stroke-linecap="round" stroke-linejoin="round" />
                <path
                    d="M316.698 622.925L146.492 685.408C146.492 663.483 171.626 663.494 185.23 649.953C198.844 636.413 199.044 608.743 233.762 597.391C268.681 585.965 276.204 610.742 290.175 616.002C304.147 621.263 311.669 615.182 316.698 622.925Z"
                    fill="#0F6CBD" stroke="#240C64" stroke-width="2" stroke-miterlimit="10" stroke-linecap="round"
                    stroke-linejoin="round" />
                <path
                    d="M146.482 685.401C146.482 663.475 171.617 663.486 185.22 649.945C198.834 636.405 199.034 608.735 233.753 597.383C268.671 585.958 276.194 610.734 290.165 615.995C304.137 621.255 311.66 615.174 316.688 622.917"
                    stroke="#240C64" stroke-width="2" stroke-miterlimit="10" stroke-linecap="round"
                    stroke-linejoin="round" />
                <path
                    d="M157.16 681.485C158.349 662.779 180.127 662.274 192.426 650.817C205.609 638.529 206.945 615.351 235.656 604.262C246.187 600.191 254.625 600.328 260.601 603.263C271.038 608.387 276.814 617.855 284.883 620.643C297.014 624.831 303.789 619.675 308.576 625.914"
                    stroke="#240C64" stroke-width="2" stroke-miterlimit="10" stroke-linecap="round"
                    stroke-linejoin="round" />
                <path
                    d="M167.83 677.571C170.197 662.084 188.682 661.095 199.614 651.679C212.417 640.653 214.869 621.916 237.552 611.132C246 607.113 253.817 606.787 258.709 609.964C267.105 615.403 272.365 623.073 279.593 625.282C289.882 628.418 295.911 624.157 300.445 628.891"
                    stroke="#240C64" stroke-width="2" stroke-miterlimit="10" stroke-linecap="round"
                    stroke-linejoin="round" />
                <path
                    d="M178.498 673.649C182.054 661.382 197.299 659.962 206.799 652.545C219.266 642.813 222.843 628.389 239.445 618.015C245.852 614.007 252.996 613.228 256.826 616.669C263.17 622.392 267.915 628.315 274.311 629.925C282.728 632.04 288.041 628.652 292.323 631.871"
                    stroke="#240C64" stroke-width="2" stroke-miterlimit="10" stroke-linecap="round"
                    stroke-linejoin="round" />
                <path
                    d="M189.176 669.734C193.921 660.686 205.999 658.908 213.994 653.416C226.199 645.041 230.838 634.626 241.338 624.894C245.725 620.833 252.196 619.623 254.931 623.379C259.266 629.323 263.432 633.573 269.018 634.562C275.541 635.72 280.16 633.132 284.189 634.857"
                    stroke="#240C64" stroke-width="2" stroke-miterlimit="10" stroke-linecap="round"
                    stroke-linejoin="round" />
                <path
                    d="M199.844 665.823C205.767 659.995 214.752 657.954 221.18 654.282C233.216 647.412 238.603 640.436 243.232 631.778C245.525 627.485 251.448 626.002 253.037 630.084C255.425 636.197 258.929 638.9 263.726 639.206C268.524 639.511 272.28 637.627 276.057 637.838"
                    stroke="#240C64" stroke-width="2" stroke-miterlimit="10" stroke-linecap="round"
                    stroke-linejoin="round" />
                <path
                    d="M210.512 661.896C235.372 652.775 245.746 649.219 245.125 638.645C244.852 634.079 250.764 632.375 251.154 636.783C252.08 647.377 259.234 644.021 267.934 640.823"
                    stroke="#240C64" stroke-width="2" stroke-miterlimit="10" stroke-linecap="round"
                    stroke-linejoin="round" />
                <path fill-rule="evenodd" clip-rule="evenodd"
                    d="M474.469 165.969H712.545L758.5 208.052H520.424L474.469 165.969ZM779.541 229.094H541.465L582.864 285.969H820.94L779.541 229.094ZM640.026 442.211L208.535 599.255L447.831 686.357L879.322 529.302L640.026 442.211ZM603.906 317.531H841.982L879.321 420.12H641.245L603.906 317.531Z"
                    fill="url(#paint0_linear_1239_16047)" />
                <path
                    d="M712.545 165.969L713.22 165.231C713.036 165.062 712.795 164.969 712.545 164.969V165.969ZM474.469 165.969V164.969C474.056 164.969 473.686 165.222 473.537 165.606C473.387 165.991 473.489 166.428 473.793 166.706L474.469 165.969ZM758.5 208.052V209.052C758.912 209.052 759.282 208.799 759.432 208.414C759.581 208.03 759.479 207.593 759.175 207.315L758.5 208.052ZM520.424 208.052L519.748 208.79C519.933 208.958 520.174 209.052 520.424 209.052V208.052ZM541.465 229.094V228.094C541.089 228.094 540.744 228.305 540.574 228.64C540.403 228.975 540.435 229.378 540.656 229.682L541.465 229.094ZM779.541 229.094L780.349 228.505C780.161 228.247 779.861 228.094 779.541 228.094V229.094ZM582.864 285.969L582.056 286.558C582.244 286.816 582.545 286.969 582.864 286.969V285.969ZM820.94 285.969V286.969C821.317 286.969 821.661 286.758 821.832 286.423C822.002 286.088 821.97 285.685 821.749 285.381L820.94 285.969ZM208.535 599.255L208.193 598.316C207.798 598.46 207.535 598.835 207.535 599.255C207.535 599.676 207.798 600.051 208.193 600.195L208.535 599.255ZM640.026 442.211L640.368 441.271C640.147 441.191 639.905 441.191 639.684 441.271L640.026 442.211ZM447.831 686.357L447.489 687.297C447.71 687.378 447.953 687.378 448.174 687.297L447.831 686.357ZM879.322 529.302L879.664 530.242C880.059 530.098 880.322 529.723 880.322 529.302C880.322 528.882 880.059 528.506 879.664 528.363L879.322 529.302ZM841.982 317.531L842.922 317.189C842.778 316.794 842.403 316.531 841.982 316.531V317.531ZM603.906 317.531V316.531C603.58 316.531 603.274 316.69 603.087 316.958C602.9 317.225 602.855 317.567 602.967 317.873L603.906 317.531ZM879.321 420.12V421.12C879.647 421.12 879.953 420.961 880.14 420.693C880.327 420.426 880.372 420.084 880.26 419.778L879.321 420.12ZM641.245 420.12L640.305 420.462C640.449 420.857 640.824 421.12 641.245 421.12V420.12ZM712.545 164.969H474.469V166.969H712.545V164.969ZM759.175 207.315L713.22 165.231L711.869 166.706L757.824 208.79L759.175 207.315ZM520.424 209.052H758.5V207.052H520.424V209.052ZM473.793 166.706L519.748 208.79L521.099 207.315L475.144 165.231L473.793 166.706ZM541.465 230.094H779.541V228.094H541.465V230.094ZM583.673 285.381L542.273 228.505L540.656 229.682L582.056 286.558L583.673 285.381ZM820.94 284.969H582.864V286.969H820.94V284.969ZM778.732 229.682L820.132 286.558L821.749 285.381L780.349 228.505L778.732 229.682ZM208.877 600.195L640.368 443.151L639.684 441.271L208.193 598.316L208.877 600.195ZM448.174 685.418L208.877 598.316L208.193 600.195L447.489 687.297L448.174 685.418ZM878.98 528.363L447.489 685.418L448.174 687.297L879.664 530.242L878.98 528.363ZM639.684 443.151L878.98 530.242L879.664 528.363L640.368 441.271L639.684 443.151ZM841.982 316.531H603.906V318.531H841.982V316.531ZM880.26 419.778L842.922 317.189L841.042 317.873L878.381 420.462L880.26 419.778ZM641.245 421.12H879.321V419.12H641.245V421.12ZM602.967 317.873L640.305 420.462L642.184 419.778L604.846 317.189L602.967 317.873Z"
                    fill="#240C64" />
                <path d="M735.932 559.494L751.713 553.75V253.906L735.932 259.651V559.494Z"
                    fill="url(#paint1_linear_1239_16047)" stroke="#240C64" stroke-width="2" stroke-linecap="round"
                    stroke-linejoin="round" />
                <path d="M557.078 194.549L572.859 188.805L751.714 253.908L735.932 259.652L557.078 194.549Z" fill="#FFBA5D"
                    stroke="#240C64" stroke-width="2" stroke-linecap="round" stroke-linejoin="round" />
                <path d="M572.859 500.135L588.641 494.391V210.328L572.859 216.073V500.135Z"
                    fill="url(#paint2_linear_1239_16047)" stroke="#240C64" stroke-width="2" stroke-linecap="round"
                    stroke-linejoin="round" />
                <path
                    d="M720.151 253.905L572.859 200.291L557.078 194.547V494.391L572.859 500.135V216.073L720.151 269.687V553.749L735.932 559.494V259.65L720.151 253.905Z"
                    fill="url(#paint3_linear_1239_16047)" stroke="#240C64" stroke-width="2" stroke-linecap="round"
                    stroke-linejoin="round" />
                <path d="M709.631 250.08V350.028L646.506 242.884L583.381 304.073V204.125L709.631 250.08Z"
                    fill="url(#paint4_linear_1239_16047)" stroke="#240C64" stroke-width="2" stroke-linecap="round"
                    stroke-linejoin="round" />
                <path d="M572.859 216.078L720.151 269.692" stroke="#240C64" stroke-width="2" stroke-linecap="round"
                    stroke-linejoin="round" />
                <path d="M709.631 250.074L725.412 244.33L599.162 198.375L583.381 204.119L709.631 250.074Z" fill="#0F6CBD"
                    stroke="#240C64" stroke-width="2" stroke-linecap="round" stroke-linejoin="round" />
                <path d="M625.463 599.698L641.244 593.953V294.109L625.463 299.854V599.698Z"
                    fill="url(#paint5_linear_1239_16047)" stroke="#240C64" stroke-width="2" stroke-linecap="round"
                    stroke-linejoin="round" />
                <path d="M446.609 234.76L462.391 229.016L641.245 294.108L625.464 299.852L446.609 234.76Z" fill="#FFBA5D"
                    stroke="#240C64" stroke-width="2" stroke-linecap="round" stroke-linejoin="round" />
                <path d="M462.391 540.346L478.172 534.602V250.539L462.391 256.283V540.346Z"
                    fill="url(#paint6_linear_1239_16047)" stroke="#240C64" stroke-width="2" stroke-linecap="round"
                    stroke-linejoin="round" />
                <path
                    d="M609.682 294.106L462.391 240.502L446.609 234.758V534.602L462.391 540.346V256.283L609.682 309.887V593.95L625.464 599.694V299.85L609.682 294.106Z"
                    fill="url(#paint7_linear_1239_16047)" stroke="#240C64" stroke-width="2" stroke-linecap="round"
                    stroke-linejoin="round" />
                <path
                    d="M599.162 290.28V318.613L578.12 368.187L557.079 303.295V290.743L514.995 275.436V287.987L493.954 337.551L472.912 272.669V244.336L599.162 290.28Z"
                    fill="url(#paint8_linear_1239_16047)" stroke="#240C64" stroke-width="2" stroke-linecap="round"
                    stroke-linejoin="round" />
                <path d="M462.391 256.289L609.682 309.893" stroke="#240C64" stroke-width="2" stroke-linecap="round"
                    stroke-linejoin="round" />
                <path d="M599.162 290.275L614.943 284.53L488.693 238.586L472.912 244.33L599.162 290.275Z" fill="#0F6CBD"
                    stroke="#240C64" stroke-width="2" stroke-linecap="round" stroke-linejoin="round" />
                <path d="M514.994 639.908L530.775 634.164V334.32L514.994 340.065V639.908Z"
                    fill="url(#paint9_linear_1239_16047)" stroke="#240C64" stroke-width="2" stroke-linecap="round"
                    stroke-linejoin="round" />
                <path d="M336.141 274.96L351.922 269.227L530.776 334.319L514.995 340.063L336.141 274.96Z" fill="#FFBA5D"
                    stroke="#240C64" stroke-width="2" stroke-linecap="round" stroke-linejoin="round" />
                <path d="M351.922 580.549L367.703 574.805V290.742L351.922 296.487V580.549Z"
                    fill="url(#paint10_linear_1239_16047)" stroke="#240C64" stroke-width="2" stroke-linecap="round"
                    stroke-linejoin="round" />
                <path
                    d="M499.214 334.319L351.922 280.705L336.141 274.961V574.805L351.922 580.549V296.487L499.214 350.101V634.163L514.995 639.908V340.064L499.214 334.319Z"
                    fill="url(#paint11_linear_1239_16047)" stroke="#240C64" stroke-width="2" stroke-linecap="round"
                    stroke-linejoin="round" />
                <path
                    d="M488.693 330.486V346.267L467.652 369.529L446.61 330.949L425.568 354.211L404.527 315.62L383.485 338.892L362.443 300.312V284.531L488.693 330.486Z"
                    fill="url(#paint12_linear_1239_16047)" stroke="#240C64" stroke-width="2" stroke-linecap="round"
                    stroke-linejoin="round" />
                <path d="M351.922 296.484L499.214 350.099" stroke="#240C64" stroke-width="2" stroke-linecap="round"
                    stroke-linejoin="round" />
                <path d="M488.693 330.488L504.475 324.744L378.225 278.789L362.443 284.533L488.693 330.488Z" fill="#0F6CBD"
                    stroke="#240C64" stroke-width="2" stroke-linecap="round" stroke-linejoin="round" />
                <path fill-rule="evenodd" clip-rule="evenodd"
                    d="M437.309 696.878L167.67 696.867L130.332 799.456H399.97L437.309 696.878ZM411.437 820.5H141.799L160.947 873.104H430.585L411.437 820.5Z"
                    fill="url(#paint13_linear_1239_16047)" />
                <path
                    d="M167.67 696.867L167.671 695.867C167.25 695.867 166.875 696.13 166.731 696.525L167.67 696.867ZM437.309 696.878L438.249 697.22C438.36 696.913 438.315 696.571 438.128 696.304C437.941 696.037 437.635 695.878 437.309 695.878L437.309 696.878ZM130.332 799.456L129.392 799.114C129.281 799.42 129.326 799.762 129.513 800.029C129.7 800.297 130.006 800.456 130.332 800.456V799.456ZM399.97 799.456V800.456C400.391 800.456 400.766 800.193 400.91 799.798L399.97 799.456ZM141.799 820.5V819.5C141.473 819.5 141.167 819.659 140.98 819.926C140.793 820.194 140.748 820.535 140.859 820.842L141.799 820.5ZM411.437 820.5L412.377 820.158C412.233 819.763 411.858 819.5 411.437 819.5V820.5ZM160.947 873.104L160.007 873.446C160.151 873.841 160.526 874.104 160.947 874.104V873.104ZM430.585 873.104V874.104C430.911 874.104 431.217 873.945 431.404 873.678C431.591 873.41 431.636 873.069 431.525 872.762L430.585 873.104ZM167.67 697.867L437.309 697.878L437.309 695.878L167.671 695.867L167.67 697.867ZM131.272 799.798L168.61 697.209L166.731 696.525L129.392 799.114L131.272 799.798ZM399.97 798.456H130.332V800.456H399.97V798.456ZM436.369 696.536L399.031 799.114L400.91 799.798L438.249 697.22L436.369 696.536ZM141.799 821.5H411.437V819.5H141.799V821.5ZM161.886 872.762L142.739 820.158L140.859 820.842L160.007 873.446L161.886 872.762ZM430.585 872.104H160.947V874.104H430.585V872.104ZM410.498 820.842L429.645 873.446L431.525 872.762L412.377 820.158L410.498 820.842Z"
                    fill="#240C64" />
                <path
                    d="M752.765 694.049L666.494 725.296C666.494 687.895 691.628 684.044 709.63 692.271C730.861 701.982 729.682 676.522 752.765 694.039V694.049Z"
                    fill="#0F6CBD" stroke="#240C64" stroke-width="2" stroke-linecap="round" stroke-linejoin="round" />
                <path
                    d="M666.494 725.304C666.494 687.903 691.628 684.052 709.63 692.279C730.861 701.99 729.682 676.529 752.765 694.047"
                    stroke="#240C64" stroke-width="2" stroke-linecap="round" stroke-linejoin="round" />
                <path
                    d="M675.131 722.169C675.994 693.942 693.847 691.827 707.672 697.75C722.843 704.252 723.19 687.503 740.065 698.644"
                    stroke="#240C64" stroke-width="2" stroke-linecap="round" stroke-linejoin="round" />
                <path
                    d="M683.76 719.046C685.496 699.992 696.038 699.656 705.717 703.233C714.796 706.589 716.69 698.488 727.358 703.254"
                    stroke="#240C64" stroke-width="2" stroke-linecap="round" stroke-linejoin="round" />
                <path d="M692.396 715.918C696.342 700.968 701.508 712.615 714.659 707.859" stroke="#240C64" stroke-width="2"
                    stroke-linecap="round" stroke-linejoin="round" />
                <path
                    d="M810.861 584.415L647.504 645.057C647.504 615.294 665.568 617.797 675.9 603.678C687.062 588.434 674.848 554.21 708.125 545.246C739.561 536.787 749.735 566.729 770.566 576.293C788.388 584.467 810.861 572.842 810.861 584.404V584.415Z"
                    fill="#0F6CBD" stroke="#240C64" stroke-width="2" stroke-miterlimit="10" stroke-linecap="round"
                    stroke-linejoin="round" />
                <path
                    d="M647.504 645.057C647.504 615.294 665.568 617.797 675.9 603.678C687.062 588.434 674.848 554.21 708.125 545.246C739.561 536.787 749.735 566.729 770.566 576.293C788.388 584.467 810.861 572.842 810.861 584.404"
                    stroke="#240C64" stroke-width="2" stroke-miterlimit="10" stroke-linecap="round"
                    stroke-linejoin="round" />
                <path
                    d="M656.898 641.571C657.509 615.784 673.279 617.731 682.19 605.106C684.305 602.128 685.452 598.362 686.22 594.196C689.04 579.025 688.093 559.729 710.765 554.111C738.067 547.346 747.462 572.912 766.326 581.076C782.023 587.873 801.634 577.93 802.096 587.673"
                    stroke="#240C64" stroke-width="2" stroke-miterlimit="10" stroke-linecap="round"
                    stroke-linejoin="round" />
                <path
                    d="M666.295 638.085C667.515 616.264 680.961 617.653 688.494 606.522C690.261 603.913 691.229 600.641 691.861 597.001C694.196 583.397 694.049 567.195 713.439 562.955C736.595 557.884 745.222 579.084 762.108 585.838C775.67 591.267 792.44 582.997 793.366 590.92"
                    stroke="#240C64" stroke-width="2" stroke-miterlimit="10" stroke-linecap="round"
                    stroke-linejoin="round" />
                <path
                    d="M675.689 634.602C677.52 616.758 688.662 617.589 694.785 607.952C696.205 605.711 697.005 602.923 697.489 599.82C699.351 587.784 699.993 574.686 716.089 571.813C735.09 568.426 742.928 585.27 757.878 590.614C769.293 594.696 783.223 588.089 784.622 594.17"
                    stroke="#240C64" stroke-width="2" stroke-miterlimit="10" stroke-linecap="round"
                    stroke-linejoin="round" />
                <path
                    d="M685.084 631.103C687.525 617.236 696.362 617.51 701.076 609.356C702.159 607.483 702.77 605.179 703.106 602.612C704.474 592.133 705.894 582.128 718.73 580.645C733.564 578.93 740.592 591.45 753.638 595.374C762.875 598.151 773.996 593.154 775.858 597.415"
                    stroke="#240C64" stroke-width="2" stroke-miterlimit="10" stroke-linecap="round"
                    stroke-linejoin="round" />
                <path
                    d="M694.479 627.62C697.53 617.731 704.074 617.457 707.367 610.787C708.103 609.283 708.534 607.473 708.734 605.432C709.597 596.51 711.775 589.577 721.38 589.493C732.006 589.398 738.224 597.699 749.408 600.14C756.425 601.666 764.789 598.225 767.114 600.666"
                    stroke="#240C64" stroke-width="2" stroke-miterlimit="10" stroke-linecap="round"
                    stroke-linejoin="round" />
                <path
                    d="M703.875 624.13C707.536 618.217 711.797 617.407 713.659 612.199C714.059 611.074 714.301 609.738 714.364 608.233C714.69 600.868 717.594 596.913 724.033 598.333C730.472 599.753 735.795 604.088 745.169 604.898C749.925 605.308 755.564 603.288 758.362 603.909"
                    stroke="#240C64" stroke-width="2" stroke-miterlimit="10" stroke-linecap="round"
                    stroke-linejoin="round" />
                <path
                    d="M713.27 620.646C718.404 618.311 720.287 616.848 719.982 611.041C719.677 605.233 723.633 603.823 726.673 607.18C729.714 610.536 736.699 611.935 749.598 607.148"
                    stroke="#240C64" stroke-width="2" stroke-miterlimit="10" stroke-linecap="round"
                    stroke-linejoin="round" />
                <path
                    d="M274.381 387.385C287.706 376.156 289.406 356.25 278.177 342.925C266.948 329.6 247.043 327.9 233.718 339.129C220.392 350.358 218.693 370.263 229.922 383.589C241.151 396.914 261.056 398.613 274.381 387.385Z"
                    fill="#FFBA5D" stroke="#240C64" stroke-width="2" stroke-miterlimit="10" stroke-linecap="round"
                    stroke-linejoin="round" />
                <mask id="mask0_1239_16047" style="mask-type:alpha" maskUnits="userSpaceOnUse" x="221" y="330" width="66"
                    height="66">
                    <path
                        d="M274.381 387.385C287.706 376.156 289.406 356.25 278.177 342.925C266.948 329.6 247.043 327.9 233.718 339.129C220.392 350.358 218.693 370.263 229.922 383.589C241.151 396.914 261.056 398.613 274.381 387.385Z"
                        fill="#FFBA5D" stroke="#240C64" stroke-width="2" stroke-miterlimit="10" stroke-linecap="round"
                        stroke-linejoin="round" />
                </mask>
                <g mask="url(#mask0_1239_16047)">
                    <path
                        d="M277.653 317.773C248.626 318.457 246.438 327.737 244.965 335.196C243.503 342.655 238.327 343.96 232.014 337.363C226.08 331.166 208.742 337.205 218.463 362.529"
                        stroke="#240C64" stroke-width="2" stroke-linecap="round" stroke-linejoin="round" />
                    <path
                        d="M284.155 320.422C254.55 320.422 252.688 331.058 251.362 339.728C249.815 349.88 243.124 351.311 235.507 344.693C228.711 338.791 210.983 343.789 218.821 368.376"
                        stroke="#240C64" stroke-width="2" stroke-linecap="round" stroke-linejoin="round" />
                    <path
                        d="M290.647 323.075C260.473 322.391 258.968 334.395 257.758 344.264C256.18 357.11 247.953 358.635 239.01 352.028C231.383 346.4 213.234 350.366 219.189 374.227"
                        stroke="#240C64" stroke-width="2" stroke-linecap="round" stroke-linejoin="round" />
                    <path
                        d="M297.138 325.721C266.396 324.363 265.281 337.735 264.144 348.793C262.545 364.343 252.792 365.931 242.493 359.356C234.055 353.969 215.464 356.946 219.536 380.071"
                        stroke="#240C64" stroke-width="2" stroke-linecap="round" stroke-linejoin="round" />
                    <path
                        d="M303.639 328.37C272.319 326.329 271.614 341.069 270.541 353.326C268.952 371.58 257.663 373.21 245.985 366.687C236.748 361.532 217.705 363.531 219.883 385.919"
                        stroke="#240C64" stroke-width="2" stroke-linecap="round" stroke-linejoin="round" />
                    <path
                        d="M310.132 331.023C278.243 328.298 277.938 344.416 276.938 357.862C275.371 378.819 262.546 380.471 249.479 374.022C239.453 369.077 219.947 370.108 220.242 391.77"
                        stroke="#240C64" stroke-width="2" stroke-linecap="round" stroke-linejoin="round" />
                    <path
                        d="M316.622 333.671C284.155 330.272 284.27 347.758 283.324 362.393C281.798 386.054 267.427 387.706 252.961 381.351C242.156 376.606 222.177 376.69 220.588 397.616"
                        stroke="#240C64" stroke-width="2" stroke-linecap="round" stroke-linejoin="round" />
                    <path
                        d="M323.124 336.323C290.088 332.24 290.614 351.094 289.72 366.928C288.226 393.293 272.319 394.924 256.464 388.685C244.87 384.129 224.428 383.277 220.945 403.466"
                        stroke="#240C64" stroke-width="2" stroke-linecap="round" stroke-linejoin="round" />
                    <path
                        d="M329.617 338.971C296.013 334.216 296.981 354.437 296.118 371.47C294.719 400.539 277.212 402.138 259.958 396.026C247.586 391.638 226.67 389.86 221.305 409.324"
                        stroke="#240C64" stroke-width="2" stroke-linecap="round" stroke-linejoin="round" />
                    <path
                        d="M336.107 341.613C301.924 336.173 303.303 357.762 302.503 375.995C301.114 407.768 282.093 409.325 263.439 403.349C250.278 399.141 228.899 396.437 221.65 415.164"
                        stroke="#240C64" stroke-width="2" stroke-linecap="round" stroke-linejoin="round" />
                </g>
                <path
                    d="M479.045 868.017L529.913 849.142C529.913 828.827 518.603 823.829 512.27 826.123C502.506 829.658 506.525 843.493 499.729 847.049C491.744 851.215 479.045 836.833 479.045 868.027V868.017Z"
                    fill="#0F6CBD" stroke="#240C64" stroke-width="2" stroke-linecap="round" stroke-linejoin="round" />
                <path
                    d="M529.903 849.142C529.903 828.827 518.593 823.829 512.26 826.123C502.497 829.658 506.516 843.493 499.719 847.049C491.734 851.215 479.035 836.833 479.035 868.027"
                    stroke="#240C64" stroke-width="2" stroke-linecap="round" stroke-linejoin="round" />
                <path
                    d="M523.401 851.555C524.443 839.13 519.214 836.184 515.995 836.563C514.869 836.699 513.785 837.141 512.796 837.878C508.598 840.971 508.535 847.441 505.347 850.787C504.737 851.428 504.064 851.986 503.222 852.344C497.394 854.827 490.692 849.009 487.809 857.352C485.989 859.351 486.82 862.696 486.82 865.127"
                    stroke="#240C64" stroke-width="2" stroke-linecap="round" stroke-linejoin="round" />
                <path
                    d="M516.9 853.973C518.994 843.957 514.481 844.283 513.839 847.124C513.197 849.964 512.745 855.509 508.315 857.16C502.413 859.349 498.794 857.087 495.701 858.202C492.608 859.317 494.586 862.252 494.586 862.252"
                    stroke="#240C64" stroke-width="2" stroke-linecap="round" stroke-linejoin="round" />
            </g>
            <defs>
                <linearGradient id="paint0_linear_1239_16047" x1="543.929" y1="165.969" x2="543.929" y2="876"
                    gradientUnits="userSpaceOnUse">
                    <stop stop-color="#0F6CBD" />
                    <stop offset="0.494792" stop-color="#F59897" />
                    <stop offset="1" stop-color="#FFBA5D" />
                </linearGradient>
                <linearGradient id="paint1_linear_1239_16047" x1="743.822" y1="253.906" x2="743.822" y2="559.494"
                    gradientUnits="userSpaceOnUse">
                    <stop stop-color="white" />
                    <stop offset="1" stop-color="#FFBA5D" />
                </linearGradient>
                <linearGradient id="paint2_linear_1239_16047" x1="580.75" y1="210.328" x2="580.75" y2="500.135"
                    gradientUnits="userSpaceOnUse">
                    <stop stop-color="white" />
                    <stop offset="1" stop-color="#FFBA5D" />
                </linearGradient>
                <linearGradient id="paint3_linear_1239_16047" x1="646.505" y1="194.547" x2="646.505" y2="559.494"
                    gradientUnits="userSpaceOnUse">
                    <stop stop-color="#0F6CBD" />
                    <stop offset="1" stop-color="#F59897" />
                </linearGradient>
                <linearGradient id="paint4_linear_1239_16047" x1="646.506" y1="204.125" x2="646.506" y2="350.028"
                    gradientUnits="userSpaceOnUse">
                    <stop stop-color="#8D5BE9" />
                    <stop offset="1" stop-color="#70CFFF" />
                </linearGradient>
                <linearGradient id="paint5_linear_1239_16047" x1="633.354" y1="294.109" x2="633.354" y2="599.698"
                    gradientUnits="userSpaceOnUse">
                    <stop stop-color="white" />
                    <stop offset="1" stop-color="#FFBA5D" />
                </linearGradient>
                <linearGradient id="paint6_linear_1239_16047" x1="470.281" y1="250.539" x2="470.281" y2="540.346"
                    gradientUnits="userSpaceOnUse">
                    <stop stop-color="white" />
                    <stop offset="1" stop-color="#FFBA5D" />
                </linearGradient>
                <linearGradient id="paint7_linear_1239_16047" x1="536.036" y1="234.758" x2="536.036" y2="599.694"
                    gradientUnits="userSpaceOnUse">
                    <stop stop-color="#0F6CBD" />
                    <stop offset="1" stop-color="#F59897" />
                </linearGradient>
                <linearGradient id="paint8_linear_1239_16047" x1="536.037" y1="244.336" x2="536.037" y2="368.187"
                    gradientUnits="userSpaceOnUse">
                    <stop stop-color="#8D5BE9" />
                    <stop offset="1" stop-color="#70CFFF" />
                </linearGradient>
                <linearGradient id="paint9_linear_1239_16047" x1="522.885" y1="334.32" x2="522.885" y2="639.908"
                    gradientUnits="userSpaceOnUse">
                    <stop stop-color="white" />
                    <stop offset="1" stop-color="#FFBA5D" />
                </linearGradient>
                <linearGradient id="paint10_linear_1239_16047" x1="359.812" y1="290.742" x2="359.812" y2="580.549"
                    gradientUnits="userSpaceOnUse">
                    <stop stop-color="white" />
                    <stop offset="1" stop-color="#FFBA5D" />
                </linearGradient>
                <linearGradient id="paint11_linear_1239_16047" x1="425.568" y1="274.961" x2="425.568" y2="639.908"
                    gradientUnits="userSpaceOnUse">
                    <stop stop-color="#0F6CBD" />
                    <stop offset="1" stop-color="#F59897" />
                </linearGradient>
                <linearGradient id="paint12_linear_1239_16047" x1="425.568" y1="284.531" x2="425.568" y2="369.529"
                    gradientUnits="userSpaceOnUse">
                    <stop stop-color="#8D5BE9" />
                    <stop offset="1" stop-color="#70CFFF" />
                </linearGradient>
                <linearGradient id="paint13_linear_1239_16047" x1="283.82" y1="168" x2="283.82" y2="873"
                    gradientUnits="userSpaceOnUse">
                    <stop stop-color="#E96AE9" />
                    <stop offset="0.494792" stop-color="#F59897" />
                    <stop offset="1" stop-color="#FFBA5D" />
                </linearGradient>
            </defs>
        </svg>