<svg
        class="w-full"
        height="40"
        viewBox="0 0 214 40"
        fill="none"
        xmlns="http://www.w3.org/2000/svg">
        <path
          d="M33.8127 19.7112C33.8127 27.5722 27.5562 33.7489 19.5652 33.7109C12.025 33.6754 5.64944 27.3896 5.73553 19.3814C5.81402 11.8705 12.1085 5.62783 19.7754 5.60753C27.8119 5.58724 33.9596 12.256 33.8152 19.7087L33.8127 19.7112ZM29.0703 19.904C29.0703 19.5446 28.8716 19.2075 28.5974 19.0448C28.4188 18.9387 28.208 18.9067 27.9993 18.9908C27.4042 19.2318 27.0067 18.9756 26.5586 18.7194C26.1383 18.4784 25.7179 18.2323 25.285 18.0142C25.2257 17.9843 25.1714 17.9541 25.1223 17.9219C24.9177 17.7876 24.8044 17.6191 24.8064 17.2938C24.8064 17.0177 24.6567 16.7617 24.4479 16.6015C24.2309 16.4349 23.9502 16.3719 23.7076 16.4973C23.282 16.7172 22.9779 16.6129 22.6774 16.4487C22.6373 16.4268 22.5973 16.4039 22.557 16.3805C22.5023 16.3487 22.4472 16.3161 22.3909 16.2842C21.9504 16.0356 21.5199 15.7667 21.0718 15.5359C20.93 15.4624 20.8206 15.3846 20.7406 15.2824C20.6577 15.1765 20.6063 15.0444 20.5831 14.8637C20.5394 14.5152 20.314 14.2225 20.0391 14.1014C19.8678 14.0259 19.6772 14.017 19.4994 14.1027C18.917 14.3843 18.5474 14.0875 18.122 13.8516C17.6637 13.5954 17.2181 13.3164 16.7522 13.0703C16.7082 13.0469 16.6669 13.0235 16.6285 12.9993C16.4174 12.866 16.2951 12.7078 16.3015 12.388C16.3079 12.0291 16.0977 11.7751 15.784 11.6542C15.723 11.6307 15.658 11.6123 15.59 11.5991C15.157 11.5179 14.7798 11.6422 14.5646 12.0607C14.3758 12.4291 14.3405 12.878 14.6644 13.1032C14.6677 13.1054 14.6709 13.1077 14.6742 13.1099L14.6771 13.1119C14.6792 13.1133 14.6814 13.1146 14.6836 13.116C14.7223 13.1408 14.7577 13.1663 14.7901 13.1924C15.201 13.5228 15.1292 13.947 15.1292 14.3843C15.1317 14.9119 15.1216 15.437 15.1343 15.9646C15.1419 16.2791 15.1013 16.515 14.7924 16.7281C14.3519 17.0325 14.2708 17.7681 14.6886 18.0497C15.1874 18.3871 15.1267 18.8132 15.1292 19.2673C15.1317 19.8355 15.1191 20.4012 15.1343 20.9694C15.1419 21.2509 15.0735 21.4437 14.8254 21.6289C14.3578 21.9789 14.2571 22.6864 14.6892 22.9871C14.6923 22.9893 14.6955 22.9914 14.6988 22.9936C14.703 22.9964 14.7071 22.9992 14.7112 23.0021C14.7159 23.0052 14.7204 23.0084 14.725 23.0116C15.1781 23.3303 15.1317 23.717 15.1317 24.1452C15.1317 24.612 15.1267 25.0762 15.1317 25.5429C15.1368 25.9462 15.1672 26.3115 14.7266 26.588C14.3696 26.8138 14.3671 27.2602 14.5291 27.6407C14.5721 27.7419 14.6269 27.8297 14.6916 27.9036C14.8783 28.1169 15.1481 28.215 15.4583 28.1886C15.8711 28.1531 16.2863 27.9223 16.2686 27.5088C16.2455 26.9279 16.587 26.7376 16.9605 26.5296C16.9964 26.5096 17.0325 26.4895 17.0687 26.4688C17.5422 26.1974 18.0131 25.9234 18.4739 25.6292C18.7145 25.477 18.8867 25.4389 19.1728 25.6013C19.8792 26.0097 20.5983 25.5911 20.6109 24.7718C20.616 24.4725 20.7147 24.3431 20.9477 24.2163C21.5528 23.889 22.1529 23.5542 22.7403 23.1991C23.0214 23.0291 23.2341 22.9758 23.5607 23.1585C24.0874 23.4527 24.7963 23.156 24.8343 22.5776C24.8744 21.9754 25.2304 21.7821 25.6287 21.5659C25.6583 21.5499 25.6881 21.5337 25.7179 21.5173C26.1433 21.2839 26.5687 21.048 26.9814 20.7969C27.2371 20.6421 27.4372 20.599 27.7461 20.7461C28.3917 21.0531 29.0652 20.5889 29.0678 19.9015L29.0703 19.904Z"
          fill="#6B6B6B" />
        <path
          d="M193.349 31.2377C190.657 31.2377 187.966 31.2503 185.274 31.2301C184.446 31.2224 183.626 31.0855 182.831 30.8217C180.474 30.0378 179.195 28.3662 178.848 25.9463C178.674 24.7337 178.742 23.5187 178.993 22.324C179.534 19.7391 181.233 18.3465 183.722 17.7935C184.93 17.5246 186.156 17.4029 187.394 17.4029C189.984 17.4054 192.574 17.3927 195.167 17.4156C195.618 17.4181 195.749 17.3065 195.744 16.8448C195.719 14.5999 194.671 13.5345 192.24 13.2834C190.908 13.1464 189.574 13.1718 188.239 13.1692C185.75 13.1667 183.259 13.1591 180.77 13.1769C180.378 13.1794 180.251 13.0754 180.259 12.6721C180.284 11.4367 180.279 10.1989 180.259 8.96351C180.253 8.59063 180.327 8.43082 180.752 8.43335C184.943 8.44857 189.133 8.42575 193.321 8.45365C194.493 8.46126 195.656 8.64643 196.782 9.01171C199.833 10.001 201.631 12.2789 201.912 15.4776C202.051 17.0554 202.003 18.6357 202.008 20.2135C202.016 23.6988 202.003 27.1841 202.021 30.6695C202.023 31.1413 201.91 31.2859 201.421 31.2833C198.729 31.258 196.038 31.2706 193.344 31.2706C193.344 31.2605 193.344 31.2504 193.344 31.2402L193.349 31.2377ZM191.171 26.6464C191.618 26.6464 192.043 26.6449 192.452 26.6434L192.454 26.6434C192.515 26.6432 192.576 26.643 192.636 26.6428C193.438 26.64 194.181 26.6384 194.916 26.6501C195.03 26.6519 195.143 26.654 195.256 26.6565C195.259 26.6566 195.262 26.6567 195.265 26.6567C195.692 26.6642 195.805 26.5137 195.797 26.101C195.775 24.9062 195.772 23.7115 195.797 22.5193C195.807 22.0804 195.696 21.9257 195.228 21.9308C193.005 21.9561 190.779 21.9358 188.556 21.946C188.234 21.9472 187.911 21.9609 187.59 21.9958C187.584 21.9964 187.578 21.997 187.572 21.9976C187.237 22.0349 186.904 22.0957 186.578 22.1895C185.406 22.5269 184.912 23.3893 185.036 24.8555C185.125 25.9057 185.677 26.3952 186.892 26.55C188.404 26.7402 189.921 26.5906 191.174 26.6464H191.171Z"
          fill="#6B6B6B" />
        <path
          d="M59.2656 31.2681C56.7362 31.2681 54.2067 31.2529 51.6773 31.2808C51.1633 31.2859 51.0367 31.1311 51.0519 30.6365C51.0873 29.4417 51.0924 28.2444 51.0519 27.0522C51.0342 26.5272 51.2139 26.4282 51.7001 26.4308C55.7867 26.4511 59.8759 26.4409 63.9625 26.4434C64.5524 26.4434 65.1297 26.3952 65.6893 26.1872C66.5198 25.8803 66.9376 25.2943 66.9553 24.3888C66.9781 23.3361 66.6033 22.6842 65.7551 22.3544C65.1449 22.1185 64.5043 22.0525 63.8511 22.0424C61.3039 21.9993 58.7517 22.1616 56.207 21.9282C55.4601 21.8597 54.7283 21.7202 54.0093 21.5122C52.3027 21.0227 51.3279 19.8507 50.9557 18.1537C50.5911 16.4897 50.5658 14.813 50.9557 13.154C51.5735 10.5058 53.399 9.16899 55.9563 8.68195C56.8299 8.51453 57.7161 8.44097 58.6099 8.44097C62.7572 8.44604 66.9072 8.45366 71.0546 8.43083C71.561 8.42829 71.7053 8.55766 71.6876 9.06498C71.6496 10.2597 71.647 11.457 71.6876 12.6492C71.7053 13.1591 71.5204 13.2403 71.0698 13.2377C67.5883 13.22 64.1093 13.2251 60.6279 13.2301C59.9012 13.2301 59.1745 13.2707 58.4554 13.4102C57.4325 13.6081 56.9261 14.1864 56.8957 15.1935C56.8653 16.2081 57.3768 16.9159 58.3516 17.1518C58.782 17.2558 59.2251 17.3014 59.6733 17.3014C61.7774 17.2989 63.8815 17.2862 65.9855 17.3268C67.1224 17.3496 68.2339 17.5728 69.2847 18.037C70.8723 18.7346 71.9787 19.8888 72.4775 21.5579C73.032 23.4122 72.9941 25.2791 72.3509 27.103C71.4014 29.7893 69.2796 31.2478 66.3679 31.2605C64.0005 31.2706 61.633 31.2605 59.2656 31.2605V31.2681Z"
          fill="#959191" />
        <path
          d="M133.459 31.2682C130.95 31.2682 128.441 31.2555 125.929 31.2808C125.461 31.2859 125.357 31.1489 125.369 30.705C125.4 29.4697 125.402 28.2318 125.369 26.999C125.357 26.5373 125.488 26.4308 125.939 26.4333C130.048 26.4511 134.155 26.4435 138.265 26.446C138.814 26.446 139.356 26.408 139.88 26.2279C140.825 25.9057 141.275 25.2741 141.275 24.2645C141.275 23.26 140.814 22.6005 139.883 22.2936C139.3 22.1033 138.7 22.0551 138.088 22.045C135.561 22.0018 133.029 22.1642 130.504 21.9308C129.798 21.8649 129.104 21.7355 128.42 21.5503C126.767 21.1013 125.729 20.041 125.319 18.3846C124.871 16.5658 124.848 14.7319 125.326 12.9156C125.995 10.3765 127.828 9.15634 130.271 8.68453C131.145 8.51711 132.031 8.44355 132.925 8.44608C137.075 8.45116 141.222 8.45623 145.372 8.43847C145.833 8.43847 146.002 8.53486 145.987 9.03204C145.949 10.2471 145.952 11.4647 145.987 12.6772C146 13.1465 145.851 13.2479 145.405 13.2454C141.923 13.2276 138.442 13.2327 134.961 13.2378C134.214 13.2378 133.464 13.2682 132.727 13.423C131.732 13.631 131.249 14.1713 131.213 15.1098C131.17 16.2209 131.621 16.8829 132.623 17.1518C133.054 17.266 133.494 17.3116 133.945 17.3091C135.826 17.3015 137.71 17.304 139.592 17.3091C140.731 17.3091 141.853 17.4384 142.936 17.8037C145.253 18.585 146.638 20.1704 147.018 22.6081C147.223 23.9246 147.185 25.236 146.846 26.5247C146.058 29.5077 143.784 31.258 140.683 31.2732C138.275 31.2859 135.867 31.2732 133.457 31.2732L133.459 31.2682Z"
          fill="#959191" />
        <path
          d="M89.2262 22.2682C87.1424 22.2682 85.0586 22.2783 82.9722 22.2605C82.5722 22.258 82.4456 22.3595 82.4937 22.7679C82.5671 23.3741 82.6709 23.9677 82.8861 24.5384C83.3292 25.7205 84.3319 26.0985 85.451 26.2862C86.1094 26.3953 86.7753 26.446 87.4437 26.446C90.0947 26.4409 92.7457 26.4587 95.3967 26.4308C95.9183 26.4257 96.0322 26.583 96.017 27.0751C95.9816 28.3104 95.9942 29.5458 96.0119 30.7811C96.017 31.1261 95.9613 31.2859 95.5562 31.2783C92.1988 31.2174 88.8363 31.4127 85.4839 31.159C82.4329 30.9282 79.7085 29.9339 77.812 27.3541C76.3815 25.4085 75.8903 23.1509 75.8042 20.7868C75.7232 18.6078 75.8599 16.4517 76.6904 14.4021C78.083 10.9725 80.777 9.26792 84.3015 8.66674C85.9878 8.37756 87.6893 8.45113 89.3857 8.44859C91.4088 8.44352 93.4318 8.45874 95.4574 8.43845C95.8575 8.43591 96.0271 8.50186 96.017 8.95592C95.9841 10.1913 95.9765 11.4291 96.0195 12.6619C96.0373 13.1845 95.8347 13.2454 95.3941 13.2403C92.9255 13.2225 90.4568 13.2301 87.9881 13.2327C86.9753 13.2327 85.9676 13.2834 84.9801 13.5421C83.4027 13.9531 82.2506 15.678 82.4785 17.2406C82.5215 17.5297 82.6962 17.479 82.8684 17.4815C83.6381 17.4866 84.4053 17.4815 85.1751 17.4815C88.5958 17.4815 92.0139 17.4891 95.4346 17.4714C95.8727 17.4714 96.0297 17.5576 96.017 18.032C95.979 19.2673 95.9866 20.5027 96.0145 21.738C96.0246 22.1642 95.9005 22.2808 95.4752 22.2783C93.3913 22.2555 91.3075 22.2682 89.2212 22.2682H89.2262Z"
          fill="#959191" />
        <path
          d="M99.8531 19.8406C99.8531 16.2741 99.8709 12.7101 99.838 9.14363C99.8329 8.53483 100.013 8.4283 100.577 8.43083C104.302 8.4562 108.024 8.43083 111.748 8.45113C113.187 8.45874 114.61 8.63884 115.997 9.04977C118.775 9.87418 120.117 11.8604 120.522 14.6177C120.631 15.3609 120.666 16.1092 120.666 16.8575C120.666 21.4564 120.658 26.0553 120.679 30.6543C120.679 31.1667 120.539 31.291 120.041 31.2808C118.423 31.2478 116.802 31.2478 115.184 31.2808C114.708 31.291 114.62 31.1311 114.622 30.6948C114.637 26.3395 114.635 21.9841 114.625 17.6287C114.625 17.0452 114.594 16.4517 114.498 15.8758C114.222 14.2549 113.663 13.707 112.032 13.5548C110.095 13.3747 108.15 13.5066 106.208 13.4686C105.773 13.461 105.849 13.7451 105.849 13.9987C105.849 16.5912 105.849 19.1861 105.849 21.7786C105.849 24.7363 105.836 27.694 105.862 30.6517C105.867 31.1641 105.72 31.2884 105.223 31.2783C103.666 31.2453 102.107 31.2428 100.549 31.2783C100.015 31.291 99.8379 31.1743 99.843 30.5959C99.8734 27.0091 99.8582 23.4249 99.8582 19.8381L99.8531 19.8406Z"
          fill="#959191" />
        <path
          d="M171.179 22.1515C171.179 24.9874 171.164 27.8259 171.192 30.6619C171.197 31.1844 171.04 31.2884 170.551 31.2808C168.873 31.2504 167.191 31.2478 165.513 31.2808C165.037 31.2909 164.953 31.1362 164.953 30.6974C164.968 25.0229 164.953 19.351 164.976 13.6766C164.976 13.1388 164.852 12.9892 164.312 13.012C163.241 13.0576 162.168 13.012 161.094 13.0323C160.75 13.0374 160.59 12.9892 160.598 12.5808C160.626 11.3454 160.621 10.1101 160.598 8.87221C160.593 8.51961 160.707 8.41561 161.046 8.4359C161.469 8.46381 161.897 8.45619 162.32 8.43844C163.183 8.40293 164.049 8.53229 164.908 8.36995C165.021 7.52525 164.94 6.67802 164.953 5.83078C164.963 5.18141 164.996 4.5371 165.1 3.89533C165.444 1.76964 166.414 0.782888 168.538 0.39732C169.318 0.255269 170.103 0.191851 170.891 0.181705C172.731 0.158875 174.575 0.184242 176.415 0.166486C176.788 0.161412 176.899 0.257804 176.891 0.638299C176.866 1.81276 176.869 2.98975 176.891 4.16421C176.899 4.52695 176.815 4.6614 176.426 4.64618C175.537 4.61574 174.646 4.63603 173.754 4.63603C173.369 4.63603 172.99 4.66139 172.612 4.76286C171.688 5.00638 171.273 5.4579 171.197 6.41167C171.156 6.93422 171.205 7.46691 171.164 7.98945C171.134 8.38263 171.283 8.4562 171.643 8.45112C173.22 8.43337 174.8 8.45366 176.377 8.4359C176.762 8.43083 176.902 8.51707 176.891 8.93308C176.864 10.1278 176.858 11.3251 176.891 12.5199C176.904 12.9739 176.737 13.0424 176.337 13.0374C174.78 13.0145 173.22 13.0424 171.663 13.0196C171.265 13.0145 171.162 13.1261 171.162 13.5218C171.179 16.3984 171.172 19.2749 171.172 22.154L171.179 22.1515Z"
          fill="#959191" />
        <path
          d="M213.554 19.9091C213.554 23.4959 213.547 27.0827 213.564 30.6695C213.567 31.1438 213.448 31.2884 212.962 31.2808C211.243 31.2503 209.521 31.2554 207.799 31.2808C207.343 31.2859 207.169 31.1895 207.171 30.6872C207.186 23.473 207.186 16.2589 207.171 9.04468C207.171 8.56525 207.303 8.42574 207.784 8.43335C209.503 8.46125 211.225 8.46632 212.947 8.43335C213.481 8.4232 213.567 8.61092 213.564 9.09034C213.547 12.6974 213.554 16.3045 213.554 19.9116V19.9091Z"
          fill="#6B6B6B" />
        <path
          d="M157.716 19.876C157.716 23.4831 157.709 27.0902 157.727 30.6973C157.727 31.1361 157.64 31.2883 157.167 31.2782C155.407 31.2478 153.645 31.2554 151.883 31.2731C151.498 31.2782 151.369 31.1894 151.369 30.7785C151.381 23.5034 151.381 16.2258 151.369 8.95077C151.369 8.57282 151.44 8.42569 151.86 8.43076C153.64 8.45613 155.422 8.45613 157.205 8.43076C157.658 8.42315 157.724 8.59311 157.724 8.98882C157.711 12.6162 157.716 16.2436 157.716 19.871V19.876Z"
          fill="#959191" />
        <path
          d="M0.00390009 19.9751C0.00390009 9.80062 7.41248 1.36379 17.3328 0.0650388C18.3481 -0.066866 18.3532 -0.0668665 18.3456 0.968079C18.3405 1.59209 18.5355 2.36322 18.2418 2.80206C17.9633 3.21807 17.1252 3.0608 16.5378 3.17241C9.92421 4.44326 4.44247 9.98326 3.29548 16.6089C2.46246 21.4184 3.35118 25.86 6.22245 29.8552C6.40982 30.1165 6.4402 30.2738 6.18447 30.5046C5.66035 30.979 5.14889 31.4711 4.66022 31.986C4.41208 32.2447 4.30068 32.227 4.08293 31.9403C2.11304 29.3479 0.841985 26.4511 0.277353 23.2448C0.0773261 22.1058 -0.0214197 20.9567 0.00390009 19.9776V19.9751Z"
          fill="#6B6B6B" />
        <path
          d="M39.764 19.3713C39.7488 24.1732 38.4423 28.0948 35.8951 31.6182C35.6116 32.0088 35.4596 32.0114 35.1482 31.674C34.6393 31.1261 33.8468 30.705 33.6189 30.0683C33.3859 29.4164 34.219 28.8583 34.5608 28.2496C40.0678 18.4505 34.8975 5.84603 23.5365 3.24598C22.9466 3.11154 22.344 3.02022 21.7413 2.96442C21.3945 2.93398 21.24 2.8528 21.2552 2.46977C21.2856 1.78235 21.2805 1.09238 21.2552 0.40242C21.2425 0.0396815 21.359 -0.0237375 21.7084 0.00670206C25.909 0.39227 29.6158 1.95991 32.8086 4.69947C36.6016 7.95397 38.8398 12.0887 39.5817 17.0326C39.721 17.9534 39.7969 18.8843 39.7665 19.3688L39.764 19.3713Z"
          fill="#6B6B6B" />
        <path
          d="M19.83 39.667C14.8699 39.6188 10.487 38.0258 6.70929 34.7789C6.3219 34.4466 6.29911 34.236 6.69663 33.9063C7.1296 33.5461 7.53725 33.1427 7.90945 32.7166C8.21836 32.364 8.41838 32.3716 8.77792 32.6861C11.1757 34.7941 13.9609 36.141 17.1107 36.6103C22.3899 37.3967 27.0816 36.0345 31.1151 32.5086C31.4518 32.2143 31.6392 32.1534 31.9582 32.5213C32.3659 32.9956 32.8343 33.4192 33.2951 33.8428C33.5306 34.061 33.5964 34.2081 33.3154 34.4618C30.3378 37.1506 26.8765 38.8223 22.9089 39.431C21.8885 39.5883 20.8631 39.6822 19.825 39.6644L19.83 39.667Z"
          fill="#6B6B6B" />
        <path
          d="M154.547 0.278073C156.334 0.278073 157.744 1.67068 157.757 3.4514C157.77 5.20421 156.324 6.66023 154.567 6.66531C152.799 6.66784 151.366 5.23972 151.364 3.47169C151.361 1.68336 152.759 0.278073 154.547 0.278073Z"
          fill="#959191" />
        <path
          d="M210.343 6.61971C208.568 6.60956 207.135 5.16115 207.16 3.40833C207.188 1.62762 208.601 0.252764 210.399 0.257837C212.176 0.262911 213.584 1.68596 213.571 3.4616C213.559 5.22964 212.128 6.62986 210.343 6.61971Z"
          fill="#6B6B6B" />
        <path
          d="M27.1978 19.8584C27.2611 20.1197 27.1168 20.2364 26.9243 20.3429C26.2686 20.7031 25.6508 21.2865 24.9621 21.388C24.2202 21.4945 23.3897 21.7659 22.6301 21.3702C22.0402 21.0608 21.4654 20.7183 20.8906 20.3784C20.3868 20.0791 20.3868 19.6783 20.8856 19.379C21.354 19.0974 21.8249 18.8209 22.3009 18.5546C22.7364 18.3136 23.1466 17.8722 23.7011 18.3288C23.7125 18.3387 23.7287 18.3463 23.747 18.3515C23.7899 18.3638 23.8447 18.3633 23.8784 18.3491C24.4454 18.0787 24.8935 18.2504 25.3194 18.4993C25.4092 18.552 25.498 18.6081 25.5868 18.6641C25.5882 18.665 25.5898 18.6657 25.5912 18.6665C25.7472 18.7649 25.903 18.8632 26.0635 18.9427C26.3698 19.0949 26.661 19.28 26.9649 19.4398C27.1132 19.5162 27.218 19.6078 27.2177 19.7513C27.2178 19.7842 27.2122 19.8197 27.2003 19.8584H27.1978Z"
          fill="#6B6B6B" />
        <path
          d="M18.9106 20.5864C19.174 20.7893 19.5509 20.9871 19.8295 20.802C20.3536 20.4519 20.6929 20.7817 21.0803 20.9948C21.1787 21.0491 21.2772 21.1036 21.3756 21.1583C21.7625 21.3736 22.1482 21.5926 22.5284 21.8198C22.5885 21.8557 22.6485 21.8919 22.7083 21.9282C22.8541 22.0162 22.949 22.1103 22.993 22.206C23.076 22.3863 22.9786 22.5725 22.7007 22.7349C22.3374 22.9481 21.9705 23.1548 21.6034 23.3616C21.2849 23.541 20.9662 23.7204 20.6498 23.9043C20.4422 24.0235 20.2548 24.0742 20.0295 23.9449C19.8269 23.8282 19.5484 23.7952 19.3889 23.917C19.0156 24.205 18.7337 24.0357 18.4361 23.8571C18.4086 23.8407 18.3811 23.8241 18.3533 23.8079C18.123 23.6738 17.8909 23.5427 17.6586 23.4119C17.6399 23.4014 17.6212 23.391 17.6025 23.3804C17.2557 23.1853 16.909 22.9901 16.5683 22.7856C16.4522 22.7159 16.3729 22.6284 16.3302 22.5343C16.2378 22.3307 16.3172 22.0961 16.5683 21.9435C17.257 21.5249 17.9583 21.1267 18.6571 20.7208C18.7255 20.6802 18.7989 20.6472 18.9129 20.5889L18.9106 20.5864Z"
          fill="#6B6B6B" />
        <path
          d="M20.2594 19.1684C20.0445 19.0407 19.8289 18.98 19.6119 18.9795C19.3766 18.979 19.1395 19.0491 18.8998 19.1811C18.8916 19.1857 18.8818 19.1879 18.8708 19.1881C18.8106 19.189 18.7132 19.1302 18.6314 19.0809C18.6127 19.0695 18.5947 19.0587 18.5782 19.0492C17.9123 18.6687 17.2489 18.2882 16.5906 17.8976C16.1981 17.6617 16.1981 17.3801 16.6033 17.1417C16.9811 16.9194 17.3632 16.7043 17.7454 16.4891C18.0829 16.2991 18.4206 16.109 18.7554 15.9139C18.8599 15.8528 18.9586 15.8222 19.0581 15.8226C19.1442 15.8229 19.231 15.8465 19.3226 15.8936C19.4772 15.9731 19.6765 16.0216 19.8212 15.9706C19.8519 15.9598 19.8801 15.9445 19.905 15.9241C20.007 15.8415 20.1036 15.7899 20.1962 15.7621C20.5471 15.6568 20.8402 15.8926 21.1507 16.0712C21.2564 16.1321 21.3624 16.1925 21.4684 16.2528C21.4754 16.2568 21.4824 16.2608 21.4894 16.2648C21.5638 16.3071 21.6382 16.3493 21.7125 16.3915C21.7632 16.4202 21.8136 16.4494 21.8643 16.4782C21.9953 16.5525 22.1263 16.6269 22.2569 16.7017C22.4129 16.7914 22.5684 16.882 22.7231 16.9742C23.0927 17.1924 23.0978 17.5475 22.794 17.7479C22.0394 18.2476 21.2343 18.6712 20.4493 19.1228C20.3994 19.1503 20.3372 19.1539 20.2627 19.171L20.2594 19.171V19.1684Z"
          fill="#6B6B6B" />
        <path
          d="M15.5583 14.9297C15.5583 14.8089 15.5574 14.6878 15.5566 14.5666C15.5549 14.3239 15.5532 14.0809 15.5583 13.8389C15.5731 13.3558 15.9552 13.1195 16.3764 13.3334C16.3864 13.3385 16.3964 13.3438 16.4065 13.3494C16.4333 13.3642 16.46 13.3791 16.4868 13.394C17.1031 13.7367 17.7154 14.0876 18.3235 14.4487C18.3656 14.4737 18.4077 14.4987 18.4498 14.5238C18.865 14.7699 18.8701 15.333 18.4574 15.5765C17.7991 15.9646 17.1331 16.3401 16.4596 16.7053C16.31 16.787 16.136 16.7874 15.9811 16.7309C15.756 16.6489 15.5713 16.447 15.5608 16.2005C15.5466 15.904 15.5498 15.6075 15.553 15.311C15.5544 15.1839 15.5557 15.0568 15.5557 14.9297H15.5583Z"
          fill="#6B6B6B" />
        <path
          d="M15.5582 19.8584C15.5582 19.4754 15.543 19.0923 15.5632 18.7093C15.5673 18.6257 15.5867 18.5498 15.6181 18.4835C15.7439 18.2179 16.0624 18.1065 16.3583 18.273C17.0419 18.656 17.723 19.0467 18.3915 19.4576C18.6432 19.6112 18.7335 19.8359 18.6642 20.041C18.6248 20.1578 18.5338 20.2682 18.3915 20.3556C17.723 20.7665 17.047 21.1648 16.3634 21.5478C15.9557 21.7761 15.5759 21.5402 15.5632 21.0658C15.5506 20.6625 15.5632 20.2592 15.5632 19.8558L15.5582 19.8584Z"
          fill="#6B6B6B" />
        <path
          d="M16.1099 23.0621C16.1438 23.0769 16.1745 23.0897 16.2026 23.1015C16.2643 23.1273 16.3138 23.148 16.3584 23.1728C16.3634 23.1756 16.3684 23.1784 16.3733 23.1813C16.4981 23.2522 16.6232 23.3228 16.7482 23.3935C16.7763 23.4094 16.8043 23.4253 16.8324 23.4412L16.8347 23.4425C16.8891 23.4733 16.9435 23.5041 16.9978 23.5349C17.4317 23.7804 17.8655 24.0261 18.2966 24.2771C18.3561 24.3117 18.4155 24.3464 18.4748 24.3812C18.8622 24.6069 18.8571 24.891 18.4925 25.1168C17.7734 25.5658 17.0417 25.9919 16.3049 26.4079C16.1398 26.5013 15.9687 26.5049 15.8322 26.4409C15.6756 26.3675 15.5645 26.2051 15.5605 25.9869C15.5529 25.5924 15.5542 25.1986 15.5554 24.8048C15.5567 24.411 15.558 24.0172 15.5504 23.6227C15.5452 23.3253 15.7209 23.2521 15.8922 23.1807C15.9708 23.1479 16.0485 23.1155 16.1074 23.0621H16.1099Z"
          fill="#6B6B6B" />
        <path
          fill-rule="evenodd"
          clip-rule="evenodd"
          d="M192.454 26.6434L192.636 26.6428C192.575 26.643 192.514 26.6432 192.452 26.6434L192.454 26.6434ZM195.256 26.6565C195.143 26.654 195.03 26.6519 194.916 26.6501C195.028 26.6519 195.14 26.6541 195.252 26.6565C195.256 26.6566 195.261 26.6567 195.265 26.6567L195.256 26.6565Z"
          fill="#6B6B6B" />
      </svg>