<svg width="85" height="82" viewBox="0 0 85 82" fill="none" xmlns="http://www.w3.org/2000/svg">
<g filter="url(#filter0_bdi_5542_7812)">
<g clip-path="url(#clip0_5542_7812)">
<rect x="12" y="13" width="48" height="48" rx="12" fill="url(#paint0_linear_5542_7812)" fill-opacity="0.04" shape-rendering="crispEdges"/>
<g style="mix-blend-mode:plus-lighter" opacity="0.5" filter="url(#filter1_f_5542_7812)">
<rect x="22" y="23" width="28" height="28" rx="14" fill="#1275B1"/>
<path d="M32.6186 30.6921C32.6186 31.6267 31.8085 32.3843 30.8093 32.3843C29.81 32.3843 29 31.6267 29 30.6921C29 29.7576 29.81 29 30.8093 29C31.8085 29 32.6186 29.7576 32.6186 30.6921Z" fill="white"/>
<path d="M29.2474 33.6281H32.3402V43H29.2474V33.6281Z" fill="white"/>
<path d="M37.3196 33.6281H34.2268V43H37.3196C37.3196 43 37.3196 40.0496 37.3196 38.2049C37.3196 37.0976 37.6977 35.9855 39.2062 35.9855C40.911 35.9855 40.9008 37.4345 40.8928 38.5571C40.8824 40.0244 40.9072 41.5219 40.9072 43H44V38.0537C43.9738 34.8954 43.1508 33.4401 40.4433 33.4401C38.8354 33.4401 37.8387 34.1701 37.3196 34.8305V33.6281Z" fill="white"/>
</g>
<rect x="22" y="23" width="28" height="28" rx="14" fill="#1275B1"/>
<path d="M32.6186 30.6921C32.6186 31.6267 31.8085 32.3843 30.8093 32.3843C29.81 32.3843 29 31.6267 29 30.6921C29 29.7576 29.81 29 30.8093 29C31.8085 29 32.6186 29.7576 32.6186 30.6921Z" fill="white"/>
<path d="M29.2474 33.6281H32.3402V43H29.2474V33.6281Z" fill="white"/>
<path d="M37.3196 33.6281H34.2268V43H37.3196C37.3196 43 37.3196 40.0496 37.3196 38.2049C37.3196 37.0976 37.6977 35.9855 39.2062 35.9855C40.911 35.9855 40.9008 37.4345 40.8928 38.5571C40.8824 40.0244 40.9072 41.5219 40.9072 43H44V38.0537C43.9738 34.8954 43.1508 33.4401 40.4433 33.4401C38.8354 33.4401 37.8387 34.1701 37.3196 34.8305V33.6281Z" fill="white"/>
<g filter="url(#filter2_f_5542_7812)">
<ellipse cx="36.5" cy="60.5" rx="11.5" ry="6.5" fill="#1A75B0"/>
</g>
</g>
<rect x="12" y="13" width="48" height="48" rx="12" stroke="url(#paint1_linear_5542_7812)" stroke-opacity="0.5" stroke-width="0.8" shape-rendering="crispEdges"/>
</g>
<g style="mix-blend-mode:screen" filter="url(#filter3_f_5542_7812)">
<circle cx="29" cy="30" r="9" fill="white" fill-opacity="0.18"/>
</g>
<defs>
<filter id="filter0_bdi_5542_7812" x="-8.40039" y="-7.3999" width="92.8008" height="88.7998" filterUnits="userSpaceOnUse" color-interpolation-filters="sRGB">
<feFlood flood-opacity="0" result="BackgroundImageFix"/>
<feGaussianBlur in="BackgroundImageFix" stdDeviation="10"/>
<feComposite in2="SourceAlpha" operator="in" result="effect1_backgroundBlur_5542_7812"/>
<feColorMatrix in="SourceAlpha" type="matrix" values="0 0 0 0 0 0 0 0 0 0 0 0 0 0 0 0 0 0 127 0" result="hardAlpha"/>
<feOffset dx="8" dy="4"/>
<feGaussianBlur stdDeviation="8"/>
<feComposite in2="hardAlpha" operator="out"/>
<feColorMatrix type="matrix" values="0 0 0 0 0 0 0 0 0 0 0 0 0 0 0 0 0 0 0.08 0"/>
<feBlend mode="normal" in2="effect1_backgroundBlur_5542_7812" result="effect2_dropShadow_5542_7812"/>
<feBlend mode="normal" in="SourceGraphic" in2="effect2_dropShadow_5542_7812" result="shape"/>
<feColorMatrix in="SourceAlpha" type="matrix" values="0 0 0 0 0 0 0 0 0 0 0 0 0 0 0 0 0 0 127 0" result="hardAlpha"/>
<feOffset/>
<feGaussianBlur stdDeviation="4"/>
<feComposite in2="hardAlpha" operator="arithmetic" k2="-1" k3="1"/>
<feColorMatrix type="matrix" values="0 0 0 0 0.0509804 0 0 0 0 0.538353 0 0 0 0 0.988235 0 0 0 0.32 0"/>
<feBlend mode="normal" in2="shape" result="effect3_innerShadow_5542_7812"/>
</filter>
<filter id="filter1_f_5542_7812" x="8" y="9" width="56" height="56" filterUnits="userSpaceOnUse" color-interpolation-filters="sRGB">
<feFlood flood-opacity="0" result="BackgroundImageFix"/>
<feBlend mode="normal" in="SourceGraphic" in2="BackgroundImageFix" result="shape"/>
<feGaussianBlur stdDeviation="6" result="effect1_foregroundBlur_5542_7812"/>
</filter>
<filter id="filter2_f_5542_7812" x="7" y="36" width="59" height="49" filterUnits="userSpaceOnUse" color-interpolation-filters="sRGB">
<feFlood flood-opacity="0" result="BackgroundImageFix"/>
<feBlend mode="normal" in="SourceGraphic" in2="BackgroundImageFix" result="shape"/>
<feGaussianBlur stdDeviation="9" result="effect1_foregroundBlur_5542_7812"/>
</filter>
<filter id="filter3_f_5542_7812" x="0" y="1" width="58" height="58" filterUnits="userSpaceOnUse" color-interpolation-filters="sRGB">
<feFlood flood-opacity="0" result="BackgroundImageFix"/>
<feBlend mode="normal" in="SourceGraphic" in2="BackgroundImageFix" result="shape"/>
<feGaussianBlur stdDeviation="10" result="effect1_foregroundBlur_5542_7812"/>
</filter>
<linearGradient id="paint0_linear_5542_7812" x1="12" y1="13" x2="60" y2="61" gradientUnits="userSpaceOnUse">
<stop stop-color="#F8FBFF"/>
<stop offset="1" stop-color="white" stop-opacity="0"/>
</linearGradient>
<linearGradient id="paint1_linear_5542_7812" x1="13" y1="12" x2="58.5" y2="61" gradientUnits="userSpaceOnUse">
<stop stop-color="#D8D8D8" stop-opacity="0.05"/>
<stop offset="1" stop-color="white" stop-opacity="0.4"/>
</linearGradient>
<clipPath id="clip0_5542_7812">
<rect x="12" y="13" width="48" height="48" rx="12" fill="white"/>
</clipPath>
</defs>
</svg>
