<svg width="85" height="82" viewBox="0 0 85 82" fill="none" xmlns="http://www.w3.org/2000/svg">
<g filter="url(#filter0_bdi_5542_7822)">
<g clip-path="url(#clip0_5542_7822)">
<rect x="12" y="13" width="48" height="48" rx="12" fill="url(#paint0_linear_5542_7822)" fill-opacity="0.04" shape-rendering="crispEdges"/>
<g style="mix-blend-mode:plus-lighter" opacity="0.5" filter="url(#filter1_f_5542_7822)">
<path d="M36 23C28.265 23 22 29.265 22 37C22 43.195 26.0075 48.4275 31.5725 50.2825C32.2725 50.405 32.535 49.985 32.535 49.6175C32.535 49.285 32.5175 48.1825 32.5175 47.01C29 47.6575 28.09 46.1525 27.81 45.365C27.6525 44.9625 26.97 43.72 26.375 43.3875C25.885 43.125 25.185 42.4775 26.3575 42.46C27.46 42.4425 28.2475 43.475 28.51 43.895C29.77 46.0125 31.7825 45.4175 32.5875 45.05C32.71 44.14 33.0775 43.5275 33.48 43.1775C30.365 42.8275 27.11 41.62 27.11 36.265C27.11 34.7425 27.6525 33.4825 28.545 32.5025C28.405 32.1525 27.915 30.7175 28.685 28.7925C28.685 28.7925 29.8575 28.425 32.535 30.2275C33.655 29.9125 34.845 29.755 36.035 29.755C37.225 29.755 38.415 29.9125 39.535 30.2275C42.2125 28.4075 43.385 28.7925 43.385 28.7925C44.155 30.7175 43.665 32.1525 43.525 32.5025C44.4175 33.4825 44.96 34.725 44.96 36.265C44.96 41.6375 41.6875 42.8275 38.5725 43.1775C39.08 43.615 39.5175 44.455 39.5175 45.7675C39.5175 47.64 39.5 49.145 39.5 49.6175C39.5 49.985 39.7625 50.4225 40.4625 50.2825C43.2418 49.3443 45.6568 47.5581 47.3677 45.1753C49.0786 42.7926 49.9993 39.9334 50 37C50 29.265 43.735 23 36 23Z" fill="white"/>
</g>
<path d="M36 23C28.265 23 22 29.265 22 37C22 43.195 26.0075 48.4275 31.5725 50.2825C32.2725 50.405 32.535 49.985 32.535 49.6175C32.535 49.285 32.5175 48.1825 32.5175 47.01C29 47.6575 28.09 46.1525 27.81 45.365C27.6525 44.9625 26.97 43.72 26.375 43.3875C25.885 43.125 25.185 42.4775 26.3575 42.46C27.46 42.4425 28.2475 43.475 28.51 43.895C29.77 46.0125 31.7825 45.4175 32.5875 45.05C32.71 44.14 33.0775 43.5275 33.48 43.1775C30.365 42.8275 27.11 41.62 27.11 36.265C27.11 34.7425 27.6525 33.4825 28.545 32.5025C28.405 32.1525 27.915 30.7175 28.685 28.7925C28.685 28.7925 29.8575 28.425 32.535 30.2275C33.655 29.9125 34.845 29.755 36.035 29.755C37.225 29.755 38.415 29.9125 39.535 30.2275C42.2125 28.4075 43.385 28.7925 43.385 28.7925C44.155 30.7175 43.665 32.1525 43.525 32.5025C44.4175 33.4825 44.96 34.725 44.96 36.265C44.96 41.6375 41.6875 42.8275 38.5725 43.1775C39.08 43.615 39.5175 44.455 39.5175 45.7675C39.5175 47.64 39.5 49.145 39.5 49.6175C39.5 49.985 39.7625 50.4225 40.4625 50.2825C43.2418 49.3443 45.6568 47.5581 47.3677 45.1753C49.0786 42.7926 49.9993 39.9334 50 37C50 29.265 43.735 23 36 23Z" fill="white"/>
<g filter="url(#filter2_f_5542_7822)">
<ellipse cx="36.5" cy="60.5" rx="11.5" ry="6.5" fill="white"/>
</g>
</g>
<rect x="12" y="13" width="48" height="48" rx="12" stroke="url(#paint1_linear_5542_7822)" stroke-opacity="0.5" stroke-width="0.8" shape-rendering="crispEdges"/>
</g>
<g style="mix-blend-mode:screen" filter="url(#filter3_f_5542_7822)">
<circle cx="29" cy="30" r="9" fill="white" fill-opacity="0.18"/>
</g>
<defs>
<filter id="filter0_bdi_5542_7822" x="-8.40039" y="-7.3999" width="92.8008" height="88.7998" filterUnits="userSpaceOnUse" color-interpolation-filters="sRGB">
<feFlood flood-opacity="0" result="BackgroundImageFix"/>
<feGaussianBlur in="BackgroundImageFix" stdDeviation="10"/>
<feComposite in2="SourceAlpha" operator="in" result="effect1_backgroundBlur_5542_7822"/>
<feColorMatrix in="SourceAlpha" type="matrix" values="0 0 0 0 0 0 0 0 0 0 0 0 0 0 0 0 0 0 127 0" result="hardAlpha"/>
<feOffset dx="8" dy="4"/>
<feGaussianBlur stdDeviation="8"/>
<feComposite in2="hardAlpha" operator="out"/>
<feColorMatrix type="matrix" values="0 0 0 0 0 0 0 0 0 0 0 0 0 0 0 0 0 0 0.08 0"/>
<feBlend mode="normal" in2="effect1_backgroundBlur_5542_7822" result="effect2_dropShadow_5542_7822"/>
<feBlend mode="normal" in="SourceGraphic" in2="effect2_dropShadow_5542_7822" result="shape"/>
<feColorMatrix in="SourceAlpha" type="matrix" values="0 0 0 0 0 0 0 0 0 0 0 0 0 0 0 0 0 0 127 0" result="hardAlpha"/>
<feOffset/>
<feGaussianBlur stdDeviation="4"/>
<feComposite in2="hardAlpha" operator="arithmetic" k2="-1" k3="1"/>
<feColorMatrix type="matrix" values="0 0 0 0 0.826389 0 0 0 0 0.942083 0 0 0 0 0.991667 0 0 0 0.32 0"/>
<feBlend mode="normal" in2="shape" result="effect3_innerShadow_5542_7822"/>
</filter>
<filter id="filter1_f_5542_7822" x="8" y="9" width="56" height="56" filterUnits="userSpaceOnUse" color-interpolation-filters="sRGB">
<feFlood flood-opacity="0" result="BackgroundImageFix"/>
<feBlend mode="normal" in="SourceGraphic" in2="BackgroundImageFix" result="shape"/>
<feGaussianBlur stdDeviation="6" result="effect1_foregroundBlur_5542_7822"/>
</filter>
<filter id="filter2_f_5542_7822" x="7" y="36" width="59" height="49" filterUnits="userSpaceOnUse" color-interpolation-filters="sRGB">
<feFlood flood-opacity="0" result="BackgroundImageFix"/>
<feBlend mode="normal" in="SourceGraphic" in2="BackgroundImageFix" result="shape"/>
<feGaussianBlur stdDeviation="9" result="effect1_foregroundBlur_5542_7822"/>
</filter>
<filter id="filter3_f_5542_7822" x="0" y="1" width="58" height="58" filterUnits="userSpaceOnUse" color-interpolation-filters="sRGB">
<feFlood flood-opacity="0" result="BackgroundImageFix"/>
<feBlend mode="normal" in="SourceGraphic" in2="BackgroundImageFix" result="shape"/>
<feGaussianBlur stdDeviation="10" result="effect1_foregroundBlur_5542_7822"/>
</filter>
<linearGradient id="paint0_linear_5542_7822" x1="12" y1="13" x2="60" y2="61" gradientUnits="userSpaceOnUse">
<stop stop-color="#F8FBFF"/>
<stop offset="1" stop-color="white" stop-opacity="0"/>
</linearGradient>
<linearGradient id="paint1_linear_5542_7822" x1="13" y1="12" x2="58.5" y2="61" gradientUnits="userSpaceOnUse">
<stop stop-color="#D8D8D8" stop-opacity="0.05"/>
<stop offset="1" stop-color="white" stop-opacity="0.4"/>
</linearGradient>
<clipPath id="clip0_5542_7822">
<rect x="12" y="13" width="48" height="48" rx="12" fill="white"/>
</clipPath>
</defs>
</svg>
