<?xml version="1.0" encoding="UTF-8"?>
<svg id="Layer_1" data-name="Layer 1" xmlns="http://www.w3.org/2000/svg" version="1.1" viewBox="0 0 113 32">
  <defs>
    <style>
      .cls-1 {
        fill: #fff;
      }

      .cls-1, .cls-2, .cls-3 {
        stroke-width: 0px;
      }

      .cls-1, .cls-3 {
        fill-rule: evenodd;
      }

      .cls-2 {
        fill: #23547b;
      }

      .cls-3 {
        fill: #002235;
      }
    </style>
  </defs>
  <path class="cls-3" d="M16.3,0C25.1,0,32.3,7.2,32.3,16s-7.2,16-16,16S.3,24.8.3,16,7.4,0,16.3,0"/>
  <path class="cls-2" d="M99.9,19l4.1-.7c.3,1.2,1.2,1.7,2.6,1.7s1.6-.3,1.6-.9,0-.5-.4-.7-.7-.3-1.4-.5c-2.5-.5-4.1-1.1-4.8-1.9-.7-.8-1.1-1.7-1.1-2.7s.5-2.5,1.5-3.4c1-.9,2.5-1.3,4.4-1.3,2.9,0,4.8,1.2,5.7,3.5l-3.6,1.1c-.4-1-1.1-1.4-2.3-1.4s-1.4.3-1.4.9,0,.5.3.6c.2.1.6.3,1.3.4,1.7.4,2.9.7,3.6.9.7.3,1.3.7,1.8,1.4s.7,1.5.7,2.4c0,1.4-.6,2.6-1.8,3.5-1.2.9-2.7,1.3-4.6,1.3-3.5,0-5.6-1.5-6.4-4.4M99.1,8.9v9.4c0,1.8-.5,3.1-1.6,3.9s-2.4,1.2-4.2,1.2-3.2-.4-4.3-1.1c-1.1-.8-1.6-2-1.6-3.7v-9.7h4.4v9.2c0,.7,0,1.2.4,1.5s.8.5,1.4.5,1-.1,1.3-.3c.3-.2.5-.5.6-.8v-10h3.6ZM83.3,12.3v10.8h-4.1v-10.8h-3v-3.4h10.1v3.4s-3,0-3,0ZM71.8,17.7l4,.2c-.2,1.7-.8,3.1-1.9,4s-2.5,1.4-4.1,1.4-3.5-.6-4.7-1.9c-1.2-1.3-1.8-3.1-1.8-5.3s.6-4,1.7-5.4c1.1-1.4,2.7-2.1,4.7-2.1s3.3.5,4.3,1.6c1,1,1.6,2.4,1.7,4.1l-4.1.2c0-1-.2-1.6-.5-2.1-.4-.4-.8-.6-1.3-.6-1.4,0-2.1,1.4-2.1,4.2s.2,2.6.5,3.2c.4.6.9.8,1.5.8,1.2,0,1.8-.8,1.9-2.4h.2ZM54.8,17.2h2.3l-1.1-4.1-1.1,4.1h-.1ZM58.7,23.1l-.8-2.8h-3.9l-.8,2.8h-3.5l4.4-14.3h4.6l4.5,14.3h-4.5ZM42.4,14.9h1.5c1.3,0,1.9-.5,1.9-1.4s-.6-1.4-1.8-1.4h-1.6s0,2.8,0,2.8ZM42.4,18v5.2h-4.4v-14.3h6.1c1.5,0,2.7.2,3.5.5s1.4.9,1.9,1.6c.5.7.7,1.5.7,2.4,0,1.4-.5,2.5-1.4,3.3s-2.2,1.3-3.8,1.3h-2.6Z"/>
  <path class="cls-1" d="M16.2,6l-.6,1.6h.9l.6-1.6h2l-.6,1.6h4.5c2.4,0,5.1,1.2,5,4.6,0,5.3-8.5,8.8-14.5,9.7l-2.6,7.4-2.4-7.1,3.6-10.6h4.9l-2.7,7.7c3.7-.4,7.9-3.6,7.9-6.2s-1.2-2.5-3-2.5H7.1l-1-3.1h7.6l.6-1.5s1.9,0,1.9,0Z"/>
</svg>
