<?xml version="1.0" encoding="UTF-8" standalone="no"?>
<svg
   id="uuid-45909a30-1d40-4650-a52a-4aec66b7d9b6"
   data-name="Layer 1"
   viewBox="0 0 250.78999 250.78999"
   version="1.1"
   sodipodi:docname="wpac_icon2.svg"
   width="250.78999"
   height="250.78999"
   inkscape:version="1.1.2 (0a00cf5339, 2022-02-04)"
   xmlns:inkscape="http://www.inkscape.org/namespaces/inkscape"
   xmlns:sodipodi="http://sodipodi.sourceforge.net/DTD/sodipodi-0.dtd"
   xmlns="http://www.w3.org/2000/svg"
   xmlns:svg="http://www.w3.org/2000/svg">
  <sodipodi:namedview
     id="namedview22"
     pagecolor="#ffffff"
     bordercolor="#666666"
     borderopacity="1.0"
     inkscape:pageshadow="2"
     inkscape:pageopacity="0.0"
     inkscape:pagecheckerboard="0"
     showgrid="false"
     fit-margin-top="0"
     fit-margin-left="0"
     fit-margin-right="0"
     fit-margin-bottom="0"
     inkscape:zoom="3.0561323"
     inkscape:cx="109.61567"
     inkscape:cy="125.64901"
     inkscape:window-width="1920"
     inkscape:window-height="1011"
     inkscape:window-x="0"
     inkscape:window-y="32"
     inkscape:window-maximized="1"
     inkscape:current-layer="uuid-45909a30-1d40-4650-a52a-4aec66b7d9b6" />
  <defs
     id="defs11">
    <mask
       id="uuid-ea4a3f8c-0f27-4602-9043-fd9225546feb"
       data-name="mask"
       x="0"
       y="0"
       width="274.53"
       height="274.53"
       maskUnits="userSpaceOnUse">
      <g
         id="uuid-df9389eb-6ddf-457c-bf9d-eb97d47cff55"
         data-name="mask-ellipse1">
        <path
           d="m 137.27,262.66 c 69.25,0 125.39,-56.14 125.39,-125.39 0,-69.25 -56.14,-125.4 -125.39,-125.4 -69.25,0 -125.4,56.14 -125.4,125.4 0,69.26 56.14,125.39 125.39,125.39 z"
           style="fill:#ffffff"
           id="path2" />
      </g>
    </mask>
    <linearGradient
       id="uuid-6de84f8c-ec6b-485a-973e-ece3ab858dde"
       x1="-50.169998"
       y1="251.86"
       x2="233.24001"
       y2="78.43"
       gradientTransform="matrix(1,0,0,-1,0,274.42)"
       gradientUnits="userSpaceOnUse">
      <stop
         offset="0"
         stop-color="#002235"
         id="stop6" />
      <stop
         offset="1"
         stop-color="#002235"
         id="stop8" />
    </linearGradient>
  </defs>
  <g
     mask="url(#uuid-ea4a3f8c-0f27-4602-9043-fd9225546feb)"
     id="g15"
     transform="translate(-11.87,-11.87)">
    <path
       d="M 274.53,0 H 0 v 274.53 h 274.53 z"
       style="fill:url(#uuid-6de84f8c-ec6b-485a-973e-ece3ab858dde)"
       id="path13" />
  </g>
  <path
     d="m 113.33,64.73 h 12.6 l -3.55,10.42 h 5.81 l 3.55,-10.42 h 12.76 l -3.63,10.42 h 28.67 c 15.18,0.97 32.14,7.67 31.9,29.39 -0.4,33.51 -53.86,55.96 -92.14,61.86 l -16.31,47.16 -15.26,-45.22 23.1,-67.43 h 31.09 l -16.96,49.1 c 23.42,-2.5 49.99,-23.1 49.99,-39.17 0,-16.07 -7.91,-15.99 -19.22,-15.99 H 68.29 l -6.7,-19.7 h 48.13 l 3.55,-10.42 h 0.08 z"
     style="fill:#ffffff"
     id="path17" />
  <path
     d="M 125.4,239.95 C 101.72,239.95 79,232.79 59.68,219.24 40.8,205.99 26.5,187.65 18.32,166.18 l 5.61,-2.14 c 15.93,41.82 56.71,69.91 101.48,69.91 4.96,0 9.96,-0.34 14.84,-1.01 l 0.81,5.95 c -5.15,0.7 -10.42,1.06 -15.65,1.06 z m 25.75,-2.9 -1.34,-5.85 c 49.55,-11.38 84.15,-54.89 84.15,-105.8 0,-20.04 -5.5,-39.61 -15.91,-56.61 l 5.12,-3.13 c 10.99,17.94 16.79,38.6 16.79,59.74 0,26.07 -9,51.59 -25.33,71.85 -16.09,19.96 -38.63,34.09 -63.48,39.8 z M 15.1,156.43 c -2.82,-10.05 -4.25,-20.5 -4.25,-31.04 0,-41.84 22.81,-80.35 59.52,-100.5 l 2.89,5.26 c -34.8,19.09 -56.41,55.58 -56.41,95.24 0,9.99 1.36,19.89 4.03,29.41 l -5.78,1.62 z M 212.6,60.73 C 192.19,33.25 159.59,16.84 125.4,16.84 c -15.1,0 -29.7,3.04 -43.42,9.03 l -2.4,-5.5 c 14.48,-6.33 29.89,-9.53 45.82,-9.53 36.08,0 70.48,17.31 92.02,46.31 z"
     style="fill:#ffffff"
     id="path19" />
</svg>
