<?xml version="1.0" encoding="UTF-8" standalone="no"?>
<svg
   width="269.04633"
   height="347.32501"
   xmlns:inkscape="http://www.inkscape.org/namespaces/inkscape"
   xmlns:sodipodi="http://sodipodi.sourceforge.net/DTD/sodipodi-0.dtd"
   xmlns="http://www.w3.org/2000/svg"
   xmlns:svg="http://www.w3.org/2000/svg">
  <defs
     id="defs28" />
  <sodipodi:namedview
     id="namedview26"
     pagecolor="#ffffff"
     bordercolor="#666666"
     borderopacity="1.0"
     inkscape:pageshadow="2"
     inkscape:pageopacity="0.0"
     inkscape:pagecheckerboard="0"
     showgrid="false"
     inkscape:zoom="0.81858289"
     inkscape:cx="163.69753"
     inkscape:cy="113.61097"
     inkscape:window-width="1920"
     inkscape:window-height="1011"
     inkscape:window-x="0"
     inkscape:window-y="32"
     inkscape:window-maximized="1"
     inkscape:current-layer="svg24"
     fit-margin-top="0"
     fit-margin-left="0"
     fit-margin-right="0"
     fit-margin-bottom="0" />
  <path
     fill="#338032"
     d="m 123.93364,296.016 0.085,-0.476 72.956,-28.761 -67.01,38.446 c 11.126,10.715 24.144,16.354 38.899,17.328 30.428,2.001 58.485,-11.535 77.26,-35.082 3.55,-4.451 6.644,-9.425 9.358,-14.625 3.297,-6.298 15.099,-27.528 13.398,-32.587 -2.491,-7.402 -37.232,-12.512 -45.174,-13.598 -37.171,-5.093 -81.799,-0.04 -98.488,36.472 -3.57,-17.624 3.187,-42.449 7.567,-58.789 l -27.527,-1.047 c 3.181,13.958 6.069,35.481 5.627,52.212 -12.317,-24.417 -43.307,-33.637 -70.903,-35.462 -6.732,-0.441 -36.1879997,-2.114 -39.48799971,3.559 -2.25999999,3.883 3.88000001,23.35 5.52100001,29.093 1.36,4.736 3.063,9.356 5.2369997,13.624 11.478,22.556 32.303,38.451 57.691,41.928 12.303,1.687 23.972,-0.763 34.949,-7.697 l -48.677,-42.97 52.557,34.271 -0.009,0.371 c 4.198,14.643 3.469,30.223 -0.571,47.951 l 21.03,7.148 c -4.397,-16.41 -9.676,-34.91 -4.288,-51.309 z"
     id="path2" />
  <circle
     fill="#f6cd45"
     cx="122.53265"
     cy="109.606"
     r="109.606"
     id="circle6" />
  <path
     class="cls-2"
     d="m 122.43501,15.216107 c 52.29668,0 95.08486,42.10997 95.08486,93.577703 0,51.46774 -42.78818,93.57771 -95.08486,93.57771 -52.29667,0 -95.08485,-42.10997 -95.08485,-93.57771 0,-51.467733 42.19391,-93.577703 95.08485,-93.577703"
     id="path1378"
     style="display:inline;fill:#002235;fill-rule:evenodd;stroke-width:0px" />
  <path
     class="cls-1"
     d="m 121.84073,50.307748 -3.56567,9.357772 h 5.34851 l 3.56569,-9.357772 h 11.88561 l -3.56569,9.357772 h 26.74261 c 14.26273,0 30.3083,7.018328 29.71403,26.903592 0,30.997608 -50.51384,51.467738 -86.17066,56.731478 L 90.34388,186.58028 76.08115,145.05517 97.47523,83.059947 h 29.11974 L 110.5494,128.09422 c 21.98838,-2.33945 46.94815,-21.05499 46.94815,-36.261362 0,-15.206378 -7.13137,-14.621518 -17.82841,-14.621518 H 67.76122 L 61.81841,59.080659 h 45.16532 l 3.56567,-8.772911 z"
     id="path1380"
     style="display:inline;fill:#ffffff;fill-rule:evenodd;stroke-width:0px" />
</svg>
