<svg width="52" height="53" viewBox="0 0 52 53" fill="none" xmlns="http://www.w3.org/2000/svg">
                        <g clip-path="url(#clip0_1239_16290)">
                            <path
                                d="M34.0401 26.668C34.4204 26.668 34.7286 26.3597 34.7286 25.9795V21.0068C34.7286 20.7198 34.5506 20.4628 34.2819 20.3621L26.1206 17.3017C25.9646 17.2432 25.793 17.2432 25.6369 17.3017L17.4756 20.3621C17.2068 20.4629 17.0288 20.7198 17.0288 21.0068V23.2176C17.0288 23.5978 17.337 23.9061 17.7174 23.9061C18.0977 23.9061 18.4059 23.5978 18.4059 23.2176V22.0005L25.1902 24.5445V33.6463L18.4059 31.1023V26.4386C18.4059 26.0583 18.0977 25.75 17.7174 25.75C17.337 25.75 17.0288 26.0583 17.0288 26.4386V31.5795C17.0288 31.8665 17.2068 32.1235 17.4756 32.2242L25.6369 35.2847C25.637 35.2841 25.6372 35.2834 25.6373 35.2827C25.7148 35.3118 25.7964 35.3284 25.8788 35.3284C25.9603 35.3284 26.0421 35.314 26.1206 35.2846L34.2819 32.2241C34.5506 32.1233 34.7286 31.8664 34.7286 31.5794V29.1889C34.7286 28.8086 34.4204 28.5003 34.0401 28.5003C33.6597 28.5003 33.3515 28.8086 33.3515 29.1889V31.1022L26.5673 33.6463V24.5445L33.3515 22.0005V25.9795C33.3515 26.3598 33.6597 26.668 34.0401 26.668ZM25.8787 23.332L19.6785 21.0069L25.8787 18.6817L32.079 21.0069L25.8787 23.332Z"
                                fill="white" />
                            <path
                                d="M25.1922 9.66285V14.6077C25.1922 14.988 25.5004 15.2962 25.8807 15.2962C26.2611 15.2962 26.5693 14.988 26.5693 14.6077V9.66285C28.1544 9.34253 29.3516 7.93896 29.3516 6.26087C29.3516 4.34703 27.7946 2.79004 25.8807 2.79004C23.9669 2.79004 22.4099 4.34703 22.4099 6.26087C22.4099 7.93896 23.6071 9.34253 25.1922 9.66285ZM25.8807 4.16717C27.0352 4.16717 27.9744 5.10638 27.9744 6.26087C27.9744 7.41537 27.0352 8.35458 25.8807 8.35458C24.7263 8.35458 23.787 7.41537 23.787 6.26087C23.787 5.10638 24.7263 4.16717 25.8807 4.16717Z"
                                fill="white" />
                            <path
                                d="M39.1269 34.771C38.0599 34.771 37.0736 35.1232 36.2782 35.7176L34.63 34.0694C34.361 33.8004 33.9251 33.8004 33.6561 34.0694C33.3872 34.3383 33.3872 34.7743 33.6561 35.0431L35.3045 36.6913C34.7101 37.4868 34.3578 38.4731 34.3578 39.5401C34.3578 42.1698 36.4974 44.3093 39.127 44.3093C41.7567 44.3093 43.8962 42.1698 43.8962 39.5401C43.8962 36.9103 41.7567 34.771 39.1269 34.771ZM39.1269 42.9322C37.2565 42.9322 35.7349 41.4105 35.7349 39.5402C35.7349 37.6698 37.2565 36.1481 39.1269 36.1481C40.9974 36.1481 42.519 37.6698 42.519 39.5402C42.519 41.4105 40.9974 42.9322 39.1269 42.9322Z"
                                fill="white" />
                            <path
                                d="M12.6319 17.8156C13.699 17.8156 14.6852 17.4634 15.4806 16.869L17.1289 18.5173C17.2634 18.6517 17.4397 18.719 17.6158 18.719C17.792 18.719 17.9683 18.6517 18.1028 18.5173C18.3717 18.2483 18.3717 17.8123 18.1028 17.5435L16.4545 15.8953C17.0489 15.0998 17.4012 14.1135 17.4012 13.0465C17.4012 10.4168 15.2617 8.27734 12.632 8.27734C10.0023 8.27734 7.86279 10.4168 7.86279 13.0465C7.86279 15.6763 10.0021 17.8156 12.6319 17.8156ZM12.6319 9.65439C14.5023 9.65439 16.024 11.1761 16.024 13.0464C16.024 14.9168 14.5023 16.4385 12.6319 16.4385C10.7615 16.4385 9.23983 14.9168 9.23983 13.0464C9.23983 11.1761 10.7615 9.65439 12.6319 9.65439Z"
                                fill="white" />
                            <path
                                d="M26.5693 42.9234V37.9786C26.5693 37.5983 26.2611 37.29 25.8807 37.29C25.5004 37.29 25.1922 37.5983 25.1922 37.9786V42.9234C23.6071 43.2438 22.4099 44.6473 22.4099 46.3254C22.4099 48.2393 23.9669 49.7962 25.8807 49.7962C27.7946 49.7962 29.3516 48.2393 29.3516 46.3254C29.3516 44.6473 28.1544 43.2438 26.5693 42.9234ZM25.8807 48.4191C24.7263 48.4191 23.787 47.4799 23.787 46.3254C23.787 45.1709 24.7263 44.2317 25.8807 44.2317C27.0352 44.2317 27.9744 45.1709 27.9744 46.3254C27.9744 47.4799 27.0352 48.4191 25.8807 48.4191Z"
                                fill="white" />
                            <path
                                d="M45.9131 22.8223C44.235 22.8223 42.8314 24.0195 42.5111 25.6045H37.5663C37.1859 25.6045 36.8777 25.9128 36.8777 26.2931C36.8777 26.6734 37.1859 26.9817 37.5663 26.9817H42.5111C42.8314 28.5667 44.235 29.7639 45.9131 29.7639C47.8269 29.7639 49.3839 28.2069 49.3839 26.2931C49.3839 24.3793 47.8269 22.8223 45.9131 22.8223ZM45.9131 28.3868C44.7587 28.3868 43.8194 27.4476 43.8194 26.2931C43.8194 25.1386 44.7586 24.1994 45.9131 24.1994C47.0676 24.1994 48.0068 25.1386 48.0068 26.2931C48.0068 27.4476 47.0676 28.3868 45.9131 28.3868Z"
                                fill="white" />
                            <path
                                d="M9.2494 26.9817H14.1942C14.5746 26.9817 14.8828 26.6734 14.8828 26.2931C14.8828 25.9128 14.5746 25.6045 14.1942 25.6045H9.2494C8.92908 24.0195 7.52551 22.8223 5.84742 22.8223C3.93357 22.8223 2.37659 24.3793 2.37659 26.2931C2.37659 28.2069 3.93357 29.7639 5.84742 29.7639C7.52551 29.7639 8.92908 28.5667 9.2494 26.9817ZM5.84742 28.3868C4.69293 28.3868 3.75372 27.4476 3.75372 26.2931C3.75372 25.1386 4.69293 24.1994 5.84742 24.1994C7.00192 24.1994 7.94103 25.1386 7.94103 26.2931C7.94103 27.4476 7.00183 28.3868 5.84742 28.3868Z"
                                fill="white" />
                            <path
                                d="M34.1431 18.719C34.3193 18.719 34.4956 18.6518 34.6301 18.5173L36.2783 16.8691C37.0737 17.4635 38.06 17.8157 39.127 17.8157C41.7568 17.8157 43.8962 15.6763 43.8962 13.0465C43.8962 10.4168 41.7567 8.27734 39.127 8.27734C36.4974 8.27734 34.3578 10.4168 34.3578 13.0465C34.3578 14.1136 34.7101 15.0998 35.3045 15.8953L33.6561 17.5435C33.3872 17.8124 33.3872 18.2484 33.6561 18.5172C33.7906 18.6518 33.9669 18.719 34.1431 18.719ZM39.127 9.65448C40.9975 9.65448 42.5191 11.1762 42.5191 13.0465C42.5191 14.9169 40.9975 16.4386 39.127 16.4386C37.2566 16.4386 35.735 14.9169 35.735 13.0465C35.735 11.1762 37.2566 9.65448 39.127 9.65448Z"
                                fill="white" />
                            <path
                                d="M17.129 34.0693L15.4807 35.7176C14.6853 35.1232 13.699 34.7709 12.632 34.7709C10.0022 34.7709 7.86279 36.9104 7.86279 39.5401C7.86279 42.1699 10.0023 44.3093 12.632 44.3093C15.2617 44.3093 17.4012 42.1699 17.4012 39.5401C17.4012 38.473 17.0489 37.4868 16.4545 36.6914L18.1028 35.0432C18.3717 34.7743 18.3717 34.3383 18.1028 34.0694C17.8339 33.8004 17.398 33.8004 17.129 34.0693ZM12.632 42.9322C10.7616 42.9322 9.23993 41.4105 9.23993 39.5401C9.23993 37.6698 10.7616 36.1481 12.632 36.1481C14.5024 36.1481 16.0241 37.6698 16.0241 39.5401C16.0241 41.4105 14.5024 42.9322 12.632 42.9322Z"
                                fill="white" />
                        </g>
                        <defs>
                            <clipPath id="clip0_1239_16290">
                                <rect width="47.0062" height="47.0062" fill="white"
                                    transform="translate(2.37598 2.79004)" />
                            </clipPath>
                        </defs>
                    </svg>