<?xml version="1.0" encoding="UTF-8"?>
<svg xmlns="http://www.w3.org/2000/svg" version="1.2" baseProfile="tiny-ps" viewBox="0 0 32 32">
<title>Pactus</title>
  <path class="cls-22" fill="#002235" d="M16,0C24.8,0,32,7.2,32,16s-7.2,16-16,16S0,24.8,0,16,7.1,0,16,0"/>
  <path class="cls-11" fill="#ffffff" d="M15.9,6l-.6,1.6h.9l.6-1.6h2l-.6,1.6h4.5c2.4,0,5.1,1.2,5,4.6,0,5.3-8.5,8.8-14.5,9.7l-2.6,7.4-2.4-7.1,3.6-10.6h4.9l-2.7,7.7c3.7-.4,7.9-3.6,7.9-6.2s-1.2-2.5-3-2.5H6.8l-1-3.1h7.6l.6-1.5h1.9Z"/>
</svg>
