<?xml version="1.0" encoding="UTF-8" standalone="no"?>
<!-- Generator: Adobe Illustrator 27.5.0, SVG Export Plug-In . SVG Version: 6.00 Build 0)  -->

<svg
   version="1.1"
   id="svg5"
   x="0px"
   y="0px"
   fill="none"
   viewBox="0 0 990.65994 990.66002"
   xml:space="preserve"
   sodipodi:docname="twitter-x-seeklogo-2.svg"
   width="990.65997"
   height="990.65997"
   inkscape:version="1.1.2 (0a00cf5339, 2022-02-04)"
   xmlns:inkscape="http://www.inkscape.org/namespaces/inkscape"
   xmlns:sodipodi="http://sodipodi.sourceforge.net/DTD/sodipodi-0.dtd"
   xmlns="http://www.w3.org/2000/svg"
   xmlns:svg="http://www.w3.org/2000/svg"><defs
   id="defs13" /><sodipodi:namedview
   id="namedview11"
   pagecolor="#ffffff"
   bordercolor="#666666"
   borderopacity="1.0"
   inkscape:pageshadow="2"
   inkscape:pageopacity="0.0"
   inkscape:pagecheckerboard="0"
   showgrid="false"
   inkscape:zoom="0.68703481"
   inkscape:cx="494.88031"
   inkscape:cy="496.33584"
   inkscape:window-width="1920"
   inkscape:window-height="1011"
   inkscape:window-x="0"
   inkscape:window-y="32"
   inkscape:window-maximized="1"
   inkscape:current-layer="svg5" />
<g
   id="g6"
   transform="translate(-338.95,-115.27)">
	<path
   fill="#ffffff"
   d="m 834.28,1105.93 c -66.86,0 -131.73,-13.1 -192.81,-38.93 C 582.48,1042.05 529.51,1006.34 484.03,960.85 438.55,915.36 402.83,862.39 377.88,803.41 352.05,742.33 338.95,677.46 338.95,610.6 c 0,-66.86 13.1,-131.73 38.93,-192.81 24.95,-58.99 60.66,-111.96 106.15,-157.44 45.49,-45.49 98.46,-81.2 157.44,-106.15 61.08,-25.83 125.95,-38.93 192.81,-38.93 66.86,0 131.73,13.1 192.81,38.93 58.99,24.95 111.96,60.66 157.44,106.15 45.49,45.49 81.2,98.46 106.15,157.44 25.83,61.08 38.93,125.95 38.93,192.81 0,66.86 -13.1,131.73 -38.93,192.81 -24.95,58.99 -60.66,111.96 -106.15,157.44 -45.49,45.48 -98.46,81.2 -157.44,106.15 -61.08,25.83 -125.95,38.93 -192.81,38.93 z m 0,-962.67 c -257.69,0 -467.33,209.64 -467.33,467.33 0,257.69 209.64,467.33 467.33,467.33 257.69,0 467.33,-209.65 467.33,-467.33 0,-257.68 -209.64,-467.33 -467.33,-467.33 z"
   id="path4" />
</g>
<g
   id="layer1"
   transform="translate(-286.55991,-140.3286)">
	<path
   id="path1009"
   fill="#ffffff"
   d="M 485.39,356.79 715.46,664.41 483.94,914.52 h 52.11 l 202.7,-218.98 163.77,218.98 h 177.32 L 836.82,589.6 1052.32,356.79 h -52.11 L 813.54,558.46 662.71,356.79 Z m 76.63,38.38 h 81.46 l 359.72,480.97 h -81.46 z" />
</g>
</svg>
