<svg width="285" height="48" viewBox="0 0 285 48" fill="none" xmlns="http://www.w3.org/2000/svg">
<path d="M43.1893 15.9194C43.5946 17.8456 43.642 19.83 43.3293 21.7735C42.6533 32.6036 36.0473 39.5137 26.9553 43.8918C18.9553 47.7459 10.6513 46.7038 3.07733 41.7638C2.40478 41.4137 1.79621 40.9526 1.27733 40.3997C0.851447 40.0631 0.565087 39.5808 0.473328 39.0457C-1.21667 34.9937 2.01133 34.7497 3.99533 35.5537C9.39533 37.7437 13.1673 35.0837 17.0613 32.2216L18.0073 30.9596C20.1273 25.1595 22.3053 19.3774 24.3333 13.5433C24.5857 12.5539 25.1498 11.6719 25.9422 11.0279C26.7346 10.3839 27.7132 10.012 28.7333 9.96728H29.0093C34.5113 7.42324 37.8353 8.93926 41.4453 12.9673C42.2549 13.7973 42.853 14.8098 43.1893 15.9194Z" fill="#DA161F"/>
<path d="M28.1751 13.075C28.0433 12.9829 27.9373 12.8585 27.8672 12.7138C27.7972 12.569 27.7655 12.4087 27.7751 12.2481C27.7848 12.0876 27.8354 11.9322 27.9223 11.7969C28.0091 11.6615 28.1292 11.5507 28.2711 11.475C30.461 10.9863 32.5766 10.2102 34.5631 9.16696C36.2891 7.98294 38.2731 6.94692 38.4451 4.20888C38.5271 2.87486 35.3871 0.12482 34.6611 2.83086C34.2091 4.50689 33.5351 4.51889 32.7791 3.71488C32.538 3.4243 32.4138 3.05429 32.4308 2.67708C32.4478 2.29987 32.6048 1.94253 32.8711 1.67484C33.4173 1.11178 34.0773 0.67173 34.8071 0.384085C35.5369 0.0964407 36.3196 -0.0321783 37.1031 0.00681806C38.8331 0.11482 40.9031 1.80685 40.4351 5.68691C40.1594 7.17649 39.9969 8.68483 39.9491 10.199C39.8524 12.4233 40.387 14.6297 41.4911 16.5631C41.4967 16.6701 41.4762 16.7769 41.4313 16.8742C41.3864 16.9715 41.3185 17.0564 41.2334 17.1216C41.1484 17.1868 41.0487 17.2303 40.9431 17.2483C40.8374 17.2663 40.729 17.2584 40.6271 17.2251C40.1111 16.5651 40.0971 15.6251 38.5731 15.081C37.0475 14.808 35.4745 15.0265 34.0811 15.7051C33.3691 13.421 32.6551 12.737 30.3471 13.105C29.6262 13.2115 28.8928 13.2013 28.1751 13.075Z" fill="#86BB2F"/>
<path d="M73.1623 33.6162C72.0861 34.0491 71.0408 34.3708 70.0265 34.5811C69.0245 34.7913 67.9793 34.8965 66.8907 34.8965C65.1466 34.8965 63.6003 34.6429 62.252 34.1357C60.9161 33.6162 59.7842 32.8493 58.8565 31.8349C57.9411 30.8206 57.2422 29.5651 56.7598 28.0683C56.2897 26.5592 56.0547 24.8088 56.0547 22.8173C56.0547 20.7763 56.3145 18.9641 56.834 17.3807C57.3535 15.785 58.0957 14.4429 59.0606 13.3543C60.0254 12.2534 61.1944 11.4184 62.5674 10.8494C63.9529 10.268 65.5053 9.97735 67.2247 9.97735C67.7814 9.97735 68.3009 9.98972 68.7833 10.0145C69.2781 10.0392 69.7605 10.0887 70.2306 10.1629C70.7006 10.2247 71.1769 10.3113 71.6593 10.4227C72.1417 10.534 72.6427 10.6763 73.1623 10.8494V15.3768C72.1108 14.882 71.1089 14.5295 70.1564 14.3192C69.2039 14.1089 68.338 14.0037 67.5587 14.0037C66.4083 14.0037 65.4249 14.214 64.6085 14.6346C63.7921 15.0428 63.1179 15.6242 62.586 16.3788C62.0665 17.121 61.683 18.0116 61.4356 19.0507C61.1882 20.0774 61.0645 21.2092 61.0645 22.4462C61.0645 23.7574 61.1882 24.9325 61.4356 25.9716C61.6954 26.9983 62.0912 27.8704 62.6231 28.5878C63.155 29.3053 63.8354 29.8558 64.6641 30.2392C65.4929 30.6103 66.4763 30.7959 67.6144 30.7959C68.0226 30.7959 68.4617 30.7588 68.9318 30.6845C69.4142 30.598 69.8966 30.4928 70.379 30.3691C70.8738 30.233 71.3562 30.0784 71.8263 29.9052C72.3087 29.7197 72.754 29.5341 73.1623 29.3486V33.6162ZM94.9827 24.9882C94.9827 26.4726 94.7724 27.8333 94.3519 29.0703C93.9313 30.2949 93.3252 31.3463 92.5335 32.2246C91.7418 33.1029 90.7708 33.7832 89.6204 34.2656C88.47 34.748 87.1588 34.9893 85.6868 34.9893C84.289 34.9893 83.0396 34.7852 81.9387 34.377C80.8378 33.9687 79.9038 33.3626 79.1369 32.5586C78.37 31.7422 77.7824 30.7278 77.3742 29.5156C76.966 28.291 76.7619 26.8684 76.7619 25.248C76.7619 23.7512 76.9722 22.3905 77.3928 21.1659C77.8257 19.9413 78.438 18.896 79.2297 18.0301C80.0337 17.1643 81.0109 16.4963 82.1613 16.0262C83.3117 15.5438 84.6106 15.3026 86.0579 15.3026C87.468 15.3026 88.7236 15.5129 89.8245 15.9335C90.9254 16.3417 91.8593 16.954 92.6263 17.7704C93.3932 18.5868 93.9746 19.6011 94.3704 20.8134C94.7786 22.0133 94.9827 23.4049 94.9827 24.9882ZM90.2698 25.0995C90.2698 23.1451 89.8987 21.6793 89.1565 20.702C88.4267 19.7125 87.3443 19.2177 85.9094 19.2177C85.1177 19.2177 84.4436 19.3723 83.8869 19.6815C83.3303 19.9908 82.8726 20.4175 82.5139 20.9618C82.1552 21.4937 81.8892 22.1184 81.716 22.8358C81.5552 23.5533 81.4748 24.3202 81.4748 25.1366C81.4748 27.1035 81.8707 28.5878 82.6623 29.5898C83.454 30.5794 84.5364 31.0742 85.9094 31.0742C86.664 31.0742 87.3196 30.9258 87.8762 30.6289C88.4329 30.3196 88.8844 29.8991 89.2307 29.3671C89.5771 28.8229 89.8369 28.1858 90.01 27.456C90.1832 26.7262 90.2698 25.9407 90.2698 25.0995ZM109.994 10.5526C109.994 10.9608 109.919 11.3442 109.771 11.703C109.622 12.0617 109.412 12.3771 109.14 12.6492C108.88 12.909 108.571 13.1193 108.212 13.2801C107.854 13.4285 107.464 13.5028 107.043 13.5028C106.623 13.5028 106.227 13.4285 105.856 13.2801C105.497 13.1193 105.182 12.909 104.91 12.6492C104.65 12.3771 104.446 12.0617 104.297 11.703C104.149 11.3442 104.075 10.9608 104.075 10.5526C104.075 10.1443 104.149 9.76088 104.297 9.40215C104.446 9.04343 104.65 8.72799 104.91 8.45586C105.182 8.18372 105.497 7.97343 105.856 7.82499C106.227 7.66418 106.623 7.58378 107.043 7.58378C107.464 7.58378 107.854 7.66418 108.212 7.82499C108.571 7.97343 108.88 8.18372 109.14 8.45586C109.412 8.72799 109.622 9.04343 109.771 9.40215C109.919 9.76088 109.994 10.1443 109.994 10.5526ZM104.984 19.2362H99.6585V15.7108H109.622V31.0371H115.059V34.5625H99.0091V31.0371H104.984V19.2362ZM131.035 34.5625V22.2792C131.035 20.2134 130.268 19.1805 128.734 19.1805C127.967 19.1805 127.231 19.4898 126.526 20.1083C125.833 20.7268 125.097 21.5679 124.318 22.6317V34.5625H119.791V15.7108H123.706L123.817 18.494C124.2 18.0116 124.596 17.5725 125.004 17.1766C125.425 16.7808 125.877 16.4468 126.359 16.1747C126.841 15.8902 127.361 15.6737 127.918 15.5252C128.474 15.3768 129.099 15.3026 129.792 15.3026C130.756 15.3026 131.598 15.4634 132.315 15.785C133.033 16.0943 133.632 16.5396 134.115 17.121C134.597 17.69 134.956 18.3827 135.191 19.1991C135.438 20.0031 135.562 20.9061 135.562 21.9081V34.5625H131.035ZM157.438 18.0301C157.438 19.2919 157.228 20.4608 156.807 21.537C156.387 22.6008 155.762 23.5224 154.933 24.3017C154.105 25.081 153.072 25.6871 151.835 26.1201C150.598 26.553 149.163 26.7695 147.53 26.7695H145.211V34.5625H140.609V10.3113H147.716C149.287 10.3113 150.672 10.4845 151.872 10.8309C153.084 11.1649 154.098 11.6597 154.915 12.3153C155.744 12.9709 156.368 13.7811 156.789 14.7459C157.222 15.6984 157.438 16.7932 157.438 18.0301ZM152.651 18.3456C152.651 17.7023 152.546 17.121 152.336 16.6014C152.138 16.0695 151.829 15.618 151.408 15.2469C151 14.8758 150.48 14.5913 149.849 14.3934C149.218 14.1955 148.47 14.0965 147.604 14.0965H145.211V22.9843H147.753C148.544 22.9843 149.243 22.8791 149.849 22.6689C150.455 22.4462 150.963 22.1308 151.371 21.7226C151.791 21.3144 152.107 20.8257 152.317 20.2567C152.54 19.6877 152.651 19.0507 152.651 18.3456ZM173.395 34.5625L173.284 32.0947C172.888 32.5153 172.474 32.9049 172.041 33.2637C171.608 33.61 171.132 33.9131 170.612 34.1728C170.093 34.4326 169.524 34.6305 168.905 34.7666C168.299 34.915 167.631 34.9893 166.901 34.9893C165.936 34.9893 165.089 34.847 164.359 34.5625C163.629 34.278 163.017 33.8822 162.522 33.375C162.028 32.8678 161.65 32.2555 161.39 31.5381C161.143 30.8206 161.019 30.0289 161.019 29.163C161.019 28.2724 161.205 27.4498 161.576 26.6953C161.959 25.9407 162.535 25.2913 163.302 24.747C164.081 24.2027 165.046 23.776 166.196 23.4667C167.359 23.1575 168.72 23.0028 170.278 23.0028H172.746V21.871C172.746 21.3886 172.678 20.9556 172.542 20.5722C172.406 20.1763 172.183 19.8423 171.874 19.5702C171.577 19.2981 171.187 19.0878 170.705 18.9393C170.223 18.7909 169.629 18.7167 168.924 18.7167C167.81 18.7167 166.71 18.8466 165.621 19.1063C164.545 19.3537 163.5 19.7063 162.485 20.164V16.5458C163.388 16.187 164.427 15.8902 165.602 15.6551C166.79 15.4201 168.021 15.3026 169.295 15.3026C170.693 15.3026 171.893 15.4387 172.894 15.7108C173.896 15.9706 174.719 16.3664 175.362 16.8983C176.018 17.4302 176.5 18.0982 176.81 18.9022C177.119 19.6939 177.273 20.6216 177.273 21.6854V34.5625H173.395ZM172.746 26.2314H169.981C169.214 26.2314 168.565 26.3056 168.033 26.454C167.501 26.6025 167.068 26.8066 166.734 27.0663C166.4 27.3261 166.153 27.6292 165.992 27.9755C165.844 28.3095 165.769 28.6682 165.769 29.0517C165.769 29.8186 166.017 30.4062 166.512 30.8144C167.006 31.2103 167.681 31.4082 168.534 31.4082C169.165 31.4082 169.821 31.1793 170.501 30.7217C171.181 30.264 171.93 29.6084 172.746 28.7548V26.2314ZM199.428 24.8027C199.428 26.5344 199.18 28.0312 198.686 29.2929C198.203 30.5547 197.523 31.6061 196.645 32.4472C195.779 33.276 194.752 33.8945 193.565 34.3027C192.377 34.6986 191.084 34.8965 189.687 34.8965C189.217 34.8965 188.746 34.8656 188.276 34.8037C187.806 34.7419 187.38 34.6615 186.996 34.5625V41.9288H182.469V15.7108H186.384L186.495 18.494C186.879 18.0116 187.274 17.5725 187.683 17.1766C188.103 16.7808 188.555 16.4468 189.037 16.1747C189.52 15.8902 190.039 15.6737 190.596 15.5252C191.152 15.3768 191.777 15.3026 192.47 15.3026C193.583 15.3026 194.573 15.5252 195.439 15.9706C196.304 16.4159 197.028 17.0529 197.609 17.8817C198.203 18.6981 198.655 19.6939 198.964 20.869C199.273 22.0318 199.428 23.343 199.428 24.8027ZM194.678 24.9882C194.678 23.9491 194.604 23.0647 194.455 22.3349C194.307 21.605 194.09 21.0051 193.806 20.535C193.534 20.065 193.193 19.7248 192.785 19.5145C192.389 19.2919 191.932 19.1805 191.412 19.1805C190.645 19.1805 189.909 19.4898 189.204 20.1083C188.511 20.7268 187.775 21.5679 186.996 22.6317V30.8701C187.355 31.0062 187.794 31.1175 188.314 31.2041C188.845 31.2907 189.384 31.334 189.928 31.334C190.645 31.334 191.295 31.1855 191.876 30.8886C192.47 30.5918 192.971 30.1712 193.379 29.6269C193.8 29.0826 194.121 28.4209 194.344 27.6415C194.567 26.8499 194.678 25.9654 194.678 24.9882ZM215.496 23.04C215.521 22.3349 215.484 21.7349 215.385 21.2401C215.298 20.7453 215.15 20.3371 214.94 20.0155C214.742 19.6939 214.494 19.4589 214.198 19.3104C213.901 19.162 213.56 19.0878 213.177 19.0878C212.509 19.0878 211.816 19.3661 211.099 19.9227C210.394 20.467 209.614 21.37 208.761 22.6317V34.5625H204.122V15.7108H208.223L208.39 18.4569C208.699 17.9745 209.045 17.5415 209.429 17.1581C209.825 16.7746 210.258 16.4468 210.728 16.1747C211.21 15.8902 211.742 15.6737 212.323 15.5252C212.905 15.3768 213.542 15.3026 214.235 15.3026C215.187 15.3026 216.028 15.4696 216.758 15.8036C217.5 16.1252 218.119 16.6076 218.614 17.2508C219.121 17.8941 219.492 18.7043 219.727 19.6815C219.974 20.6464 220.079 21.7659 220.042 23.04H215.496ZM235.35 10.5526C235.35 10.9608 235.276 11.3442 235.127 11.703C234.979 12.0617 234.769 12.3771 234.496 12.6492C234.237 12.909 233.927 13.1193 233.569 13.2801C233.21 13.4285 232.82 13.5028 232.4 13.5028C231.979 13.5028 231.583 13.4285 231.212 13.2801C230.854 13.1193 230.538 12.909 230.266 12.6492C230.006 12.3771 229.802 12.0617 229.654 11.703C229.505 11.3442 229.431 10.9608 229.431 10.5526C229.431 10.1443 229.505 9.76088 229.654 9.40215C229.802 9.04343 230.006 8.72799 230.266 8.45586C230.538 8.18372 230.854 7.97343 231.212 7.82499C231.583 7.66418 231.979 7.58378 232.4 7.58378C232.82 7.58378 233.21 7.66418 233.569 7.82499C233.927 7.97343 234.237 8.18372 234.496 8.45586C234.769 8.72799 234.979 9.04343 235.127 9.40215C235.276 9.76088 235.35 10.1443 235.35 10.5526ZM230.34 19.2362H225.015V15.7108H234.979V31.0371H240.415V34.5625H224.366V31.0371H230.34V19.2362ZM256.818 34.5625L249.86 25.1366V34.5625H245.333V8.34453H249.86V23.6894L256.447 15.7108H262.106L254.461 24.3017L262.737 34.5625H256.818ZM277.859 34.5625L277.748 32.0947C277.352 32.5153 276.938 32.9049 276.505 33.2637C276.072 33.61 275.595 33.9131 275.076 34.1728C274.556 34.4326 273.987 34.6305 273.369 34.7666C272.763 34.915 272.095 34.9893 271.365 34.9893C270.4 34.9893 269.553 34.847 268.823 34.5625C268.093 34.278 267.481 33.8822 266.986 33.375C266.491 32.8678 266.114 32.2555 265.854 31.5381C265.607 30.8206 265.483 30.0289 265.483 29.163C265.483 28.2724 265.669 27.4498 266.04 26.6953C266.423 25.9407 266.998 25.2913 267.765 24.747C268.545 24.2027 269.509 23.776 270.66 23.4667C271.823 23.1575 273.183 23.0028 274.742 23.0028H277.21V21.871C277.21 21.3886 277.142 20.9556 277.006 20.5722C276.87 20.1763 276.647 19.8423 276.338 19.5702C276.041 19.2981 275.651 19.0878 275.169 18.9393C274.686 18.7909 274.093 18.7167 273.387 18.7167C272.274 18.7167 271.173 18.8466 270.085 19.1063C269.008 19.3537 267.963 19.7063 266.949 20.164V16.5458C267.852 16.187 268.891 15.8902 270.066 15.6551C271.254 15.4201 272.484 15.3026 273.759 15.3026C275.156 15.3026 276.356 15.4387 277.358 15.7108C278.36 15.9706 279.183 16.3664 279.826 16.8983C280.482 17.4302 280.964 18.0982 281.273 18.9022C281.582 19.6939 281.737 20.6216 281.737 21.6854V34.5625H277.859ZM277.21 26.2314H274.445C273.678 26.2314 273.029 26.3056 272.497 26.454C271.965 26.6025 271.532 26.8066 271.198 27.0663C270.864 27.3261 270.617 27.6292 270.456 27.9755C270.307 28.3095 270.233 28.6682 270.233 29.0517C270.233 29.8186 270.48 30.4062 270.975 30.8144C271.47 31.2103 272.144 31.4082 272.998 31.4082C273.629 31.4082 274.284 31.1793 274.965 30.7217C275.645 30.264 276.393 29.6084 277.21 28.7548V26.2314Z" fill="#ffffff"/>
</svg>
