<svg width="262" height="45" viewBox="0 0 262 45" fill="none" xmlns="http://www.w3.org/2000/svg">
<path d="M38.5465 26.9041C37.7616 27.3837 36.8459 27.4709 36.1483 27.0785C35.2762 26.5552 34.7529 25.3779 34.7529 23.7645V18.8372C34.7529 16.4826 33.8372 14.782 32.2674 14.3459C29.6076 13.561 27.6017 16.8314 26.8605 18.0523L22.1512 25.5959V16.3081C22.1076 14.1715 21.4099 12.907 20.1017 12.5145C19.2297 12.2529 17.9215 12.3837 16.657 14.3023L6.14825 31.1337C4.75291 28.4738 4.01163 25.5087 4.01163 22.5C4.01163 12.3401 12.1657 4.09883 22.1512 4.09883C32.1366 4.09883 40.2907 12.3401 40.2907 22.5V22.5436V22.5872C40.3779 24.5494 39.7674 26.1192 38.5465 26.9041ZM44.3023 22.5V22.4564V22.4128C44.2587 10.0727 34.3169 0 22.1512 0C9.94186 0 0 10.0727 0 22.5C0 34.8837 9.94186 45 22.1512 45C27.7762 45 33.0959 42.8634 37.1948 38.9826C38.0233 38.1977 38.0669 36.9331 37.282 36.1047C36.5407 35.2762 35.2762 35.2326 34.4477 35.9738C34.4477 35.9738 34.4477 35.9738 34.4041 36.0174C31.0901 39.157 26.6424 40.9448 22.064 40.9448C16.7006 40.9448 11.9041 38.5901 8.59012 34.8401L18.0523 19.6657V26.686C18.0523 30.0436 19.3605 31.1337 20.4506 31.439C21.5407 31.7442 23.1977 31.5262 24.9855 28.6919L30.1744 20.2762C30.3488 20.0145 30.4797 19.7529 30.6541 19.5785V23.8517C30.6541 26.9913 31.9186 29.5203 34.0988 30.7413C36.061 31.875 38.5465 31.7442 40.5959 30.4796C43.125 28.8227 44.4767 25.9448 44.3023 22.5ZM75.1744 14.8256C75.6977 15.1308 76.1773 15.8721 76.1773 16.5262C76.1773 17.5727 75.3052 18.4448 74.3023 18.4448C74.0407 18.4448 73.8227 18.3576 73.6046 18.314C72.4273 17.4419 70.9448 16.875 69.375 16.875C65.6686 16.875 63.1395 19.8837 63.1395 23.6337C63.1395 27.3837 65.7122 30.3488 69.375 30.3488C71.2064 30.3488 72.8634 29.6076 74.0843 28.4302C74.3895 28.2122 74.782 28.0814 75.1744 28.0814C76.1773 28.0814 76.9622 28.8663 76.9622 29.8692C76.9622 30.5233 76.5698 31.0901 76.0901 31.3953C74.3023 32.9215 71.9041 33.9244 69.4186 33.9244C63.75 33.9244 59.1279 29.2587 59.1279 23.5029C59.1279 17.7471 63.75 13.0814 69.4186 13.0814C71.5116 13.0378 73.5174 13.6919 75.1744 14.8256ZM85.5523 19.186C89.4331 19.186 92.6599 22.4564 92.6599 26.5116C92.6599 30.5233 89.3895 33.968 85.5523 33.968C81.4971 33.968 78.1395 30.5669 78.1395 26.5116C78.1395 22.4564 81.4971 19.186 85.5523 19.186ZM85.5087 30.3488C87.2093 30.3488 88.6483 28.7355 88.6483 26.5552C88.6483 24.375 87.2093 22.9797 85.5087 22.9797C83.6773 22.9797 82.1512 24.3314 82.1512 26.5552C82.1512 28.6919 83.6773 30.3488 85.5087 30.3488ZM95.1017 31.7006V21.4099C95.1017 20.2762 95.9738 19.3605 97.1076 19.3605C98.1977 19.3605 99.1134 20.2762 99.1134 21.4099V31.7006C99.1134 32.8343 98.1977 33.75 97.1076 33.75C96.0174 33.75 95.1017 32.7907 95.1017 31.7006ZM94.7965 15.4796C94.7965 14.1279 95.843 13.0814 97.1076 13.0814C98.4157 13.0814 99.4622 14.1715 99.4622 15.4796C99.4622 16.7878 98.4157 17.8343 97.1076 17.8343C95.7994 17.7907 94.7965 16.7442 94.7965 15.4796ZM106.788 26.1192V31.7006C106.788 32.8343 105.872 33.75 104.782 33.75C103.692 33.75 102.776 32.8343 102.776 31.7006V20.9302C102.776 20.0581 103.474 19.3605 104.346 19.3605C105.218 19.3605 105.872 20.1017 105.872 20.9302C107.485 19.4041 108.924 19.186 110.276 19.186C114.288 19.186 116.076 22.1948 116.076 25.6395V31.7006C116.076 32.8343 115.16 33.75 114.07 33.75C112.98 33.75 112.064 32.8343 112.064 31.7006V26.1192C112.064 24.375 111.846 22.8924 109.317 22.8924C107.529 22.8924 106.788 24.375 106.788 26.1192ZM129.07 28.2558C128.59 28.2558 128.285 28.0378 128.023 27.7326L123.358 22.6744V31.7006C123.358 32.8343 122.442 33.75 121.352 33.75C120.262 33.75 119.346 32.8343 119.346 31.7006V13.8227C119.477 13.5174 119.782 13.2994 120.087 13.2994C120.436 13.2994 120.741 13.6047 120.959 13.8227L128.416 22.1948C128.634 22.4564 128.895 22.5872 129.07 22.5872C129.201 22.5872 129.506 22.4564 129.724 22.1948L137.18 13.8227C137.398 13.6047 137.66 13.2994 138.052 13.2994C138.401 13.2994 138.706 13.5174 138.794 13.8227V31.7006C138.794 32.8343 137.922 33.75 136.788 33.75C135.698 33.75 134.782 32.8343 134.782 31.7006V22.6744L130.116 27.7326C129.767 28.0378 129.462 28.2558 129.07 28.2558ZM148.343 30.3488C150.131 30.3488 151.657 28.7355 151.657 26.5552C151.657 24.375 150.087 22.936 148.343 22.936C146.599 22.936 145.16 24.4186 145.16 26.5552C145.16 28.6482 146.555 30.3488 148.343 30.3488ZM152.616 32.1802L152.529 31.7006C151.744 33.2267 149.259 33.9244 147.689 33.9244C143.939 33.9244 141.148 30.5233 141.148 26.468C141.148 22.4564 143.983 19.1424 147.907 19.1424C148.561 19.1424 150.828 19.3169 152.573 21.3663L152.66 20.8866C152.66 20.0145 153.314 19.3169 154.186 19.3169C155.058 19.3169 155.756 20.0581 155.756 20.8866V32.1366C155.756 33.0087 155.058 33.7064 154.186 33.7064C153.27 33.75 152.616 33.0087 152.616 32.1802ZM166.788 22.8924H166.352C163.823 23.0233 163.343 24.4622 163.343 26.1192V31.7006C163.343 32.8343 162.427 33.75 161.337 33.75C160.247 33.75 159.331 32.8343 159.331 31.7006V20.9302C159.331 20.0581 160.029 19.3605 160.901 19.3605C161.773 19.3605 162.427 20.1017 162.427 20.9302C163.91 19.5349 165.131 19.2296 166.352 19.186H166.744C167.703 19.186 168.576 20.0145 168.576 21.0611C168.619 22.0204 167.747 22.8924 166.788 22.8924ZM182.267 30.7413C182.442 31.0465 182.573 31.3517 182.573 31.7006C182.573 32.7471 181.613 33.7064 180.567 33.7064C179.869 33.7064 179.259 33.1831 178.779 32.5727L174.157 27.2093V31.657C174.157 32.7907 173.241 33.7064 172.151 33.7064C171.061 33.7064 170.145 32.7907 170.145 31.657V15.3052C170.145 14.1715 171.017 13.2558 172.151 13.2558C173.285 13.2558 174.157 14.1715 174.157 15.3052V25.5087L178.779 20.407C179.259 19.8837 179.826 19.3169 180.523 19.3169C181.526 19.3169 182.442 20.2326 182.442 21.2791C182.442 21.5843 182.355 21.9331 182.18 22.1948L178.517 26.2064L182.267 30.7413ZM190.116 22.936C189.026 22.936 187.238 23.5029 187.238 25.2035H193.038C192.994 23.5029 191.163 22.936 190.116 22.936ZM195.349 27.7762H187.238C187.238 30.1744 189.549 30.5669 190.552 30.5669C191.294 30.5669 192.34 30.436 193.169 30.0436C193.43 29.8692 193.823 29.7384 194.215 29.7384C195.087 29.7384 195.828 30.4796 195.828 31.3953C195.828 32.0058 195.436 32.5291 194.956 32.8343C193.735 33.75 192.122 33.968 190.596 33.968C186.541 33.968 183.183 31.7878 183.183 26.686C183.183 22.6744 185.233 19.186 190.029 19.186C193.91 19.186 196.831 21.7151 196.919 26.2064C196.919 27.0349 196.221 27.7762 195.349 27.7762ZM206.512 33.9244H205.421C202.369 33.9244 200.581 32.5727 200.581 27.8198V22.8924H199.535C198.576 22.8924 197.747 22.0204 197.747 21.0611C197.747 20.0145 198.619 19.186 199.535 19.186H200.581V15.3924C200.581 14.2587 201.453 13.343 202.587 13.343C203.677 13.343 204.593 14.2587 204.593 15.3924V19.186H206.25C207.209 19.186 208.038 20.0145 208.038 21.0611C208.038 22.0204 207.166 22.8924 206.25 22.8924H204.593V27.0349C204.593 29.782 204.724 30.3488 205.945 30.3488H206.512C207.471 30.3488 208.299 31.1337 208.299 32.1366C208.299 33.0959 207.471 33.9244 206.512 33.9244ZM225.916 14.8256C226.439 15.1308 226.919 15.8721 226.919 16.5262C226.919 17.5727 226.046 18.4448 225.044 18.4448C224.782 18.4448 224.564 18.3576 224.346 18.314C223.169 17.4419 221.686 16.875 220.116 16.875C216.41 16.875 213.881 19.8837 213.881 23.6337C213.881 27.3837 216.453 30.3488 220.116 30.3488C221.948 30.3488 223.605 29.6076 224.826 28.4302C225.131 28.2122 225.523 28.0814 225.916 28.0814C226.919 28.0814 227.703 28.8663 227.703 29.8692C227.703 30.5233 227.311 31.0901 226.831 31.3953C225.044 32.9215 222.645 33.9244 220.16 33.9244C214.491 33.9244 209.869 29.2587 209.869 23.5029C209.869 17.7471 214.491 13.0814 220.16 13.0814C222.253 13.0378 224.302 13.6919 225.916 14.8256ZM236.076 30.3488C237.863 30.3488 239.39 28.7355 239.39 26.5552C239.39 24.375 237.82 22.936 236.076 22.936C234.288 22.936 232.892 24.4186 232.892 26.5552C232.892 28.6482 234.331 30.3488 236.076 30.3488ZM240.349 32.1802L240.262 31.7006C239.477 33.2267 236.991 33.9244 235.421 33.9244C231.671 33.9244 228.881 30.5233 228.881 26.468C228.881 22.4564 231.715 19.1424 235.639 19.1424C236.294 19.1424 238.561 19.3169 240.305 21.3663L240.392 20.8866C240.392 20.0145 241.046 19.3169 241.919 19.3169C242.791 19.3169 243.488 20.0581 243.488 20.8866V32.1366C243.488 33.0087 242.791 33.7064 241.919 33.7064C241.003 33.75 240.349 33.0087 240.349 32.1802ZM254.433 30.3488C256.221 30.3488 257.616 28.6482 257.616 26.5552C257.616 24.375 256.177 22.936 254.433 22.936C252.645 22.936 251.119 24.375 251.119 26.5552C251.119 28.7355 252.645 30.3488 254.433 30.3488ZM251.119 32.7471V37.8488C251.119 38.9826 250.203 39.8983 249.113 39.8983C248.023 39.8983 247.108 38.9826 247.108 37.8488V20.9302C247.108 20.0581 247.805 19.3605 248.677 19.3605C249.549 19.3605 250.203 20.1017 250.203 21.1046C251.686 19.5785 253.517 19.186 254.913 19.186C258.794 19.186 261.671 22.4564 261.671 26.5116C261.671 30.5233 258.924 33.968 255.131 33.968C253.953 33.9244 252.209 33.5756 251.119 32.7471Z" fill="#FDFDFD"/>
</svg>
