<svg width="263" height="45" viewBox="0 0 263 45" fill="none" xmlns="http://www.w3.org/2000/svg">
<path d="M38.9274 26.9041C38.1425 27.3837 37.2268 27.4709 36.5291 27.0785C35.657 26.5552 35.1338 25.3779 35.1338 23.7645V18.8372C35.1338 16.4826 34.2181 14.782 32.6483 14.3459C29.9884 13.561 27.9826 16.8314 27.2413 18.0523L22.532 25.5959V16.3081C22.4884 14.1715 21.7907 12.907 20.4826 12.5145C19.6105 12.2529 18.3024 12.3837 17.0378 14.3023L6.52911 31.1337C5.13377 28.4738 4.39249 25.5087 4.39249 22.5C4.39249 12.3401 12.5466 4.09883 22.532 4.09883C32.5175 4.09883 40.6716 12.3401 40.6716 22.5V22.5436V22.5872C40.7588 24.5494 40.1483 26.1192 38.9274 26.9041ZM44.6832 22.5V22.4564V22.4128C44.6396 10.0727 34.6977 0 22.532 0C10.3227 0 0.380859 10.0727 0.380859 22.5C0.380859 34.8837 10.3227 45 22.532 45C28.157 45 33.4768 42.8634 37.5756 38.9826C38.4041 38.1977 38.4477 36.9331 37.6628 36.1047C36.9216 35.2762 35.657 35.2326 34.8285 35.9738C34.8285 35.9738 34.8285 35.9738 34.7849 36.0174C31.471 39.157 27.0233 40.9448 22.4448 40.9448C17.0814 40.9448 12.2849 38.5901 8.97097 34.8401L18.4332 19.6657V26.686C18.4332 30.0436 19.7413 31.1337 20.8314 31.439C21.9216 31.7442 23.5785 31.5262 25.3663 28.6919L30.5553 20.2762C30.7297 20.0145 30.8605 19.7529 31.0349 19.5785V23.8517C31.0349 26.9913 32.2995 29.5203 34.4797 30.7413C36.4419 31.875 38.9274 31.7442 40.9768 30.4796C43.5059 28.8227 44.8576 25.9448 44.6832 22.5ZM75.5553 14.8256C76.0785 15.1308 76.5582 15.8721 76.5582 16.5262C76.5582 17.5727 75.6861 18.4448 74.6832 18.4448C74.4216 18.4448 74.2035 18.3576 73.9855 18.314C72.8082 17.4419 71.3256 16.875 69.7559 16.875C66.0495 16.875 63.5204 19.8837 63.5204 23.6337C63.5204 27.3837 66.0931 30.3488 69.7559 30.3488C71.5873 30.3488 73.2442 29.6076 74.4652 28.4302C74.7704 28.2122 75.1628 28.0814 75.5553 28.0814C76.5582 28.0814 77.3431 28.8663 77.3431 29.8692C77.3431 30.5233 76.9506 31.0901 76.471 31.3953C74.6832 32.9215 72.2849 33.9244 69.7995 33.9244C64.1309 33.9244 59.5088 29.2587 59.5088 23.5029C59.5088 17.7471 64.1309 13.0814 69.7995 13.0814C71.8925 13.0378 73.8983 13.6919 75.5553 14.8256ZM85.9332 19.186C89.814 19.186 93.0407 22.4564 93.0407 26.5116C93.0407 30.5233 89.7704 33.968 85.9332 33.968C81.8779 33.968 78.5204 30.5669 78.5204 26.5116C78.5204 22.4564 81.8779 19.186 85.9332 19.186ZM85.8896 30.3488C87.5902 30.3488 89.0291 28.7355 89.0291 26.5552C89.0291 24.375 87.5902 22.9797 85.8896 22.9797C84.0582 22.9797 82.532 24.3314 82.532 26.5552C82.532 28.6919 84.0582 30.3488 85.8896 30.3488ZM95.4826 31.7006V21.4099C95.4826 20.2762 96.3547 19.3605 97.4884 19.3605C98.5785 19.3605 99.4942 20.2762 99.4942 21.4099V31.7006C99.4942 32.8343 98.5785 33.75 97.4884 33.75C96.3983 33.75 95.4826 32.7907 95.4826 31.7006ZM95.1774 15.4796C95.1774 14.1279 96.2239 13.0814 97.4884 13.0814C98.7965 13.0814 99.8431 14.1715 99.8431 15.4796C99.8431 16.7878 98.7965 17.8343 97.4884 17.8343C96.1803 17.7907 95.1774 16.7442 95.1774 15.4796ZM107.169 26.1192V31.7006C107.169 32.8343 106.253 33.75 105.163 33.75C104.073 33.75 103.157 32.8343 103.157 31.7006V20.9302C103.157 20.0581 103.855 19.3605 104.727 19.3605C105.599 19.3605 106.253 20.1017 106.253 20.9302C107.866 19.4041 109.305 19.186 110.657 19.186C114.669 19.186 116.456 22.1948 116.456 25.6395V31.7006C116.456 32.8343 115.541 33.75 114.451 33.75C113.36 33.75 112.445 32.8343 112.445 31.7006V26.1192C112.445 24.375 112.227 22.8924 109.698 22.8924C107.91 22.8924 107.169 24.375 107.169 26.1192ZM129.451 28.2558C128.971 28.2558 128.666 28.0378 128.404 27.7326L123.738 22.6744V31.7006C123.738 32.8343 122.823 33.75 121.733 33.75C120.642 33.75 119.727 32.8343 119.727 31.7006V13.8227C119.858 13.5174 120.163 13.2994 120.468 13.2994C120.817 13.2994 121.122 13.6047 121.34 13.8227L128.797 22.1948C129.015 22.4564 129.276 22.5872 129.451 22.5872C129.581 22.5872 129.887 22.4564 130.105 22.1948L137.561 13.8227C137.779 13.6047 138.041 13.2994 138.433 13.2994C138.782 13.2994 139.087 13.5174 139.174 13.8227V31.7006C139.174 32.8343 138.302 33.75 137.169 33.75C136.079 33.75 135.163 32.8343 135.163 31.7006V22.6744L130.497 27.7326C130.148 28.0378 129.843 28.2558 129.451 28.2558ZM148.724 30.3488C150.512 30.3488 152.038 28.7355 152.038 26.5552C152.038 24.375 150.468 22.936 148.724 22.936C146.98 22.936 145.541 24.4186 145.541 26.5552C145.541 28.6482 146.936 30.3488 148.724 30.3488ZM152.997 32.1802L152.91 31.7006C152.125 33.2267 149.64 33.9244 148.07 33.9244C144.32 33.9244 141.529 30.5233 141.529 26.468C141.529 22.4564 144.363 19.1424 148.288 19.1424C148.942 19.1424 151.209 19.3169 152.954 21.3663L153.041 20.8866C153.041 20.0145 153.695 19.3169 154.567 19.3169C155.439 19.3169 156.137 20.0581 156.137 20.8866V32.1366C156.137 33.0087 155.439 33.7064 154.567 33.7064C153.651 33.75 152.997 33.0087 152.997 32.1802ZM167.169 22.8924H166.733C164.204 23.0233 163.724 24.4622 163.724 26.1192V31.7006C163.724 32.8343 162.808 33.75 161.718 33.75C160.628 33.75 159.712 32.8343 159.712 31.7006V20.9302C159.712 20.0581 160.41 19.3605 161.282 19.3605C162.154 19.3605 162.808 20.1017 162.808 20.9302C164.291 19.5349 165.512 19.2296 166.733 19.186H167.125C168.084 19.186 168.956 20.0145 168.956 21.0611C169 22.0204 168.128 22.8924 167.169 22.8924ZM182.648 30.7413C182.823 31.0465 182.954 31.3517 182.954 31.7006C182.954 32.7471 181.994 33.7064 180.948 33.7064C180.25 33.7064 179.64 33.1831 179.16 32.5727L174.538 27.2093V31.657C174.538 32.7907 173.622 33.7064 172.532 33.7064C171.442 33.7064 170.526 32.7907 170.526 31.657V15.3052C170.526 14.1715 171.398 13.2558 172.532 13.2558C173.666 13.2558 174.538 14.1715 174.538 15.3052V25.5087L179.16 20.407C179.64 19.8837 180.206 19.3169 180.904 19.3169C181.907 19.3169 182.823 20.2326 182.823 21.2791C182.823 21.5843 182.736 21.9331 182.561 22.1948L178.898 26.2064L182.648 30.7413ZM190.497 22.936C189.407 22.936 187.619 23.5029 187.619 25.2035H193.419C193.375 23.5029 191.544 22.936 190.497 22.936ZM195.73 27.7762H187.619C187.619 30.1744 189.93 30.5669 190.933 30.5669C191.674 30.5669 192.721 30.436 193.549 30.0436C193.811 29.8692 194.204 29.7384 194.596 29.7384C195.468 29.7384 196.209 30.4796 196.209 31.3953C196.209 32.0058 195.817 32.5291 195.337 32.8343C194.116 33.75 192.503 33.968 190.977 33.968C186.922 33.968 183.564 31.7878 183.564 26.686C183.564 22.6744 185.613 19.186 190.41 19.186C194.291 19.186 197.212 21.7151 197.299 26.2064C197.299 27.0349 196.602 27.7762 195.73 27.7762ZM206.892 33.9244H205.802C202.75 33.9244 200.962 32.5727 200.962 27.8198V22.8924H199.916C198.956 22.8924 198.128 22.0204 198.128 21.0611C198.128 20.0145 199 19.186 199.916 19.186H200.962V15.3924C200.962 14.2587 201.834 13.343 202.968 13.343C204.058 13.343 204.974 14.2587 204.974 15.3924V19.186H206.631C207.59 19.186 208.419 20.0145 208.419 21.0611C208.419 22.0204 207.547 22.8924 206.631 22.8924H204.974V27.0349C204.974 29.782 205.105 30.3488 206.326 30.3488H206.892C207.852 30.3488 208.68 31.1337 208.68 32.1366C208.68 33.0959 207.852 33.9244 206.892 33.9244ZM226.297 14.8256C226.82 15.1308 227.299 15.8721 227.299 16.5262C227.299 17.5727 226.427 18.4448 225.424 18.4448C225.163 18.4448 224.945 18.3576 224.727 18.314C223.549 17.4419 222.067 16.875 220.497 16.875C216.791 16.875 214.262 19.8837 214.262 23.6337C214.262 27.3837 216.834 30.3488 220.497 30.3488C222.329 30.3488 223.985 29.6076 225.206 28.4302C225.512 28.2122 225.904 28.0814 226.297 28.0814C227.299 28.0814 228.084 28.8663 228.084 29.8692C228.084 30.5233 227.692 31.0901 227.212 31.3953C225.424 32.9215 223.026 33.9244 220.541 33.9244C214.872 33.9244 210.25 29.2587 210.25 23.5029C210.25 17.7471 214.872 13.0814 220.541 13.0814C222.634 13.0378 224.683 13.6919 226.297 14.8256ZM236.456 30.3488C238.244 30.3488 239.77 28.7355 239.77 26.5552C239.77 24.375 238.201 22.936 236.456 22.936C234.669 22.936 233.273 24.4186 233.273 26.5552C233.273 28.6482 234.712 30.3488 236.456 30.3488ZM240.73 32.1802L240.642 31.7006C239.858 33.2267 237.372 33.9244 235.802 33.9244C232.052 33.9244 229.262 30.5233 229.262 26.468C229.262 22.4564 232.096 19.1424 236.02 19.1424C236.674 19.1424 238.942 19.3169 240.686 21.3663L240.773 20.8866C240.773 20.0145 241.427 19.3169 242.299 19.3169C243.172 19.3169 243.869 20.0581 243.869 20.8866V32.1366C243.869 33.0087 243.172 33.7064 242.299 33.7064C241.384 33.75 240.73 33.0087 240.73 32.1802ZM254.814 30.3488C256.602 30.3488 257.997 28.6482 257.997 26.5552C257.997 24.375 256.558 22.936 254.814 22.936C253.026 22.936 251.5 24.375 251.5 26.5552C251.5 28.7355 253.026 30.3488 254.814 30.3488ZM251.5 32.7471V37.8488C251.5 38.9826 250.584 39.8983 249.494 39.8983C248.404 39.8983 247.488 38.9826 247.488 37.8488V20.9302C247.488 20.0581 248.186 19.3605 249.058 19.3605C249.93 19.3605 250.584 20.1017 250.584 21.1046C252.067 19.5785 253.898 19.186 255.294 19.186C259.174 19.186 262.052 22.4564 262.052 26.5116C262.052 30.5233 259.305 33.968 255.512 33.968C254.334 33.9244 252.59 33.5756 251.5 32.7471Z" fill="#0F6CBD"/>
</svg>
