<svg xmlns="http://www.w3.org/2000/svg" viewBox="0 0 273.7 20">
  <path fill="#4BC1BE" fill-rule="evenodd"
    d="M116.9 3c-.9-.9-1.9-1.6-3.1-2.1-1.2-.5-2.6-.8-4-.8-1.5 0-2.8.3-4 .8-1.2.5-2.3 1.2-3.2 2.1-.9.9-1.6 2-2.1 3.2-.5 1.2-.7 2.5-.7 3.8 0 1.3.2 2.6.7 3.8.5 1.2 1.1 2.2 2 3l2.8-5.1 2.8 2.8 3.1-7.4-1.3-.6 1.8-1.3 1.8-1.3.3 2.2.3 2.2-1.3-.6-4 9.5-3-2.9-1.9 3.6c.6.5 1.3.8 2 1.1 1.2.5 2.6.8 4 .8 1.5 0 2.8-.3 4-.8 2.4-1 4.3-2.9 5.2-5.3.5-1.2.7-2.5.7-3.8 0-1.3-.2-2.6-.7-3.8-.7-1.2-1.4-2.2-2.2-3.1"
    clip-rule="evenodd"></path>
  <path fill="#ffffff"
    d="M0 19.7h13.6v-3.1H3.4V.3H0zM18.7.3v19.3h3.4V.3zm18 14.9L30.8.3H27l8 19.5h3L46 .3h-3.7zM65.2.3H50.9v19.3h14.5v-3H54.3v-5.2H64v-3h-9.7v-5h10.9zM149 13.7 138.6.3h-3.1v19.3h3.3V5.9l10.7 13.8h2.8V.3H149zm-53.1 2.9-2.2-2.2c-.8.8-1.7 1.4-2.5 1.8-.8.5-1.9.7-3 .7-.9 0-1.8-.2-2.6-.5-.8-.4-1.5-.9-2-1.5-.6-.6-1-1.4-1.3-2.2-.3-.8-.5-1.7-.5-2.7 0-1 .2-1.9.5-2.7s.8-1.6 1.3-2.2c.6-.6 1.2-1.1 2-1.5.8-.4 1.6-.5 2.6-.5 1.1 0 2.1.2 3 .7.9.4 1.7 1 2.5 1.7L95.8 3c-.5-.4-.9-.8-1.5-1.2-.5-.4-1.1-.7-1.7-1-.6-.3-1.3-.5-2-.6-.7-.1-1.5-.2-2.4-.2-1.5 0-2.8.3-4 .8C83 1.3 81.9 2 81 2.9c-.9.9-1.6 2-2.1 3.2-.5 1.2-.7 2.5-.7 3.9s.2 2.7.7 3.9c.5 1.2 1.2 2.3 2.1 3.2.9.9 1.9 1.6 3.1 2.1 1.2.5 2.5.8 3.9.8.9 0 1.7-.1 2.5-.2.7-.2 1.4-.4 2.1-.7.6-.3 1.2-.7 1.8-1.1.5-.4 1-.9 1.5-1.4M125.5.3v19.3h3.4V.3zm48.3 14.4L169.2.4h-3.7l6.7 19.5h2.9l4.9-14 4.8 13.9h2.9L194.4.3h-3.6l-4.6 14.3L181.4.2h-2.9zm33-14.5h-3.1l-8.5 19.5h3.5l2-4.7h9.1l2 4.7h3.6zm1.7 11.8h-6.7l3.3-7.7zm17.3-8.5h6.1V.3h-15.7v3.1h6.1v16.2h3.4V3.5zm26.9 13.1-2.2-2.2c-.8.8-1.7 1.4-2.5 1.8-.8.5-1.9.7-3 .7-.9 0-1.8-.2-2.6-.5-.8-.4-1.5-.9-2-1.5-.6-.6-1-1.4-1.3-2.2-.3-.8-.5-1.7-.5-2.7 0-1 .2-1.9.5-2.7.3-.8.8-1.6 1.3-2.2.6-.6 1.2-1.1 2-1.5.8-.4 1.6-.5 2.6-.5 1.1 0 2.1.2 3 .7.9.4 1.7 1 2.5 1.7l2.2-2.5c-.5-.4-.9-.8-1.5-1.2-.5-.4-1.1-.7-1.7-1-.6-.3-1.3-.5-2-.6-.8-.1-1.6-.2-2.5-.2-1.5 0-2.8.3-4 .8-1.2.5-2.3 1.2-3.1 2.2-.9.9-1.6 2-2.1 3.2-.5 1.2-.7 2.5-.7 3.9s.2 2.7.7 3.9c.5 1.2 1.2 2.3 2.1 3.2.9.9 1.9 1.6 3.1 2.1 1.2.5 2.5.8 3.9.8.9 0 1.7-.1 2.5-.2.7-.2 1.4-.4 2.1-.7.6-.3 1.2-.7 1.8-1.1.4-.5.9-1 1.4-1.5m17.6-5.1v8.1h3.4V.3h-3.4v8h-9.2v-8h-3.4v19.3h3.4v-8.1z"></path>
</svg>
