<svg width="243" height="93" viewBox="0 0 1000 472" fill="none" xmlns="http://www.w3.org/2000/svg">
<g clip-path="url(#clip0_5737_8288)">
<path d="M89.3611 0.050354C92.8099 1.17896 95.8768 2.82781 97.7732 6.11713C99.0319 8.29462 99.506 10.6357 99.5018 13.1363C99.485 40.3235 99.5018 67.5107 99.485 94.6979C99.485 100.563 96.716 105.145 91.6184 106.831C86.0341 108.677 80.3701 108.615 76.0822 103.949C71.4126 98.8641 67.1918 93.3637 62.7991 88.0228C53.5731 76.7997 44.3722 65.5598 35.1504 54.3325C32.9267 51.6221 30.8583 50.9257 28.4501 52.0836C26.4152 53.0612 25.5384 54.6975 25.5426 56.9715C25.5761 69.5497 25.5803 82.1322 25.5509 94.7105C25.5342 101.725 21.1037 106.815 14.3782 107.671C7.85828 108.497 1.45587 103.337 0.881075 96.7705C0.797164 95.7971 0.792969 94.8154 0.792969 93.8378C0.792969 67.6282 0.792969 41.4185 0.792969 15.2089C0.792969 6.27656 2.79425 3.28932 10.942 0.050354H18.0703C21.1246 1.25448 23.8182 2.82781 25.9789 5.49199C39.0271 21.5945 52.1969 37.6006 65.329 53.6402C67.2464 55.9813 69.0882 56.661 71.3077 55.8806C73.7201 55.0331 74.7438 53.3884 74.7438 50.3257C74.7438 37.8943 74.7187 25.4628 74.7606 13.0356C74.7774 7.69885 77.0598 3.66692 81.9308 1.22091C82.8454 0.759403 83.9447 0.776185 84.746 0.0545496H89.3569L89.3611 0.050354Z" fill="#1F6482"/>
<path d="M289.388 0.050354C289.564 0.43215 289.946 0.390194 290.269 0.495083C297.725 2.88655 300.485 11.1896 295.904 17.5794C289.35 26.7173 282.747 35.8175 276.172 44.9428C272.598 49.9061 272.585 54.1898 276.181 59.1867C283.598 69.5078 291.075 79.7869 298.472 90.1247C303.007 96.4642 300.355 104.922 293.189 107.205C287.358 109.063 281.962 107.255 278.463 102.246C274.146 96.0615 269.866 89.852 265.524 83.6846C260.745 76.8962 251.972 76.9465 247.269 83.7811C242.797 90.28 238.454 96.8754 233.877 103.303C229.925 108.85 220.636 109.391 215.861 104.541C211.997 100.618 211.561 94.8783 214.938 90.1793C221.131 81.5574 227.411 72.9985 233.654 64.4144C234.762 62.8914 235.878 61.3684 236.977 59.837C240.334 55.1674 240.372 50.7494 237.061 46.105C230.453 36.8328 223.837 27.569 217.208 18.3136C211.951 10.9798 214.342 3.36065 222.876 0.348238C222.981 0.310478 223.048 0.151047 223.132 0.050354C225.087 0.050354 227.046 0.050354 229.002 0.050354C232.899 1.17057 235.459 3.83474 237.657 7.12406C240.988 12.1126 244.55 16.9501 248.045 21.8295C252.992 28.7312 261.555 28.6766 266.405 21.733C269.803 16.8703 273.302 12.079 276.546 7.11567C278.719 3.79279 281.295 1.16637 285.193 0.050354H289.388Z" fill="#19748E"/>
<path d="M161.487 20.1177C158.693 20.1387 155.903 20.1555 153.109 20.189C148.468 20.2478 144.655 23.3902 143.79 27.9802C143.308 30.5353 143.329 33.1323 143.811 35.6874C144.655 40.1515 148.46 43.2981 153.012 43.3149C163.002 43.3443 172.991 43.3065 182.981 43.3401C188.666 43.3611 192.874 46.8895 193.373 51.9452C193.973 58.0413 189.681 62.862 183.48 62.8956C173.629 62.9501 163.782 62.9082 153.931 62.9166C147.474 62.9208 143.547 66.8856 143.534 73.4013C143.534 74.7984 143.522 76.1955 143.534 77.5926C143.597 83.4622 147.73 87.6284 153.583 87.6368C166.438 87.6619 179.289 87.6368 192.144 87.6577C196.403 87.6661 199.591 89.5919 201.24 93.5147C202.914 97.5047 202.364 101.331 199.419 104.637C197.435 106.861 194.821 107.775 191.917 107.78C170.889 107.805 149.861 107.843 128.837 107.767C122.657 107.746 118.718 103.546 118.718 97.3537C118.709 68.4924 118.718 39.6354 118.718 10.7742C118.718 5.34095 120.748 2.39986 125.821 0.427954C125.993 0.360825 126.119 0.176221 126.265 0.050354C135.491 0.050354 144.717 0.050354 153.943 0.050354C153.923 0.746816 154.019 1.40132 154.309 2.06422C155.349 4.47247 156.394 6.88072 157.308 9.33931C158.655 12.9517 160.728 16.2788 161.491 20.1177H161.487Z" fill="#1D6B87"/>
<path d="M387.094 0.050354C387.228 0.46991 387.631 0.419563 387.942 0.532843C393.035 2.43343 395.846 7.05693 394.94 12.0245C394.025 17.0465 389.888 20.4491 384.48 20.5205C380.008 20.5792 375.535 20.5205 371.063 20.5373C364.942 20.554 360.683 24.8125 360.679 30.98C360.666 52.8598 360.679 74.7396 360.679 96.6195C360.679 103.504 356.5 107.729 349.628 107.796C348.369 107.809 347.11 107.847 345.856 107.775C339.684 107.419 335.686 103.185 335.682 97.0013C335.673 75.4025 335.682 53.7996 335.678 32.2009C335.678 30.594 335.678 28.9955 335.162 27.4347C333.819 23.3651 330.148 20.596 325.873 20.5582C321.4 20.5205 316.928 20.5582 312.455 20.5456C306.451 20.5289 302.256 17.1892 301.412 11.7937C300.586 6.5157 304.064 1.35098 309.216 0.323065C309.33 0.302087 309.418 0.146852 309.518 0.0545496C335.38 0.0545496 361.237 0.0545496 387.098 0.0545496L387.094 0.050354Z" fill="#1B7B94"/>
<path d="M161.487 20.1177C160.724 16.283 158.651 12.9517 157.304 9.33931C156.39 6.88491 155.345 4.47247 154.304 2.06422C154.019 1.40132 153.923 0.746816 153.939 0.050354H192.098C195.996 1.28385 198.861 3.52008 199.843 7.72822C201.295 13.9544 197.057 20.0212 190.793 20.1219C181.026 20.2813 171.254 20.1345 161.487 20.1177Z" fill="#1B708B"/>
<path d="M378.708 471.962C376.421 471.01 373.988 470.464 371.882 469.017C366.121 465.052 363.503 457.865 365.354 450.733C366.986 444.431 372.885 439.505 379.509 438.796C386.873 438.012 393.103 439.979 397.273 446.403C403.059 455.31 398.914 467.267 388.937 470.88C387.909 471.253 386.873 471.601 385.84 471.962H378.712H378.708ZM371.043 455.306C371.055 461.998 375.658 466.567 382.383 466.558C388.928 466.55 393.506 461.922 393.506 455.318C393.506 448.748 388.597 443.806 382.186 443.919C375.742 444.032 371.034 448.845 371.043 455.306Z" fill="#719BA8"/>
<path d="M544.352 471.962C541.738 471.031 539.02 470.28 537.073 468.115C534.673 465.451 533.586 462.229 533.528 458.717C533.431 452.776 533.553 446.835 533.465 440.894C533.439 439.254 534.052 438.88 535.546 438.918C540.53 439.044 539.632 438.385 539.678 442.984C539.733 447.947 539.661 452.91 539.699 457.874C539.75 464.247 543.433 467.393 549.706 466.491C553.263 465.979 555.621 463.236 555.722 459.036C555.861 453.237 555.865 447.431 555.747 441.633C555.705 439.594 556.129 438.767 558.369 438.889C561.961 439.082 561.969 438.935 561.965 442.614C561.965 447.926 562.057 453.242 561.919 458.549C561.797 463.152 560.27 467.158 556.246 469.877C554.656 470.951 552.773 471.224 551.061 471.962H544.352Z" fill="#719BA8"/>
<path d="M740.603 471.962C738.3 471.039 735.812 470.67 733.601 469.432C732.065 468.572 731.65 467.658 732.632 466.156C732.934 465.694 733.165 465.165 733.341 464.641C733.723 463.496 734.243 463.592 735.187 464.15C739.156 466.504 743.406 467.599 748.021 466.525C749.901 466.088 751.424 465.216 751.617 463.017C751.81 460.819 750.333 459.837 748.613 459.283C745.495 458.281 742.294 457.551 739.177 456.552C734.583 455.079 732.606 452.57 732.586 448.497C732.565 444.167 734.801 441.117 739.194 439.631C744.539 437.823 749.771 438.364 754.872 440.6C755.527 440.886 756.492 441.2 756.11 442.224C755.632 443.504 755.472 444.985 754.344 445.912C753.958 446.231 753.446 445.69 753.018 445.492C750.106 444.133 747.06 443.592 743.859 443.827C742.642 443.915 741.505 444.204 740.482 444.83C737.926 446.382 737.922 449.441 740.511 450.922C742.592 452.113 744.979 452.457 747.266 453.065C749.825 453.745 752.43 454.282 754.621 455.931C759.391 459.522 758.715 466.831 753.341 470.007C751.835 470.897 750.123 471.228 748.571 471.971H740.603V471.962Z" fill="#719BA8"/>
<path d="M143.697 348.214C143.697 361.774 143.697 375.334 143.697 388.894C143.697 396.711 138.524 401.695 130.674 401.892C125.392 402.027 121.537 399.979 118.243 395.914C105.577 380.285 92.755 364.783 79.988 349.234C79.6775 348.856 79.3628 348.483 79.044 348.109C77.114 345.869 75.398 345.256 73.1954 346.02C70.8291 346.842 69.6669 348.613 69.6627 351.592C69.6459 364.241 69.6627 376.895 69.6543 389.545C69.6501 395.767 65.3413 400.764 59.1612 401.754C53.3 402.694 47.464 399.056 45.6012 393.287C45.1019 391.747 44.9551 390.157 44.9551 388.538C44.9677 361.766 45.1019 334.994 44.8796 308.226C44.8124 300.368 49.8345 292.808 61.1835 294.268C64.9301 294.75 67.7537 296.655 70.12 299.554C83.2228 315.64 96.3842 331.68 109.533 347.728C111.543 350.178 113.422 350.837 115.692 349.968C117.958 349.1 119.057 347.354 119.061 344.505C119.07 331.923 119.049 319.341 119.074 306.758C119.086 300.54 123.143 295.539 128.963 294.469C136.85 293.022 143.677 298.648 143.693 306.687C143.723 320.528 143.702 334.365 143.702 348.206H143.71L143.697 348.214Z" fill="#215E7D"/>
<path d="M315.384 202.087C315.384 215.37 315.384 228.654 315.384 241.937C315.384 251.175 309.426 256.558 300.2 255.736C296.29 255.388 293.172 253.714 290.693 250.684C277.594 234.683 264.471 218.702 251.351 202.712C250.29 201.416 249.295 200.027 247.479 199.708C244.026 199.104 241.433 201.374 241.429 205.091C241.412 217.607 241.441 230.118 241.412 242.633C241.399 248.922 237.959 253.663 232.37 255.253C224.537 257.481 216.767 251.691 216.759 243.56C216.742 215.807 216.746 188.049 216.763 160.295C216.767 153.369 222.066 148.363 228.993 148.049C234.829 147.784 239.05 149.903 242.7 154.451C255.337 170.197 268.217 185.75 280.997 201.378C283.028 203.858 284.97 204.634 287.324 203.841C289.61 203.073 290.693 201.236 290.697 197.959C290.71 185.586 290.697 173.209 290.705 160.837C290.705 153.583 295.916 148.149 302.881 148.124C310.051 148.099 315.358 153.444 315.367 160.765C315.384 174.539 315.371 188.309 315.375 202.083L315.384 202.087Z" fill="#1B708B"/>
<path d="M999.398 201.974C999.398 215.463 999.406 228.956 999.398 242.444C999.394 250.601 994.363 255.535 986.236 255.702C981.151 255.807 977.35 253.932 974.132 249.959C961.34 234.167 948.376 218.509 935.474 202.801C935.118 202.368 934.757 201.94 934.375 201.534C932.613 199.654 930.616 199.104 928.535 200.002C926.366 200.938 925.46 202.637 925.464 204.995C925.497 217.506 925.489 230.017 925.476 242.528C925.472 247.596 923.509 251.675 919.003 254.184C910.964 258.664 900.949 253.038 900.811 243.821C900.618 230.961 900.739 218.102 900.735 205.238C900.731 190.491 900.714 175.743 900.744 160.992C900.756 154.497 904.243 149.655 910.293 148.46C916.263 147.281 921.646 148.195 925.888 153.457C938.902 169.61 952.127 185.595 965.275 201.643C967.201 203.992 969.173 204.68 971.472 203.812C973.662 202.985 974.657 201.261 974.657 198.265C974.657 185.964 974.644 173.662 974.665 161.361C974.678 155.034 978.076 150.176 983.534 148.577C991.54 146.232 999.327 151.988 999.377 160.451C999.457 174.292 999.398 188.129 999.402 201.97L999.398 201.974Z" fill="#0CA4B4"/>
<path d="M829.6 146.291C845.044 146.303 858.952 150.713 870.494 161.227C884.151 173.671 889.475 189.375 887.952 207.638C885.795 233.441 865.371 253.357 839.443 256.827C823.164 259.004 807.796 256.571 794.047 247.177C779.857 237.481 772.146 223.866 770.741 206.723C769.591 192.681 772.826 179.792 781.422 168.514C790.434 156.691 802.606 149.991 817.097 147.298C821.226 146.53 825.4 146.253 829.604 146.295L829.6 146.291ZM829.382 236.214C843.529 236.214 855.281 228.641 860.324 215.949C864.008 206.677 864.029 197.229 860.362 187.944C856.779 178.869 850.259 172.668 841.012 169.446C835.86 167.65 830.552 167.151 825.128 167.789C816.661 168.787 809.478 172.286 803.911 178.802C798.058 185.653 795.805 193.713 795.864 202.654C795.989 221.928 810.158 236.21 829.382 236.21V236.214Z" fill="#149BAC"/>
<path d="M431.542 201.823C431.542 187.701 431.542 173.583 431.542 159.46C431.542 152.722 436.115 148.128 442.828 148.128C455.407 148.128 467.989 147.994 480.567 148.17C491.757 148.33 502.33 150.872 511.35 157.925C519.628 164.399 523.899 173.058 524.646 183.505C525.279 192.375 523.865 200.757 518.776 208.263C516.88 211.057 514.577 213.47 511.979 215.631C506.752 219.973 505.984 225.65 509.806 231.217C511.43 233.575 513.104 235.899 514.707 238.27C518.218 243.468 517.094 250.219 512.16 253.718C507.125 257.284 500.307 256.067 496.636 250.848C492.017 244.278 487.444 237.674 482.913 231.041C480.467 227.458 477.161 225.675 472.831 225.729C471.085 225.754 469.336 225.712 467.59 225.738C461.268 225.83 456.661 230.445 456.535 236.747C456.472 239.889 456.77 243.04 456.351 246.17C455.671 251.242 451.928 254.926 446.852 255.593C444.549 255.895 442.241 255.904 439.971 255.43C435.15 254.423 431.551 249.971 431.542 245.025C431.525 230.626 431.534 216.222 431.538 201.823H431.542ZM456.544 186.925C456.544 189.719 456.481 192.513 456.556 195.307C456.695 200.493 460.613 205.255 465.547 205.561C471.874 205.951 478.26 206.279 484.549 205.087C493.59 203.375 499.271 196.965 499.481 188.49C499.741 178.013 495.18 171.72 485.371 169.421C478.705 167.86 471.883 168.25 465.153 168.796C460.37 169.182 456.695 173.948 456.556 178.966C456.481 181.617 456.544 184.273 456.544 186.929V186.925Z" fill="#188097"/>
<path d="M573.218 347.908C573.218 333.719 573.218 319.534 573.218 305.344C573.218 297.926 577.006 294.167 584.466 294.167C604.378 294.167 624.29 294.146 644.202 294.184C652.421 294.201 657.238 302.273 653.265 309.38C651.314 312.871 648.15 314.318 644.19 314.31C632.312 314.281 620.435 314.31 608.557 314.302C607.504 314.302 606.476 314.381 605.444 314.604C603.602 315.002 602.134 316.005 600.753 317.222C596.986 320.536 596.679 331.898 601.584 335.376C603.547 336.769 605.603 337.495 608.007 337.486C617.72 337.453 627.433 337.491 637.141 337.465C641.484 337.453 644.962 339.022 646.955 342.999C650.215 349.507 645.482 356.962 638.06 357.008C628.138 357.071 618.219 357.021 608.297 357.029C602.125 357.029 598.06 361.082 598.026 367.25C598.018 368.928 597.98 370.606 598.035 372.28C598.219 377.667 602.385 381.754 607.781 381.766C620.774 381.796 633.772 381.754 646.766 381.791C652.04 381.808 655.992 385.53 656.529 390.829C657.058 396.044 653.802 400.587 648.729 401.653C647.92 401.825 647.068 401.842 646.237 401.842C625.348 401.855 604.458 401.855 583.564 401.85C577.246 401.85 573.23 397.886 573.218 391.521C573.188 376.983 573.209 362.446 573.209 347.908H573.218Z" fill="#18859B"/>
<path d="M158.966 168.108C157.43 168.137 155.895 168.175 154.359 168.196C148.796 168.275 144.768 172.29 144.65 177.892C144.629 178.94 144.642 179.989 144.65 181.038C144.676 187.369 148.619 191.359 154.997 191.384C164.709 191.426 174.426 191.393 184.139 191.401C190.168 191.401 194.54 195.467 194.548 201.064C194.557 206.782 190.197 210.869 184.051 210.873C174.477 210.885 164.902 210.877 155.328 210.885C148.523 210.894 144.667 214.737 144.655 221.517C144.655 222.985 144.634 224.454 144.659 225.922C144.764 231.507 148.783 235.522 154.388 235.534C166.899 235.568 179.406 235.547 191.918 235.555C194.389 235.555 196.789 235.828 198.899 237.309C202.532 239.856 204.055 244.437 202.7 248.847C201.408 253.059 197.825 255.686 193.021 255.744C186.942 255.816 180.862 255.769 174.779 255.774C160.174 255.774 145.565 255.774 130.96 255.774C123.614 255.774 119.72 251.889 119.716 244.521C119.708 216.067 119.708 187.613 119.716 159.163C119.716 153.427 122.372 149.593 127.13 148.38C127.6 148.258 128.091 148.153 128.569 148.153C136.184 148.162 143.803 148.187 151.418 148.208C152.198 151.9 154.158 155.139 155.404 158.651C156.536 161.831 158.441 164.718 158.961 168.124L158.966 168.108Z" fill="#216784"/>
<path d="M285.612 314.218C276.755 316.244 272.963 327.74 278.996 334.294C281.001 336.475 283.468 337.499 286.447 337.491C296.302 337.457 306.154 337.449 316.009 337.503C323.07 337.541 327.773 343.264 326.141 349.708C325.034 354.076 321.161 357.004 316.349 357.012C306.493 357.038 296.642 357.017 286.787 357.025C281.031 357.025 277.066 360.503 276.546 366.192C276.332 368.546 276.277 370.942 276.642 373.304C277.435 378.443 281.266 381.758 286.468 381.766C299.327 381.787 312.187 381.766 325.046 381.783C329.707 381.787 333.454 384.544 334.641 388.764C335.95 393.413 334.247 398.066 330.333 400.462C328.814 401.393 327.148 401.842 325.361 401.842C304.047 401.842 282.73 401.859 261.416 401.842C256.268 401.842 252.216 398.104 251.716 392.985C251.637 392.154 251.649 391.311 251.649 390.472C251.649 362.227 251.649 333.987 251.649 305.743C251.649 297.901 255.375 294.15 263.183 294.167C268.142 294.176 273.101 294.23 278.06 294.259C278.123 294.738 278.085 295.258 278.262 295.69C279.806 299.412 281.471 303.083 282.931 306.834C283.879 309.271 285.411 311.507 285.616 314.218H285.612Z" fill="#1D6B87"/>
<path d="M385.4 210.709C380.382 211.078 375.356 210.822 370.334 210.86C363.272 210.915 359.425 214.695 359.421 221.706C359.421 223.032 359.404 224.362 359.421 225.687C359.496 231.46 363.583 235.585 369.356 235.601C381.792 235.635 394.223 235.61 406.659 235.614C408.123 235.614 409.596 235.601 411.018 236.034C415.771 237.464 418.398 241.752 417.831 247.143C417.353 251.717 413.829 255.144 409.126 255.606C408.501 255.669 407.871 255.686 407.246 255.69C386.78 255.719 366.314 255.748 345.844 255.769C338.405 255.778 334.608 251.993 334.608 244.58C334.608 216 334.608 187.42 334.613 158.844C334.613 153.268 337.277 149.534 342.06 148.346C342.53 148.229 343.02 148.137 343.503 148.137C352.163 148.145 360.822 148.17 369.486 148.195C370.262 152.039 372.385 155.357 373.665 159.003C374.735 162.053 376.547 164.831 377.03 168.103C374.386 168.133 371.743 168.158 369.096 168.196C363.705 168.28 359.568 172.29 359.446 177.686C359.4 179.83 359.186 181.995 359.765 184.13C360.902 188.313 364.338 191.17 368.68 191.338C371.878 191.464 375.083 191.443 378.284 191.489C378.318 192.177 378.255 192.861 378.553 193.537C379.866 196.524 381.242 199.49 382.4 202.54C383.428 205.251 385.06 207.743 385.404 210.705L385.4 210.709Z" fill="#177690"/>
<path d="M553.6 189.66C557.275 181.303 560.946 172.941 564.63 164.587C565.951 161.592 567.319 158.617 568.632 155.613C570.814 150.608 574.54 148.015 580.074 148.116C583.006 148.17 585.939 148.141 588.872 148.124C594.024 148.095 597.678 150.436 599.776 155.11C608.566 174.703 617.326 194.305 626.095 213.91C629.795 222.184 633.34 230.533 637.225 238.719C640.59 245.818 636.911 252.619 631.503 254.863C625.033 257.544 618.06 254.616 615.308 247.97C614.267 245.457 613.269 242.931 612.224 240.418C610.059 235.207 606.359 232.719 600.72 232.711C592.06 232.698 583.401 232.711 574.741 232.698C573.982 232.698 573.222 232.585 572.463 232.522C572.45 232.383 572.463 232.232 572.412 232.106C566.66 218.316 560.904 204.529 555.156 190.738C554.858 190.021 554.456 189.543 553.604 189.66H553.6ZM584.156 213.625C590.458 213.621 595.517 208.59 595.513 202.343C595.509 196.088 590.432 190.982 584.206 190.977C577.951 190.969 572.887 196.021 572.87 202.284C572.853 208.569 577.892 213.633 584.156 213.625Z" fill="#17899E"/>
<path d="M473.061 294.629C476.103 295.233 478.314 297.058 480.219 299.391C493.04 315.074 505.875 330.744 518.705 346.419C519.237 347.069 519.758 347.723 520.307 348.353C521.763 350.018 523.513 350.774 525.72 350.031C528.006 349.263 529.24 347.707 529.261 345.168C529.324 337.902 529.307 330.631 529.311 323.364C529.315 317.771 529.298 312.183 529.315 306.59C529.34 299.747 534.698 294.289 541.47 294.176C548.245 294.067 553.96 299.588 553.972 306.469C554.01 334.147 554.01 361.825 553.977 389.503C553.968 396.581 548.514 401.67 541.386 401.901C535.982 402.077 531.908 400.189 528.51 395.956C519.149 384.3 509.588 372.809 500.114 361.246C499.854 360.927 499.644 360.566 499.413 360.222C499.527 359.375 499.38 358.594 499.04 357.789C494.849 347.795 490.703 337.784 486.525 327.786C482.828 318.942 479.052 310.127 475.423 301.254C474.538 299.093 473.145 297.087 473.053 294.633L473.061 294.629Z" fill="#188097"/>
<path d="M197.842 294.167C209.862 294.167 221.882 294.138 233.902 294.176C241.396 294.201 246.359 300.868 244.06 307.719C242.68 311.839 238.937 314.549 234.293 314.629C229.82 314.704 225.348 314.65 220.875 314.65C214.477 314.654 210.21 318.883 210.206 325.256C210.202 347.065 210.21 368.877 210.202 390.686C210.202 396.597 207.181 400.713 201.924 401.645C199.117 402.14 196.189 402.148 193.378 401.624C188.175 400.655 185.146 396.505 185.138 390.589C185.121 378.708 185.133 366.822 185.133 354.94C185.133 345.084 185.133 335.225 185.133 325.37C185.133 318.778 181.005 314.662 174.422 314.654C169.878 314.654 165.335 314.738 160.795 314.612C155.739 314.474 151.72 310.945 150.969 306.217C150.168 301.178 152.769 296.63 157.472 294.851C158.928 294.301 160.443 294.146 161.991 294.146C173.94 294.159 185.889 294.155 197.842 294.155V294.163V294.167Z" fill="#216784"/>
<path d="M679.051 148.124C691.138 148.124 703.226 148.124 715.317 148.124C721.321 148.124 725.831 152.299 725.928 157.925C726.029 163.899 721.762 168.342 715.59 168.498C711.122 168.611 706.645 168.506 702.173 168.523C695.758 168.548 691.549 172.748 691.549 179.167C691.537 201.043 691.549 222.922 691.549 244.798C691.549 251.44 687.392 255.669 680.758 255.774C679.571 255.79 678.384 255.807 677.196 255.774C670.685 255.564 666.544 251.318 666.54 244.806C666.527 230.756 666.536 216.709 666.536 202.658C666.536 194.967 666.544 187.281 666.536 179.591C666.527 172.504 662.575 168.573 655.539 168.514C650.722 168.477 645.889 168.863 641.094 168.313C635.694 167.692 631.805 162.943 632.161 157.711C632.543 152.164 636.831 148.12 642.378 148.116C654.608 148.107 666.833 148.116 679.063 148.116L679.051 148.124Z" fill="#2191A5"/>
<path d="M370.744 294.255C383.23 294.381 395.766 293.236 408.177 295.384C417.248 296.953 425.437 300.532 431.97 307.215C439.866 315.292 442.467 325.256 441.813 336.249C441.179 346.93 436.761 355.666 428.341 362.395C424.074 365.806 423.314 371.873 426.377 376.576C428.051 379.152 429.881 381.624 431.622 384.158C435.356 389.583 434.286 396.367 429.146 399.895C423.931 403.478 417.315 402.157 413.543 396.744C412.23 394.861 410.988 392.922 409.712 391.009C410.51 390.334 410.048 389.637 409.754 388.932C406.243 380.516 402.693 372.116 399.253 363.671C397.684 359.815 395.733 356.102 394.642 352.057C395.267 352.011 395.892 351.969 396.517 351.919C401.72 351.478 406.767 350.534 410.858 346.943C416.82 341.703 417.504 334.893 415.897 327.774C414.315 320.759 409.171 317.18 402.471 315.531C397.18 314.23 391.789 314.809 386.44 314.641C383.897 314.562 381.451 314.822 379.123 315.896C377.23 311.277 375.275 306.687 373.48 302.034C372.489 299.475 370.832 297.133 370.744 294.255Z" fill="#177690"/>
<path d="M394.642 352.062C395.733 356.11 397.679 359.819 399.253 363.675C402.693 372.121 406.247 380.52 409.754 388.936C410.048 389.641 410.509 390.338 409.712 391.013C406.465 386.394 403.188 381.8 399.978 377.151C397.57 373.665 394.365 371.835 390.081 371.949C388.126 372.003 386.167 371.915 384.216 371.965C378.229 372.125 373.698 376.723 373.622 382.706C373.588 385.219 373.622 387.736 373.614 390.254C373.593 397.168 368.936 401.825 362.059 401.855C359.47 401.867 356.878 401.972 354.507 400.642C350.567 398.431 348.57 395.066 348.57 390.543C348.57 362.244 348.57 333.945 348.575 305.646C348.575 299.265 352.862 294.536 359.223 294.213C363.049 294.016 366.901 294.226 370.74 294.251C370.832 297.129 372.489 299.47 373.475 302.03C375.271 306.683 377.23 311.277 379.118 315.892C375.111 318.56 373.358 322.256 373.567 327.098C373.765 331.629 373.601 336.177 373.614 340.717C373.63 347.249 378.283 351.932 384.799 351.986C388.08 352.016 391.361 352.032 394.638 352.057L394.642 352.062Z" fill="#19748E"/>
<path d="M76.011 255.707C58.2974 259.432 41.2131 258.144 25.6685 248.171C8.44577 237.124 0.503583 220.871 0.847618 200.581C1.1497 182.712 8.39542 168.221 22.8365 157.526C26.7636 154.619 31.0095 152.219 35.6833 150.675C37.4245 154.988 39.2202 159.28 40.89 163.618C41.8802 166.194 43.4619 168.565 43.7262 171.405C37.0595 174.77 32.1255 179.889 29.2012 186.706C24.9007 196.734 24.7035 207.026 29.2515 216.948C35.0917 229.69 45.7149 235.505 59.4176 236.214C62.2831 236.361 65.1235 235.996 67.9723 235.811C68.3247 236.789 68.6394 237.783 69.0338 238.744C71.3497 244.404 73.6825 250.051 76.0068 255.707H76.011Z" fill="#215E7D"/>
<path d="M717.285 323.905C717.314 327.329 717.369 330.752 717.369 334.176C717.377 352.909 717.381 371.638 717.369 390.371C717.364 395.951 714.65 400.394 709.792 401.343C704.698 402.337 699.328 403.033 695.094 398.595C693.295 396.707 692.376 394.487 692.376 391.852C692.388 369.834 692.317 347.82 692.426 325.802C692.46 319.248 687.509 314.276 681.253 314.612C677.003 314.839 672.732 314.7 668.47 314.641C662.608 314.562 658.127 310.32 657.997 304.828C657.863 299.03 661.92 294.335 667.853 294.247C680.074 294.062 692.304 294.238 704.53 294.264C704.572 294.952 704.518 295.631 704.803 296.311C708.474 305.008 712.116 313.718 715.783 322.42C716.068 323.091 716.253 323.951 717.285 323.901V323.905Z" fill="#17899E"/>
<path d="M473.062 294.629C473.15 297.083 474.547 299.089 475.432 301.249C479.061 310.123 482.837 318.938 486.534 327.782C490.712 337.78 494.862 347.791 499.049 357.784C499.389 358.59 499.536 359.37 499.422 360.218C495.818 356.438 492.743 352.217 489.395 348.223C487.486 345.945 485.791 345.265 483.03 346.15C480.865 346.842 480.043 348.13 480.039 351.164C480.018 363.461 480.014 375.758 480.039 388.055C480.052 393.358 478.184 397.713 473.46 400.352C465.342 404.888 455.394 398.989 455.386 389.7C455.361 361.892 455.478 334.079 455.302 306.271C455.264 300.129 461.587 293.643 467.226 294.499C469.147 294.792 471.123 294.251 473.062 294.629Z" fill="#1B7B94"/>
<path d="M0.788701 347.921C0.788701 334.361 0.767723 320.801 0.801288 307.241C0.81807 300.767 4.69476 295.904 10.5056 294.499C17.0213 292.921 25.983 297.314 25.9159 308.117C25.7816 330.345 25.8739 352.569 25.8739 374.797C25.8739 379.341 25.9201 383.885 25.8613 388.429C25.769 395.456 21.9972 400.298 15.6619 401.632C8.48335 403.143 1.39706 397.814 0.860026 390.485C0.797092 389.65 0.788701 388.811 0.788701 387.971C0.784506 374.621 0.788701 361.271 0.788701 347.921Z" fill="#215E7D"/>
<path d="M757.956 201.949C757.956 215.509 757.956 229.069 757.956 242.633C757.956 250.244 752.678 255.736 745.437 255.673C738.283 255.61 733.06 250.118 733.06 242.633C733.056 215.303 733.047 187.969 733.068 160.639C733.073 154.287 737.793 148.904 743.876 148.179C750.228 147.419 755.922 151.216 757.612 157.321C757.952 158.55 757.961 159.805 757.961 161.063C757.961 174.695 757.961 188.326 757.961 201.953L757.956 201.949Z" fill="#2191A5"/>
<path d="M76.0104 255.707C73.6818 250.055 71.3491 244.404 69.0374 238.744C68.643 237.783 68.3283 236.789 67.9759 235.811C69.5241 235.408 71.089 235.06 72.6162 234.595C75.7461 233.646 77.8984 231.553 79.2368 228.616C80.2395 226.409 79.606 225.377 77.16 225.142C71.6973 224.626 67.8374 221.878 66.004 216.696C63.2349 208.867 68.9786 200.501 77.3655 200.183C82.4589 199.99 87.5691 200.048 92.6667 200.17C97.7014 200.287 102.354 204.16 102.744 209.148C103.328 216.591 103.819 224.156 102.489 231.511C100.29 243.648 92.7465 251.251 80.8982 254.582C79.2913 255.035 77.6383 255.333 76.0104 255.702V255.707Z" fill="#1F6482"/>
<path d="M553.6 189.66C554.447 189.543 554.85 190.021 555.152 190.738C560.9 204.529 566.656 218.316 572.408 232.106C572.459 232.228 572.442 232.383 572.459 232.522C570.663 232.899 568.842 232.681 567.038 232.681C561.672 232.681 558.076 235.161 556.075 240.133C554.82 243.258 553.511 246.367 552.047 249.396C549.962 253.709 545.108 256.302 539.813 255.581C535.911 255.048 532.043 251.83 530.738 247.601C529.878 244.815 530.104 242.105 531.283 239.449C535.529 229.891 539.754 220.325 544 210.768C546.916 204.206 549.853 197.648 552.794 191.099C553.021 190.6 553.335 190.138 553.608 189.66H553.6Z" fill="#18859B"/>
<path d="M43.7216 171.405C43.4573 168.565 41.8797 166.194 40.8854 163.618C39.2156 159.28 37.4199 154.988 35.6787 150.675C41.0784 148.237 46.8221 147.088 52.6539 146.563C65.5217 145.41 77.9909 146.937 89.6755 152.848C91.4754 153.759 93.225 154.799 94.899 155.924C99.64 159.112 101.1 165.116 98.4358 170.159C95.8178 175.11 89.8601 177.279 84.6115 175.156C83.7766 174.82 82.9668 174.388 82.2074 173.902C70.141 166.161 57.5501 165.611 44.5062 171.107C44.2502 171.216 43.9859 171.305 43.7216 171.405Z" fill="#1F6482"/>
<path d="M285.613 314.218C285.407 311.507 283.876 309.271 282.928 306.834C281.472 303.079 279.802 299.407 278.258 295.69C278.078 295.258 278.12 294.738 278.057 294.259C285.948 294.226 293.836 294.184 301.728 294.167C308.852 294.15 315.976 294.108 323.1 294.188C328.277 294.247 332.456 297.935 332.964 302.688C333.555 308.21 330.77 312.602 325.798 313.966C325.265 314.113 324.703 314.235 324.157 314.235C311.311 314.239 298.46 314.226 285.613 314.218Z" fill="#1B708B"/>
<path d="M717.285 323.905C716.253 323.956 716.068 323.096 715.783 322.424C712.116 313.723 708.474 305.013 704.803 296.315C704.518 295.636 704.568 294.956 704.53 294.268C713.177 294.234 721.824 294.192 730.467 294.163C734.025 294.15 737.583 294.134 741.141 294.167C747.279 294.226 751.814 298.635 751.772 304.459C751.73 310.224 747.291 314.562 741.262 314.646C737.147 314.704 733.018 314.86 728.919 314.608C723.704 314.289 718.552 316.89 717.289 323.901L717.285 323.905Z" fill="#2191A5"/>
<path d="M158.965 168.108C158.445 164.701 156.54 161.814 155.408 158.634C154.157 155.122 152.198 151.883 151.422 148.191C165.041 148.17 178.655 148.082 192.274 148.158C197.216 148.187 201.097 152.685 201.16 158.009C201.227 163.534 197.338 168.053 191.854 168.133C180.896 168.292 169.933 168.133 158.97 168.103L158.965 168.108Z" fill="#1D6B87"/>
<path d="M377.025 168.103C376.543 164.835 374.734 162.058 373.66 159.003C372.381 155.357 370.258 152.034 369.481 148.195C381.98 148.174 394.479 148.086 406.977 148.158C411.957 148.187 415.914 152.651 415.964 157.908C416.019 163.58 412.117 168.07 406.558 168.149C396.715 168.288 386.872 168.133 377.029 168.103H377.025Z" fill="#1B7B94"/>
<path d="M611.482 451.131C609.665 454.14 607.848 457.148 606.036 460.16C604.744 462.313 603.481 464.486 602.163 466.625C601.073 468.4 598.975 468.379 597.871 466.579C594.737 461.473 591.628 456.351 588.494 451.215C587.685 451.643 588.037 452.268 588.037 452.734C588.008 458.394 587.97 464.054 588.05 469.709C588.071 471.194 587.617 471.597 586.162 471.58C582.214 471.539 582.209 471.606 582.209 467.603C582.209 458.939 582.188 450.28 582.243 441.616C582.247 440.714 581.58 439.119 583.128 439.061C584.764 438.998 586.753 438.024 588.029 440.193C591.528 446.151 595.106 452.067 598.656 457.991C599.08 458.696 599.533 459.38 600.154 460.362C602.251 456.808 604.223 453.477 606.187 450.141C608.134 446.835 610.068 443.521 612.023 440.214C612.682 439.103 616.546 438.356 617.452 439.14C617.893 439.522 617.733 440.051 617.733 440.517C617.741 450.368 617.721 460.215 617.767 470.066C617.771 471.316 617.297 471.547 616.172 471.568C611.918 471.652 611.918 471.69 611.918 467.49V451.261C611.771 451.219 611.629 451.173 611.482 451.131Z" fill="#719BA8"/>
<path d="M38.0833 450.586C38.0833 457.06 38.0245 463.277 38.121 469.491C38.1462 471.165 37.6469 471.618 36.0065 471.58C31.9116 471.492 31.9074 471.572 31.9074 467.561C31.9074 458.755 31.9494 449.948 31.8696 441.146C31.8529 439.459 32.2472 438.893 34.0346 438.872C36.0316 438.847 37.349 439.409 38.6119 441.02C43.1347 446.789 47.8253 452.424 52.4572 458.109C53.0194 458.797 53.4852 459.585 54.3159 460.072C54.941 459.569 54.6515 458.897 54.6515 458.331C54.6767 452.528 54.7144 446.73 54.6347 440.928C54.6138 439.342 55.1466 438.876 56.6864 438.918C61.6371 439.056 60.7477 438.389 60.7728 443.03C60.8232 451.836 60.7519 460.643 60.819 469.445C60.8316 471.022 60.4875 471.53 58.7799 471.631C56.485 471.765 55.0669 470.913 53.7117 469.189C49.3525 463.647 44.8759 458.197 40.4118 452.738C39.8202 452.012 39.3545 451.11 38.0749 450.59L38.0833 450.586Z" fill="#719BA8"/>
<path d="M216.058 450.351C216.058 456.85 216.016 463.139 216.088 469.428C216.104 470.981 215.815 471.635 214.057 471.589C210.08 471.48 210.08 471.58 210.08 467.637C210.08 459.111 210.054 450.582 210.113 442.056C210.121 441.045 209.442 439.719 210.709 439.027C211.997 438.322 215.11 439.124 216.041 440.261C219.532 444.532 223.01 448.811 226.497 453.086C228.473 455.507 230.453 457.924 232.513 460.441C233.008 459.77 232.819 459.136 232.819 458.562C232.836 452.621 232.866 446.68 232.803 440.739C232.79 439.371 233.226 438.885 234.598 438.914C239.876 439.031 238.903 438.31 238.932 443.193C238.987 451.928 238.92 460.664 238.974 469.403C238.983 470.934 238.735 471.589 236.952 471.606C234.754 471.631 233.281 471.064 231.863 469.227C227.344 463.366 222.582 457.697 217.9 451.966C217.434 451.396 217.086 450.674 216.054 450.347L216.058 450.351Z" fill="#719BA8"/>
<path d="M691.122 449.797C691.122 456.812 691.059 463.16 691.164 469.508C691.189 471.186 690.694 471.622 689.062 471.585C685.126 471.488 685.126 471.572 685.126 467.578C685.126 458.91 685.172 450.242 685.088 441.578C685.072 439.749 685.449 439.073 687.471 439.031C689.565 438.989 690.782 439.791 691.998 441.322C696.958 447.548 702.013 453.699 707.04 459.875C707.199 460.068 707.409 460.219 707.895 460.659V443.399C707.895 438.662 707.895 438.696 712.574 439.103C713.564 439.191 713.904 439.556 713.899 440.508C713.883 450.435 713.883 460.357 713.899 470.284C713.899 471.14 713.627 471.526 712.708 471.564C710.438 471.66 708.592 471.476 706.951 469.298C702.542 463.445 697.772 457.865 693.14 452.18C692.619 451.542 692.074 450.922 691.126 449.801L691.122 449.797Z" fill="#719BA8"/>
<path d="M385.399 210.709C385.055 207.747 383.423 205.255 382.395 202.545C381.241 199.494 379.865 196.528 378.548 193.541C378.25 192.865 378.313 192.182 378.279 191.494C385.684 191.46 393.094 191.292 400.495 191.447C405.294 191.548 409.196 195.89 409.318 200.724C409.452 206.023 405.962 210.361 400.667 210.751C395.599 211.12 390.484 211.07 385.395 210.713L385.399 210.709Z" fill="#1B7B94"/>
<path d="M513.271 455.352C513.271 460.173 513.225 464.993 513.301 469.814C513.322 471.207 512.873 471.572 511.513 471.572C507.033 471.58 507.033 471.635 507.033 467.108C507.033 464.452 506.995 461.796 507.049 459.145C507.07 458.083 506.768 457.668 505.64 457.681C501.029 457.735 496.418 457.744 491.811 457.681C490.481 457.66 490.364 458.314 490.372 459.359C490.406 462.782 490.33 466.206 490.41 469.63C490.443 471.01 490.141 471.593 488.593 471.589C484.335 471.572 484.335 471.643 484.335 467.297C484.335 458.562 484.372 449.826 484.301 441.096C484.288 439.531 484.733 439.065 486.307 439.086C490.385 439.14 490.389 439.065 490.389 443.202C490.389 445.786 490.427 448.375 490.372 450.959C490.347 452.126 490.775 452.579 491.958 452.566C496.498 452.524 501.037 452.512 505.577 452.575C506.861 452.591 507.066 452.025 507.049 450.93C507.003 447.578 507.087 444.221 507.003 440.869C506.97 439.489 507.423 439.098 508.79 439.094C513.271 439.073 513.271 439.019 513.271 443.416C513.271 447.397 513.271 451.383 513.271 455.365V455.352Z" fill="#719BA8"/>
<path d="M121.231 455.386C121.231 450.632 121.286 445.878 121.198 441.125C121.172 439.623 121.504 439.057 123.144 439.078C129.71 439.17 136.285 439.216 142.851 439.065C145.372 439.006 144.747 440.567 144.852 441.935C144.965 443.428 144.865 444.397 142.838 444.326C138.232 444.167 133.616 444.326 129.001 444.246C127.642 444.225 127.088 444.595 127.21 446C127.39 448.077 126.375 450.703 127.617 452.1C128.896 453.54 131.565 452.503 133.625 452.591C136.067 452.692 138.521 452.73 140.959 452.575C142.7 452.465 143.22 453.141 142.993 454.723C142.956 454.995 142.952 455.285 142.993 455.562C143.237 457.177 142.654 457.748 140.942 457.693C136.964 457.563 132.975 457.71 128.993 457.622C127.604 457.592 127.084 458.033 127.218 459.405C127.436 461.675 126.266 464.57 127.747 466.063C129.043 467.368 131.871 466.403 134.019 466.441C137.304 466.5 140.589 466.516 143.87 466.428C145.267 466.391 145.779 466.877 145.612 468.228C145.553 468.711 145.544 469.214 145.612 469.692C145.813 471.157 145.238 471.593 143.761 471.576C136.843 471.501 129.924 471.497 123.006 471.576C121.454 471.593 121.177 471.031 121.198 469.642C121.273 464.889 121.227 460.135 121.227 455.381L121.231 455.386Z" fill="#719BA8"/>
<path d="M259.563 455.251C259.563 450.431 259.596 445.61 259.542 440.789C259.525 439.531 259.907 439.082 261.203 439.094C267.979 439.145 274.75 439.149 281.526 439.094C282.835 439.086 283.293 439.552 283.167 440.802C283.104 441.423 283.091 442.065 283.167 442.686C283.339 444.037 282.701 444.318 281.476 444.305C276.798 444.246 272.116 444.326 267.438 444.255C266.04 444.234 265.394 444.54 265.512 446.084C265.638 447.75 265.604 449.436 265.52 451.11C265.457 452.34 265.969 452.65 267.115 452.638C271.163 452.587 275.22 452.742 279.265 452.57C281.501 452.474 281.128 453.829 281.123 455.113C281.119 456.38 281.56 457.79 279.298 457.697C275.392 457.538 271.474 457.744 267.568 457.613C265.839 457.555 265.386 458.159 265.512 459.762C265.634 461.36 265.621 462.98 265.512 464.578C265.415 466.013 265.856 466.521 267.366 466.495C272.254 466.407 277.146 466.512 282.03 466.433C283.498 466.407 283.964 466.856 283.914 468.325C283.779 472.21 284.287 471.513 280.696 471.543C275.388 471.585 270.081 471.555 264.773 471.555C259.466 471.555 259.563 471.555 259.563 466.37C259.563 462.665 259.563 458.964 259.563 455.26V455.251Z" fill="#719BA8"/>
<path d="M669.015 471.539C667.039 471.539 665.369 471.501 663.699 471.555C662.847 471.58 662.466 471.182 662.168 470.452C661.459 468.707 660.649 467.007 659.944 465.262C659.579 464.356 659.013 464.02 658.031 464.028C653.563 464.07 649.094 464.066 644.626 464.028C643.72 464.02 643.216 464.339 642.885 465.165C642.289 466.655 641.471 468.073 641.031 469.6C640.54 471.287 639.571 471.622 637.959 471.58C633.839 471.471 633.827 471.543 635.551 467.695C639.545 458.784 643.602 449.906 647.504 440.957C648.276 439.187 649.355 438.775 651.062 438.918C652.724 439.057 654.322 438.532 655.316 440.827C659.55 450.619 664.026 460.307 668.407 470.036C668.574 470.406 668.713 470.792 669.015 471.539ZM651.398 445.32C649.459 449.839 647.701 453.917 645.96 458.004C645.495 459.094 646.074 459.338 647.039 459.329C649.967 459.308 652.896 459.3 655.828 459.334C656.969 459.346 657.355 459.09 656.827 457.895C655.048 453.888 653.344 449.847 651.402 445.32H651.398Z" fill="#719BA8"/>
<path d="M418.075 455.201C418.075 450.519 418.125 445.837 418.045 441.158C418.02 439.694 418.301 439.052 419.971 439.077C426.604 439.17 433.242 439.157 439.879 439.086C441.368 439.069 441.805 439.573 441.763 441.012C441.645 444.951 442.09 444.225 438.566 444.263C434.446 444.309 430.322 444.347 426.202 444.238C424.565 444.192 423.97 444.637 424.091 446.323C424.234 448.337 424.179 450.376 424.104 452.398C424.058 453.603 424.507 453.959 425.681 453.942C429.801 453.884 433.926 453.98 438.046 453.888C439.527 453.854 440.097 454.316 439.9 455.776C439.825 456.325 439.837 456.896 439.9 457.45C440.047 458.767 439.434 459.12 438.197 459.099C434.215 459.04 430.234 459.145 426.252 459.044C424.62 459.002 424.016 459.464 424.091 461.163C424.221 464.091 424.087 467.032 424.146 469.965C424.171 471.115 423.831 471.526 422.614 471.568C418.075 471.71 418.075 471.757 418.075 467.146C418.075 463.164 418.075 459.178 418.075 455.197V455.201Z" fill="#719BA8"/>
<path d="M90.9636 439.115C94.7354 439.115 98.5156 439.266 102.275 439.056C104.519 438.931 105.161 439.74 104.834 441.771C104.792 442.044 104.796 442.333 104.834 442.606C104.998 443.848 104.553 444.351 103.223 444.301C100.781 444.204 98.331 444.351 95.8934 444.242C94.4417 444.179 93.9886 444.62 94.0012 446.109C94.0725 453.934 93.9928 461.759 94.0683 469.579C94.0851 471.136 93.6781 471.606 92.0922 471.576C88.0561 471.505 88.0561 471.585 88.0561 467.486C88.0561 460.362 88.0141 453.233 88.0896 446.109C88.1064 444.624 87.6533 444.179 86.1974 444.242C83.7598 444.351 81.3096 444.213 78.8678 444.297C77.6259 444.339 77.1392 444.02 77.1812 442.677C77.3155 438.322 76.7323 439.187 80.7055 439.124C84.1248 439.069 87.5484 439.111 90.972 439.111L90.9636 439.115Z" fill="#719BA8"/>
<path d="M312.049 439.115C316.031 439.115 320.012 439.17 323.989 439.086C325.42 439.057 326.096 439.442 325.877 440.944C325.827 441.289 325.823 441.649 325.877 441.989C326.175 443.785 325.559 444.477 323.637 444.318C321.418 444.133 319.165 444.36 316.937 444.246C315.452 444.171 315.049 444.683 315.061 446.134C315.124 453.821 315.019 461.507 315.141 469.189C315.17 471.161 314.57 471.656 312.687 471.585C309.099 471.446 309.095 471.551 309.095 467.897C309.095 460.63 309.053 453.363 309.129 446.101C309.146 444.611 308.701 444.179 307.245 444.246C304.807 444.36 302.357 444.221 299.915 444.301C298.674 444.343 298.187 443.999 298.22 442.673C298.325 438.398 297.893 439.174 301.577 439.128C305.068 439.086 308.562 439.119 312.053 439.119L312.049 439.115Z" fill="#719BA8"/>
<path d="M5.1225 455.18C5.1225 450.364 5.16445 445.543 5.09732 440.726C5.07634 439.338 5.56722 438.897 6.914 438.926C12.3137 439.036 11.2648 438.352 11.2984 443.143C11.3613 451.87 11.2732 460.601 11.3529 469.327C11.3697 470.989 11.0466 471.648 9.21316 471.593C5.13089 471.471 5.12669 471.572 5.12669 467.544C5.12669 463.424 5.12669 459.304 5.12669 455.184L5.1225 455.18Z" fill="#719BA8"/>
</g>
<defs>
<clipPath id="clip0_5737_8288">
<rect width="999.801" height="472" fill="white"/>
</clipPath>
</defs>
</svg>
