<svg width="243" height="79" viewBox="0 0 243 79" fill="none" xmlns="http://www.w3.org/2000/svg">
<path d="M83.9852 52V29.1596H92.9964C94.7288 29.1596 96.2046 29.4904 97.424 30.1522C98.6433 30.8064 99.5727 31.7172 100.212 32.8845C100.859 34.0444 101.182 35.3827 101.182 36.8994C101.182 38.4162 100.855 39.7545 100.201 40.9144C99.5467 42.0742 98.5987 42.9776 97.3571 43.6244C96.1228 44.2713 94.6284 44.5947 92.8737 44.5947H87.1302V40.7248H92.0931C93.0224 40.7248 93.7882 40.5649 94.3905 40.2452C95.0002 39.9181 95.4537 39.4683 95.7511 38.8958C96.0559 38.3158 96.2083 37.6504 96.2083 36.8994C96.2083 36.1411 96.0559 35.4794 95.7511 34.9143C95.4537 34.3418 95.0002 33.8994 94.3905 33.5871C93.7808 33.2674 93.0076 33.1076 92.0708 33.1076H88.8142V52H83.9852ZM108.655 52.3234C107.562 52.3234 106.588 52.1338 105.733 51.7546C104.878 51.368 104.201 50.7992 103.703 50.0483C103.212 49.2899 102.967 48.3457 102.967 47.2156C102.967 46.2639 103.142 45.4646 103.491 44.8178C103.84 44.1709 104.316 43.6505 104.918 43.2564C105.521 42.8623 106.205 42.5649 106.971 42.3642C107.744 42.1635 108.554 42.0222 109.402 41.9404C110.398 41.8363 111.201 41.7397 111.811 41.6504C112.42 41.5538 112.863 41.4125 113.138 41.2266C113.413 41.0408 113.551 40.7657 113.551 40.4013V40.3344C113.551 39.6281 113.328 39.0816 112.881 38.695C112.443 38.3084 111.818 38.1151 111.008 38.1151C110.153 38.1151 109.472 38.3047 108.967 38.6839C108.461 39.0556 108.127 39.524 107.963 40.0891L103.569 39.7322C103.792 38.6913 104.231 37.7917 104.885 37.0333C105.539 36.2675 106.383 35.6801 107.417 35.2712C108.458 34.8548 109.662 34.6466 111.03 34.6466C111.982 34.6466 112.893 34.7582 113.762 34.9812C114.64 35.2043 115.417 35.55 116.093 36.0184C116.777 36.4868 117.316 37.089 117.71 37.8251C118.105 38.5537 118.302 39.4274 118.302 40.446V52H113.796V49.6245H113.662C113.387 50.1598 113.019 50.632 112.558 51.0409C112.097 51.4424 111.543 51.7584 110.896 51.9888C110.249 52.2119 109.502 52.3234 108.655 52.3234ZM110.015 49.0446C110.714 49.0446 111.331 48.907 111.867 48.6319C112.402 48.3494 112.822 47.9702 113.127 47.4944C113.432 47.0185 113.584 46.4795 113.584 45.8773V44.0594C113.435 44.156 113.231 44.2453 112.971 44.327C112.718 44.4014 112.432 44.472 112.112 44.5389C111.792 44.5984 111.472 44.6542 111.153 44.7062C110.833 44.7508 110.543 44.7917 110.283 44.8289C109.725 44.9107 109.238 45.0408 108.822 45.2193C108.406 45.3977 108.082 45.6393 107.852 45.9442C107.621 46.2416 107.506 46.6133 107.506 47.0594C107.506 47.7063 107.74 48.2007 108.208 48.5427C108.684 48.8773 109.287 49.0446 110.015 49.0446ZM129.727 52.3346C127.973 52.3346 126.463 51.9628 125.199 51.2193C123.943 50.4684 122.976 49.4275 122.3 48.0966C121.631 46.7657 121.296 45.2341 121.296 43.5018C121.296 41.7471 121.634 40.208 122.311 38.8846C122.995 37.5537 123.965 36.5165 125.222 35.773C126.478 35.0221 127.973 34.6466 129.705 34.6466C131.199 34.6466 132.508 34.918 133.631 35.4608C134.753 36.0035 135.642 36.7656 136.296 37.747C136.95 38.7285 137.311 39.8809 137.378 41.2043H132.895C132.768 40.3493 132.434 39.6616 131.891 39.1411C131.356 38.6132 130.653 38.3493 129.783 38.3493C129.047 38.3493 128.404 38.55 127.854 38.9515C127.311 39.3456 126.887 39.9218 126.582 40.6802C126.277 41.4385 126.125 42.3568 126.125 43.4348C126.125 44.5278 126.274 45.4572 126.571 46.223C126.876 46.9888 127.304 47.5724 127.854 47.9739C128.404 48.3754 129.047 48.5762 129.783 48.5762C130.326 48.5762 130.813 48.4646 131.244 48.2416C131.683 48.0185 132.043 47.6951 132.326 47.2713C132.616 46.8401 132.805 46.3234 132.895 45.7211H137.378C137.304 47.0297 136.947 48.1821 136.307 49.1784C135.675 50.1673 134.802 50.9405 133.686 51.4981C132.571 52.0558 131.252 52.3346 129.727 52.3346ZM156.39 34.8697L150.401 52H145.048L139.059 34.8697H144.078L147.636 47.1263H147.814L151.36 34.8697H156.39ZM158.822 52V34.8697H163.573V52H158.822ZM161.208 32.6615C160.502 32.6615 159.896 32.4273 159.39 31.9589C158.892 31.483 158.643 30.9142 158.643 30.2525C158.643 29.5982 158.892 29.0369 159.39 28.5685C159.896 28.0927 160.502 27.8547 161.208 27.8547C161.915 27.8547 162.517 28.0927 163.015 28.5685C163.52 29.0369 163.773 29.5982 163.773 30.2525C163.773 30.9142 163.52 31.483 163.015 31.9589C162.517 32.4273 161.915 32.6615 161.208 32.6615ZM175.185 52.3346C173.423 52.3346 171.906 51.9777 170.635 51.2639C169.371 50.5427 168.397 49.5241 167.713 48.2081C167.029 46.8847 166.687 45.3196 166.687 43.5129C166.687 41.7508 167.029 40.2043 167.713 38.8735C168.397 37.5426 169.36 36.5054 170.601 35.7619C171.851 35.0184 173.315 34.6466 174.996 34.6466C176.126 34.6466 177.178 34.8288 178.152 35.1931C179.133 35.55 179.988 36.089 180.717 36.8102C181.453 37.5314 182.025 38.4385 182.434 39.5315C182.843 40.617 183.048 41.8884 183.048 43.3456V44.6505H168.583V41.7062H178.575C178.575 41.0222 178.427 40.4162 178.129 39.8883C177.832 39.3604 177.419 38.9478 176.891 38.6504C176.371 38.3456 175.765 38.1931 175.074 38.1931C174.352 38.1931 173.713 38.3604 173.155 38.695C172.605 39.0222 172.174 39.4645 171.862 40.0222C171.549 40.5724 171.39 41.1857 171.382 41.8623V44.6616C171.382 45.5092 171.538 46.2416 171.851 46.8587C172.17 47.4758 172.62 47.9516 173.2 48.2862C173.78 48.6208 174.468 48.7881 175.263 48.7881C175.791 48.7881 176.274 48.7137 176.713 48.565C177.152 48.4163 177.527 48.1933 177.839 47.8959C178.152 47.5985 178.39 47.2341 178.553 46.8029L182.947 47.0929C182.724 48.1487 182.267 49.0706 181.576 49.8587C180.892 50.6394 180.007 51.2491 178.921 51.6877C177.843 52.119 176.598 52.3346 175.185 52.3346ZM189.405 52L184.743 34.8697H189.55L192.204 46.3791H192.36L195.126 34.8697H199.843L202.654 46.3122H202.799L205.409 34.8697H210.204L205.554 52H200.524L197.579 41.2266H197.368L194.423 52H189.405ZM220.116 52.3346C218.354 52.3346 216.837 51.9777 215.566 51.2639C214.302 50.5427 213.328 49.5241 212.644 48.2081C211.96 46.8847 211.618 45.3196 211.618 43.5129C211.618 41.7508 211.96 40.2043 212.644 38.8735C213.328 37.5426 214.291 36.5054 215.532 35.7619C216.781 35.0184 218.246 34.6466 219.926 34.6466C221.056 34.6466 222.109 34.8288 223.083 35.1931C224.064 35.55 224.919 36.089 225.648 36.8102C226.384 37.5314 226.956 38.4385 227.365 39.5315C227.774 40.617 227.979 41.8884 227.979 43.3456V44.6505H213.514V41.7062H223.506C223.506 41.0222 223.358 40.4162 223.06 39.8883C222.763 39.3604 222.35 38.9478 221.822 38.6504C221.302 38.3456 220.696 38.1931 220.004 38.1931C219.283 38.1931 218.644 38.3604 218.086 38.695C217.536 39.0222 217.105 39.4645 216.792 40.0222C216.48 40.5724 216.32 41.1857 216.313 41.8623V44.6616C216.313 45.5092 216.469 46.2416 216.781 46.8587C217.101 47.4758 217.551 47.9516 218.131 48.2862C218.711 48.6208 219.398 48.7881 220.194 48.7881C220.722 48.7881 221.205 48.7137 221.644 48.565C222.083 48.4163 222.458 48.1933 222.77 47.8959C223.083 47.5985 223.32 47.2341 223.484 46.8029L227.878 47.0929C227.655 48.1487 227.198 49.0706 226.506 49.8587C225.822 50.6394 224.938 51.2491 223.852 51.6877C222.774 52.119 221.529 52.3346 220.116 52.3346ZM231.079 52V34.8697H235.685V37.8586H235.863C236.176 36.7954 236.7 35.9924 237.436 35.4496C238.172 34.8994 239.02 34.6243 239.979 34.6243C240.217 34.6243 240.473 34.6392 240.748 34.6689C241.023 34.6987 241.265 34.7396 241.473 34.7916V39.0073C241.25 38.9404 240.941 38.8809 240.547 38.8288C240.153 38.7768 239.793 38.7508 239.466 38.7508C238.767 38.7508 238.142 38.9032 237.592 39.208C237.049 39.5054 236.618 39.9218 236.298 40.4571C235.986 40.9924 235.83 41.6095 235.83 42.3084V52H231.079Z" fill="#9C9C9C"/>
<path fill-rule="evenodd" clip-rule="evenodd" d="M69.4178 31.6808L69.4178 21.9951L41.6507 5.70746L24.4765 15.7761L28.3223 18.032L52.2483 32.0665L52.2483 41.7522L54.8127 40.2473L54.8128 30.5615L29.6094 15.7778L41.6501 8.71628L66.8534 23.5L66.8534 33.1858L69.4178 31.6808Z" fill="url(#paint0_linear_5731_8377)"/>
<path fill-rule="evenodd" clip-rule="evenodd" d="M22.1393 17.151L13.8832 21.994L13.8836 54.5685L31.0483 64.6369L31.0508 60.1372L31.0479 32.0624L39.3087 27.2222L36.7402 25.7156L28.4841 30.5585L28.4824 60.1289L16.4453 53.0682L16.447 23.4978L24.7031 18.6549L22.1393 17.151Z" fill="url(#paint1_linear_5731_8377)"/>
<path fill-rule="evenodd" clip-rule="evenodd" d="M33.3903 66.0099L41.6511 70.8555L69.4179 54.5686L69.4153 34.4307L65.5763 36.6801L41.6485 50.7176L33.3924 45.8748L33.3918 48.8836L41.6479 53.7264L66.8503 38.9445L66.854 53.0647L41.649 67.8514L33.3909 63.0011L33.3903 66.0099Z" fill="url(#paint2_linear_5731_8377)"/>
<defs>
<linearGradient id="paint0_linear_5731_8377" x1="41.138" y1="38.0105" x2="41.138" y2="8.14989" gradientUnits="userSpaceOnUse">
<stop offset="0.025" stop-color="white"/>
<stop offset="0.95" stop-color="#4297F4"/>
</linearGradient>
<linearGradient id="paint1_linear_5731_8377" x1="22.4341" y1="49.6829" x2="42.6457" y2="37.4814" gradientUnits="userSpaceOnUse">
<stop stop-color="#393899"/>
<stop offset="1" stop-color="white"/>
</linearGradient>
<linearGradient id="paint2_linear_5731_8377" x1="72.3271" y1="53.7925" x2="41.4753" y2="38.404" gradientUnits="userSpaceOnUse">
<stop stop-color="#FF7AC7"/>
<stop offset="1" stop-color="white"/>
</linearGradient>
</defs>
</svg>
