<svg width="247" height="79" viewBox="0 0 247 79" fill="none" xmlns="http://www.w3.org/2000/svg">
<path fill-rule="evenodd" clip-rule="evenodd" d="M69.852 31.4526L69.852 21.8596L41.9112 5.72797L24.6298 15.7002L28.4995 17.9344L52.5752 31.8345L52.5751 41.4275L55.1556 39.937L55.1556 30.344L29.7947 15.7019L41.9106 8.70798L67.2715 23.3501L67.2715 32.9431L69.852 31.4526Z" fill="white"/>
<path fill-rule="evenodd" clip-rule="evenodd" d="M22.2776 17.0626L13.9699 21.8591L13.9703 54.1216L31.2424 64.0936L31.2449 59.6369L31.2419 31.8311L39.5543 27.0373L36.9698 25.5451L28.6621 30.3416L28.6604 59.6288L16.5481 52.6357L16.5498 23.3486L24.8575 18.552L22.2776 17.0626Z" fill="white"/>
<path fill-rule="evenodd" clip-rule="evenodd" d="M33.6007 65.4539L41.9131 70.2531L69.8535 54.1222L69.8509 34.1772L65.9879 36.405L41.9106 50.3081L33.6028 45.5116L33.6022 48.4916L41.91 53.2881L67.2698 38.6477L67.2736 52.6327L41.911 67.2777L33.6013 62.4739L33.6007 65.4539Z" fill="white"/>
<path d="M87.9852 51.7378V28.8974H96.9964C98.7288 28.8974 100.205 29.2282 101.424 29.89C102.643 30.5442 103.573 31.455 104.212 32.6223C104.859 33.7822 105.182 35.1205 105.182 36.6372C105.182 38.154 104.855 39.4923 104.201 40.6522C103.547 41.812 102.599 42.7154 101.357 43.3622C100.123 44.0091 98.6284 44.3325 96.8737 44.3325H91.1302V40.4626H96.0931C97.0224 40.4626 97.7882 40.3027 98.3905 39.983C99.0002 39.6559 99.4537 39.206 99.7511 38.6335C100.056 38.0536 100.208 37.3882 100.208 36.6372C100.208 35.8789 100.056 35.2171 99.7511 34.6521C99.4537 34.0796 99.0002 33.6372 98.3905 33.3249C97.7808 33.0052 97.0076 32.8454 96.0708 32.8454H92.8142V51.7378H87.9852ZM112.655 52.0612C111.562 52.0612 110.588 51.8716 109.733 51.4924C108.878 51.1058 108.201 50.537 107.703 49.7861C107.212 49.0277 106.967 48.0835 106.967 46.9533C106.967 46.0017 107.142 45.2024 107.491 44.5556C107.84 43.9087 108.316 43.3883 108.918 42.9942C109.521 42.6001 110.205 42.3027 110.971 42.102C111.744 41.9012 112.554 41.76 113.402 41.6782C114.398 41.5741 115.201 41.4774 115.811 41.3882C116.42 41.2916 116.863 41.1503 117.138 40.9644C117.413 40.7786 117.551 40.5035 117.551 40.1391V40.0722C117.551 39.3659 117.328 38.8194 116.881 38.4328C116.443 38.0462 115.818 37.8529 115.008 37.8529C114.153 37.8529 113.472 38.0425 112.967 38.4216C112.461 38.7934 112.127 39.2618 111.963 39.8269L107.569 39.47C107.792 38.4291 108.231 37.5294 108.885 36.7711C109.539 36.0053 110.383 35.4179 111.417 35.009C112.458 34.5926 113.662 34.3844 115.03 34.3844C115.982 34.3844 116.893 34.496 117.762 34.719C118.64 34.9421 119.417 35.2878 120.093 35.7562C120.777 36.2246 121.316 36.8268 121.71 37.5629C122.105 38.2915 122.302 39.1652 122.302 40.1838V51.7378H117.796V49.3623H117.662C117.387 49.8976 117.019 50.3697 116.558 50.7787C116.097 51.1802 115.543 51.4962 114.896 51.7266C114.249 51.9497 113.502 52.0612 112.655 52.0612ZM114.015 48.7824C114.714 48.7824 115.331 48.6448 115.867 48.3697C116.402 48.0872 116.822 47.708 117.127 47.2322C117.432 46.7563 117.584 46.2173 117.584 45.615V43.7972C117.435 43.8938 117.231 43.9831 116.971 44.0648C116.718 44.1392 116.432 44.2098 116.112 44.2767C115.792 44.3362 115.472 44.392 115.153 44.444C114.833 44.4886 114.543 44.5295 114.283 44.5667C113.725 44.6485 113.238 44.7786 112.822 44.957C112.406 45.1355 112.082 45.3771 111.852 45.682C111.621 45.9794 111.506 46.3511 111.506 46.7972C111.506 47.4441 111.74 47.9385 112.208 48.2805C112.684 48.6151 113.287 48.7824 114.015 48.7824ZM133.727 52.0724C131.973 52.0724 130.463 51.7006 129.199 50.9571C127.943 50.2062 126.976 49.1653 126.3 47.8344C125.631 46.5035 125.296 44.9719 125.296 43.2396C125.296 41.4849 125.634 39.9458 126.311 38.6224C126.995 37.2915 127.965 36.2543 129.222 35.5108C130.478 34.7599 131.973 34.3844 133.705 34.3844C135.199 34.3844 136.508 34.6558 137.631 35.1986C138.753 35.7413 139.642 36.5034 140.296 37.4848C140.95 38.4663 141.311 39.6187 141.378 40.9421H136.895C136.768 40.0871 136.434 39.3994 135.891 38.8789C135.356 38.351 134.653 38.0871 133.783 38.0871C133.047 38.0871 132.404 38.2878 131.854 38.6893C131.311 39.0834 130.887 39.6596 130.582 40.418C130.277 41.1763 130.125 42.0946 130.125 43.1726C130.125 44.2656 130.274 45.195 130.571 45.9608C130.876 46.7266 131.304 47.3102 131.854 47.7117C132.404 48.1132 133.047 48.314 133.783 48.314C134.326 48.314 134.813 48.2024 135.244 47.9794C135.683 47.7563 136.043 47.4329 136.326 47.0091C136.616 46.5779 136.805 46.0611 136.895 45.4589H141.378C141.304 46.7675 140.947 47.9199 140.307 48.9162C139.675 49.9051 138.802 50.6783 137.686 51.2359C136.571 51.7936 135.252 52.0724 133.727 52.0724ZM160.39 34.6075L154.401 51.7378H149.048L143.059 34.6075H148.078L151.636 46.8641H151.814L155.36 34.6075H160.39ZM162.822 51.7378V34.6075H167.573V51.7378H162.822ZM165.208 32.3993C164.502 32.3993 163.896 32.1651 163.39 31.6967C162.892 31.2208 162.643 30.652 162.643 29.9903C162.643 29.336 162.892 28.7747 163.39 28.3063C163.896 27.8304 164.502 27.5925 165.208 27.5925C165.915 27.5925 166.517 27.8304 167.015 28.3063C167.52 28.7747 167.773 29.336 167.773 29.9903C167.773 30.652 167.52 31.2208 167.015 31.6967C166.517 32.1651 165.915 32.3993 165.208 32.3993ZM179.185 52.0724C177.423 52.0724 175.906 51.7155 174.635 51.0017C173.371 50.2805 172.397 49.2619 171.713 47.9459C171.029 46.6225 170.687 45.0574 170.687 43.2507C170.687 41.4886 171.029 39.9421 171.713 38.6112C172.397 37.2804 173.36 36.2432 174.601 35.4997C175.851 34.7562 177.315 34.3844 178.996 34.3844C180.126 34.3844 181.178 34.5666 182.152 34.9309C183.133 35.2878 183.988 35.8268 184.717 36.548C185.453 37.2692 186.025 38.1763 186.434 39.2692C186.843 40.3548 187.048 41.6261 187.048 43.0834V44.3883H172.583V41.444H182.575C182.575 40.76 182.427 40.154 182.129 39.6261C181.832 39.0982 181.419 38.6856 180.891 38.3882C180.371 38.0834 179.765 37.9309 179.074 37.9309C178.352 37.9309 177.713 38.0982 177.155 38.4328C176.605 38.7599 176.174 39.2023 175.862 39.76C175.549 40.3101 175.39 40.9235 175.382 41.6001V44.3994C175.382 45.247 175.538 45.9794 175.851 46.5965C176.17 47.2136 176.62 47.6894 177.2 48.024C177.78 48.3586 178.468 48.5259 179.263 48.5259C179.791 48.5259 180.274 48.4515 180.713 48.3028C181.152 48.1541 181.527 47.9311 181.839 47.6337C182.152 47.3363 182.39 46.9719 182.553 46.5407L186.947 46.8307C186.724 47.8864 186.267 48.8084 185.576 49.5965C184.892 50.3772 184.007 50.9869 182.921 51.4255C181.843 51.8568 180.598 52.0724 179.185 52.0724ZM193.405 51.7378L188.743 34.6075H193.55L196.204 46.1169H196.36L199.126 34.6075H203.843L206.654 46.05H206.799L209.409 34.6075H214.204L209.554 51.7378H204.524L201.579 40.9644H201.368L198.423 51.7378H193.405ZM224.116 52.0724C222.354 52.0724 220.837 51.7155 219.566 51.0017C218.302 50.2805 217.328 49.2619 216.644 47.9459C215.96 46.6225 215.618 45.0574 215.618 43.2507C215.618 41.4886 215.96 39.9421 216.644 38.6112C217.328 37.2804 218.291 36.2432 219.532 35.4997C220.781 34.7562 222.246 34.3844 223.926 34.3844C225.056 34.3844 226.109 34.5666 227.083 34.9309C228.064 35.2878 228.919 35.8268 229.648 36.548C230.384 37.2692 230.956 38.1763 231.365 39.2692C231.774 40.3548 231.979 41.6261 231.979 43.0834V44.3883H217.514V41.444H227.506C227.506 40.76 227.358 40.154 227.06 39.6261C226.763 39.0982 226.35 38.6856 225.822 38.3882C225.302 38.0834 224.696 37.9309 224.004 37.9309C223.283 37.9309 222.644 38.0982 222.086 38.4328C221.536 38.7599 221.105 39.2023 220.792 39.76C220.48 40.3101 220.32 40.9235 220.313 41.6001V44.3994C220.313 45.247 220.469 45.9794 220.781 46.5965C221.101 47.2136 221.551 47.6894 222.131 48.024C222.711 48.3586 223.398 48.5259 224.194 48.5259C224.722 48.5259 225.205 48.4515 225.644 48.3028C226.083 48.1541 226.458 47.9311 226.77 47.6337C227.083 47.3363 227.32 46.9719 227.484 46.5407L231.878 46.8307C231.655 47.8864 231.198 48.8084 230.506 49.5965C229.822 50.3772 228.938 50.9869 227.852 51.4255C226.774 51.8568 225.529 52.0724 224.116 52.0724ZM235.079 51.7378V34.6075H239.685V37.5964H239.863C240.176 36.5332 240.7 35.7302 241.436 35.1874C242.172 34.6372 243.02 34.3621 243.979 34.3621C244.217 34.3621 244.473 34.377 244.748 34.4067C245.023 34.4365 245.265 34.4774 245.473 34.5294V38.7451C245.25 38.6782 244.941 38.6187 244.547 38.5666C244.153 38.5146 243.793 38.4886 243.466 38.4886C242.767 38.4886 242.142 38.641 241.592 38.9458C241.049 39.2432 240.618 39.6596 240.298 40.1949C239.986 40.7302 239.83 41.3473 239.83 42.0462V51.7378H235.079Z" fill="#9C9C9C"/>
</svg>
