<svg width="214" height="37" viewBox="0 0 214 37" fill="none" xmlns="http://www.w3.org/2000/svg">
<path d="M33.8127 18.3302C33.8127 25.6404 27.5562 31.3843 19.5652 31.349C12.025 31.3159 5.64944 25.4706 5.73553 18.0235C5.81402 11.0388 12.1085 5.23352 19.7754 5.21465C27.8119 5.19578 33.9596 11.3973 33.8152 18.3278L33.8127 18.3302ZM29.0703 18.5094C29.0703 18.1752 28.8716 17.8618 28.5974 17.7104C28.4188 17.6118 28.208 17.5821 27.9993 17.6602C27.4042 17.8843 27.0067 17.6461 26.5586 17.4078C26.1383 17.1837 25.7179 16.9549 25.285 16.7521C25.2257 16.7242 25.1714 16.6961 25.1223 16.6662C24.9177 16.5414 24.8044 16.3846 24.8064 16.0821C24.8064 15.8254 24.6567 15.5873 24.4479 15.4383C24.2309 15.2834 23.9502 15.2248 23.7076 15.3414C23.282 15.546 22.9779 15.4489 22.6774 15.2963C22.6373 15.2759 22.5973 15.2545 22.557 15.2328C22.5023 15.2032 22.4471 15.1729 22.3909 15.1433C21.9504 14.9121 21.5199 14.6621 21.0718 14.4474C20.93 14.379 20.8206 14.3067 20.7406 14.2117C20.6577 14.1132 20.6063 13.9903 20.5831 13.8223C20.5394 13.4982 20.314 13.226 20.0391 13.1134C19.8678 13.0432 19.6772 13.0349 19.4994 13.1146C18.917 13.3765 18.5474 13.1005 18.122 12.8811C17.6637 12.6428 17.2181 12.3834 16.7522 12.1545C16.7082 12.1328 16.6669 12.111 16.6285 12.0885C16.4174 11.9645 16.2951 11.8174 16.3015 11.52C16.3079 11.1863 16.0977 10.9501 15.784 10.8377C15.723 10.8158 15.658 10.7987 15.59 10.7864C15.157 10.7109 14.7798 10.8265 14.5646 11.2157C14.3758 11.5582 14.3405 11.9757 14.6644 12.1851C14.6677 12.1872 14.6709 12.1893 14.6742 12.1913L14.6771 12.1933C14.6792 12.1945 14.6814 12.1957 14.6836 12.197C14.7223 12.2201 14.7577 12.2438 14.7901 12.2681C15.201 12.5753 15.1292 12.9698 15.1292 13.3765C15.1317 13.8671 15.1216 14.3554 15.1343 14.8461C15.1418 15.1386 15.1013 15.3579 14.7924 15.5561C14.3519 15.8392 14.2708 16.5232 14.6886 16.7851C15.1874 17.0988 15.1267 17.4951 15.1292 17.9174C15.1317 18.4457 15.1191 18.9718 15.1343 19.5002C15.1418 19.762 15.0735 19.9413 14.8254 20.1135C14.3578 20.439 14.2571 21.0969 14.6892 21.3765C14.6923 21.3786 14.6955 21.3806 14.6988 21.3826C14.703 21.3852 14.7071 21.3878 14.7112 21.3904C14.7159 21.3934 14.7204 21.3963 14.7249 21.3993C15.1781 21.6957 15.1317 22.0553 15.1317 22.4535C15.1317 22.8876 15.1267 23.3193 15.1317 23.7533C15.1368 24.1284 15.1672 24.468 14.7266 24.7252C14.3696 24.9351 14.3671 25.3503 14.5291 25.7041C14.5721 25.7982 14.6269 25.8798 14.6916 25.9485C14.8783 26.1469 15.1481 26.2381 15.4583 26.2136C15.8711 26.1806 16.2863 25.9659 16.2686 25.5814C16.2455 25.0412 16.587 24.8643 16.9605 24.6708C16.9964 24.6522 17.0325 24.6335 17.0687 24.6143C17.5422 24.3619 18.0131 24.1071 18.4739 23.8335C18.7145 23.692 18.8867 23.6566 19.1728 23.8075C19.8792 24.1873 20.5983 23.7981 20.6109 23.0362C20.616 22.7578 20.7147 22.6375 20.9477 22.5196C21.5528 22.2153 22.1529 21.9039 22.7403 21.5737C23.0214 21.4156 23.2341 21.3661 23.5607 21.5359C24.0873 21.8095 24.7963 21.5336 24.8343 20.9957C24.8744 20.4357 25.2304 20.256 25.6287 20.055C25.6583 20.04 25.688 20.025 25.7179 20.0097C26.1433 19.7927 26.5687 19.5733 26.9814 19.3398C27.2371 19.1959 27.4372 19.1558 27.7461 19.2926C28.3917 19.578 29.0652 19.1463 29.0678 18.5071L29.0703 18.5094Z" fill="#A4A4A4"/>
<path d="M193.349 29.049C190.657 29.049 187.966 29.0608 185.274 29.042C184.446 29.0349 183.626 28.9075 182.831 28.6622C180.474 27.9333 179.195 26.3788 178.848 24.1284C178.674 23.0008 178.742 21.8709 178.993 20.7599C179.534 18.3561 181.233 17.0611 183.722 16.5468C184.93 16.2968 186.156 16.1836 187.394 16.1836C189.984 16.1859 192.574 16.1741 195.167 16.1954C195.618 16.1977 195.749 16.0939 195.744 15.6646C195.719 13.577 194.671 12.5862 192.24 12.3527C190.908 12.2253 189.574 12.2489 188.239 12.2466C185.75 12.2442 183.259 12.2371 180.77 12.2536C180.378 12.256 180.251 12.1593 180.259 11.7842C180.284 10.6354 180.279 9.48428 180.259 8.3355C180.253 7.98874 180.327 7.84012 180.752 7.84248C184.943 7.85664 189.133 7.83541 193.321 7.86135C194.493 7.86843 195.656 8.04063 196.782 8.38031C199.833 9.30029 201.631 11.4186 201.912 14.3932C202.051 15.8604 202.003 17.33 202.008 18.7972C202.016 22.0384 202.003 25.2795 202.021 28.5206C202.023 28.9594 201.91 29.0939 201.421 29.0915C198.729 29.0679 196.038 29.0797 193.344 29.0797C193.344 29.0703 193.344 29.0608 193.344 29.0514L193.349 29.049ZM191.171 24.7794C191.618 24.7794 192.043 24.778 192.452 24.7767L192.454 24.7767C192.515 24.7765 192.576 24.7763 192.636 24.7761C193.438 24.7735 194.181 24.772 194.916 24.7829C195.03 24.7846 195.143 24.7866 195.256 24.7889C195.259 24.7889 195.262 24.789 195.265 24.7891C195.692 24.796 195.805 24.656 195.797 24.2723C195.775 23.1612 195.772 22.0502 195.797 20.9415C195.807 20.5334 195.696 20.3895 195.228 20.3942C193.005 20.4178 190.779 20.3989 188.556 20.4084C188.233 20.4095 187.911 20.4223 187.59 20.4547C187.584 20.4553 187.578 20.4558 187.572 20.4564C187.237 20.4911 186.904 20.5476 186.578 20.6348C185.406 20.9486 184.912 21.7506 185.036 23.114C185.125 24.0906 185.677 24.5459 186.892 24.6898C188.404 24.8667 189.921 24.7275 191.174 24.7794H191.171Z" fill="#90E21D"/>
<path d="M59.2656 29.0774C56.7362 29.0774 54.2067 29.0632 51.6773 29.0891C51.1633 29.0939 51.0367 28.95 51.0519 28.49C51.0873 27.3789 51.0924 26.2655 51.0519 25.1569C51.0342 24.6686 51.2139 24.5766 51.7001 24.5789C55.7867 24.5978 59.8759 24.5884 63.9625 24.5907C64.5524 24.5907 65.1297 24.5459 65.6893 24.3525C66.5198 24.067 66.9375 23.5221 66.9553 22.68C66.9781 21.7011 66.6033 21.0948 65.7551 20.7882C65.1449 20.5688 64.5043 20.5075 63.8511 20.498C61.3039 20.4579 58.7516 20.6089 56.207 20.3919C55.4601 20.3282 54.7283 20.1984 54.0092 20.005C52.3027 19.5497 51.3279 18.4599 50.9557 16.8818C50.5911 15.3344 50.5658 13.7751 50.9557 12.2324C51.5735 9.76971 53.399 8.52657 55.9563 8.07366C56.8299 7.91797 57.7161 7.84956 58.6099 7.84956C62.7572 7.85428 66.9072 7.86136 71.0546 7.84013C71.561 7.83777 71.7053 7.95808 71.6876 8.42986C71.6496 9.5409 71.647 10.6543 71.6876 11.763C71.7053 12.2371 71.5204 12.3126 71.0697 12.3103C67.5883 12.2937 64.1093 12.2985 60.6279 12.3032C59.9012 12.3032 59.1745 12.3409 58.4554 12.4707C57.4325 12.6547 56.9261 13.1925 56.8957 14.129C56.8653 15.0725 57.3768 15.7307 58.3516 15.95C58.782 16.0468 59.2251 16.0892 59.6733 16.0892C61.7774 16.0869 63.8815 16.0751 65.9855 16.1128C67.1224 16.134 68.2339 16.3416 69.2847 16.7733C70.8722 17.422 71.9787 18.4953 72.4775 20.0475C73.032 21.7718 72.9941 23.508 72.3509 25.204C71.4014 27.7021 69.2796 29.0585 66.3679 29.0703C64.0005 29.0797 61.633 29.0703 59.2656 29.0703V29.0774Z" fill="white"/>
<path d="M133.459 29.0774C130.95 29.0774 128.441 29.0656 125.929 29.0892C125.461 29.0939 125.357 28.9665 125.369 28.5537C125.4 27.4049 125.402 26.2538 125.369 25.1074C125.357 24.678 125.488 24.579 125.939 24.5813C130.048 24.5978 134.155 24.5908 138.265 24.5931C138.814 24.5931 139.356 24.5577 139.88 24.3902C140.825 24.0907 141.275 23.5033 141.275 22.5645C141.275 21.6303 140.814 21.017 139.883 20.7316C139.3 20.5547 138.7 20.5098 138.087 20.5004C135.561 20.4603 133.029 20.6113 130.504 20.3943C129.798 20.3329 129.104 20.2126 128.42 20.0404C126.767 19.6229 125.729 18.6369 125.319 17.0965C124.871 15.4052 124.848 13.6997 125.326 12.0107C125.995 9.64944 127.828 8.51481 130.271 8.07606C131.145 7.92037 132.031 7.85196 132.925 7.85432C137.075 7.85904 141.222 7.86376 145.372 7.84724C145.833 7.84724 146.002 7.93688 145.987 8.39923C145.949 9.52914 145.952 10.6614 145.987 11.789C146 12.2254 145.851 12.3197 145.405 12.3174C141.923 12.3009 138.442 12.3056 134.96 12.3103C134.214 12.3103 133.464 12.3386 132.727 12.4825C131.732 12.6759 131.249 13.1784 131.213 14.0512C131.17 15.0844 131.621 15.7 132.623 15.9501C133.054 16.0562 133.494 16.0987 133.945 16.0963C135.826 16.0893 137.71 16.0916 139.592 16.0963C140.731 16.0963 141.853 16.2166 142.936 16.5563C145.253 17.2829 146.638 18.7572 147.018 21.0241C147.223 22.2484 147.185 23.4679 146.846 24.6662C146.058 27.4403 143.784 29.068 140.683 29.0821C138.275 29.0939 135.867 29.0821 133.456 29.0821L133.459 29.0774Z" fill="white"/>
<path d="M89.2262 20.708C87.1424 20.708 85.0586 20.7174 82.9722 20.7009C82.5722 20.6985 82.4456 20.7929 82.4937 21.1727C82.5671 21.7365 82.6709 22.2884 82.8861 22.8192C83.3292 23.9184 84.3319 24.2699 85.451 24.4445C86.1094 24.5459 86.7753 24.5931 87.4437 24.5931C90.0947 24.5884 92.7457 24.6049 95.3967 24.5789C95.9183 24.5742 96.0322 24.7205 96.017 25.1781C95.9815 26.3269 95.9942 27.4757 96.0119 28.6245C96.017 28.9453 95.9613 29.0939 95.5562 29.0868C92.1988 29.0302 88.8363 29.2118 85.4839 28.9759C82.4329 28.7613 79.7085 27.8366 77.812 25.4376C76.3815 23.6283 75.8903 21.5289 75.8042 19.3304C75.7232 17.3041 75.8599 15.299 76.6904 13.393C78.083 10.2038 80.777 8.61858 84.3015 8.05952C85.9878 7.7906 87.6893 7.85901 89.3857 7.85665C91.4088 7.85193 93.4318 7.86609 95.4574 7.84722C95.8575 7.84486 96.0271 7.90619 96.017 8.32843C95.9841 9.47722 95.9765 10.6284 96.0195 11.7748C96.0373 12.2607 95.8347 12.3173 95.3941 12.3126C92.9254 12.2961 90.4568 12.3032 87.9881 12.3055C86.9753 12.3055 85.9675 12.3527 84.9801 12.5933C83.4026 12.9755 82.2506 14.5795 82.4785 16.0326C82.5215 16.3015 82.6962 16.2544 82.8684 16.2567C83.6381 16.2614 84.4053 16.2567 85.175 16.2567C88.5958 16.2567 92.0139 16.2638 95.4346 16.2473C95.8727 16.2473 96.0297 16.3275 96.017 16.7686C95.979 17.9174 95.9866 19.0662 96.0145 20.215C96.0246 20.6113 95.9005 20.7198 95.4752 20.7174C93.3913 20.6962 91.3075 20.708 89.2212 20.708H89.2262Z" fill="white"/>
<path d="M99.8531 18.4505C99.8531 15.1339 99.8709 11.8196 99.8379 8.50299C99.8329 7.93685 100.013 7.83778 100.577 7.84014C104.302 7.86373 108.024 7.84014 111.748 7.85901C113.187 7.86608 114.61 8.03357 115.997 8.41571C118.775 9.18235 120.117 11.0294 120.522 13.5935C120.631 14.2847 120.666 14.9805 120.666 15.6764C120.666 19.9531 120.658 24.2298 120.679 28.5065C120.679 28.983 120.539 29.0986 120.041 29.0892C118.423 29.0585 116.802 29.0585 115.184 29.0892C114.708 29.0986 114.62 28.95 114.622 28.5443C114.637 24.494 114.635 20.4438 114.625 16.3935C114.625 15.851 114.594 15.299 114.498 14.7635C114.222 13.2562 113.663 12.7467 112.032 12.6051C110.095 12.4376 108.15 12.5603 106.208 12.5249C105.773 12.5178 105.849 12.782 105.849 13.0179C105.849 15.4287 105.849 17.8419 105.849 20.2527C105.849 23.0032 105.836 25.7537 105.862 28.5041C105.867 28.9806 105.72 29.0962 105.223 29.0868C103.666 29.0561 102.107 29.0538 100.549 29.0868C100.015 29.0986 99.8379 28.9901 99.843 28.4523C99.8734 25.1168 99.8582 21.7836 99.8582 18.4481L99.8531 18.4505Z" fill="white"/>
<path d="M171.179 20.5995C171.179 23.2367 171.164 25.8763 171.192 28.5136C171.197 28.9995 171.04 29.0962 170.551 29.0892C168.873 29.0608 167.191 29.0585 165.513 29.0892C165.037 29.0986 164.953 28.9547 164.953 28.5466C164.968 23.2697 164.953 17.9952 164.976 12.7183C164.976 12.2183 164.852 12.0791 164.312 12.1003C163.241 12.1428 162.168 12.1003 161.094 12.1192C160.75 12.1239 160.59 12.0791 160.598 11.6993C160.626 10.5505 160.621 9.40173 160.598 8.25059C160.593 7.9227 160.707 7.82598 161.046 7.84485C161.469 7.8708 161.897 7.86372 162.32 7.84721C163.183 7.81419 164.049 7.93449 164.908 7.78352C165.021 6.998 164.94 6.21013 164.953 5.42226C164.963 4.81838 164.996 4.21921 165.1 3.62241C165.444 1.64565 166.414 0.728036 168.538 0.369482C169.318 0.237383 170.103 0.178409 170.891 0.168974C172.731 0.147744 174.575 0.171333 176.415 0.154821C176.788 0.150103 176.899 0.239742 176.891 0.593577C176.866 1.68575 176.869 2.78028 176.891 3.87245C176.899 4.20978 176.815 4.3348 176.425 4.32065C175.537 4.29234 174.646 4.31121 173.754 4.31121C173.369 4.31121 172.99 4.3348 172.612 4.42916C171.688 4.65561 171.273 5.0755 171.197 5.96244C171.156 6.44838 171.205 6.94375 171.164 7.42968C171.134 7.79531 171.283 7.86372 171.643 7.85901C173.22 7.84249 174.8 7.86137 176.377 7.84485C176.762 7.84014 176.902 7.92034 176.891 8.3072C176.864 9.41824 176.858 10.5316 176.891 11.6427C176.904 12.0649 176.737 12.1286 176.337 12.1239C174.78 12.1027 173.22 12.1286 171.663 12.1074C171.265 12.1027 171.162 12.2065 171.162 12.5745C171.179 15.2495 171.172 17.9245 171.172 20.6018L171.179 20.5995Z" fill="white"/>
<path d="M213.554 18.5142C213.554 21.8497 213.547 25.1851 213.564 28.5206C213.567 28.9618 213.448 29.0962 212.962 29.0891C211.243 29.0608 209.521 29.0655 207.799 29.0891C207.343 29.0939 207.169 29.0042 207.171 28.5372C207.186 21.8284 207.186 15.1197 207.171 8.41097C207.171 7.96514 207.303 7.8354 207.784 7.84248C209.503 7.86842 211.225 7.87314 212.947 7.84248C213.481 7.83304 213.567 8.0076 213.564 8.45344C213.547 11.8078 213.554 15.1622 213.554 18.5165V18.5142Z" fill="#90E21D"/>
<path d="M157.716 18.4835C157.716 21.8378 157.709 25.1922 157.727 28.5465C157.727 28.9546 157.64 29.0962 157.167 29.0867C155.407 29.0584 153.645 29.0655 151.883 29.082C151.498 29.0867 151.369 29.0042 151.369 28.622C151.381 21.8567 151.381 15.089 151.369 8.32365C151.369 7.97217 151.44 7.83536 151.86 7.84007C153.64 7.86366 155.422 7.86366 157.205 7.84007C157.658 7.833 157.724 7.99104 157.724 8.35903C157.711 11.7323 157.716 15.1055 157.716 18.4787V18.4835Z" fill="white"/>
<path d="M0.00390009 18.5755C0.00390009 9.11396 7.41248 1.26824 17.3328 0.0604819C18.3481 -0.0621812 18.3532 -0.0621816 18.3456 0.900252C18.3405 1.48054 18.5355 2.19765 18.2418 2.60574C17.9633 2.9926 17.1252 2.84635 16.5378 2.95014C9.92421 4.13195 4.44247 9.2838 3.29548 15.4453C2.46246 19.9177 3.35118 24.0482 6.22245 27.7635C6.40982 28.0064 6.4402 28.1527 6.18447 28.3673C5.66035 28.8085 5.14889 29.2661 4.66022 29.7449C4.41208 29.9856 4.30068 29.969 4.08293 29.7025C2.11304 27.2917 0.841985 24.5978 0.277353 21.6162C0.0773261 20.557 -0.0214197 19.4884 0.00390009 18.5779V18.5755Z" fill="#90E21D"/>
<path d="M39.764 18.0141C39.7488 22.4795 38.4423 26.1264 35.8951 29.4029C35.6115 29.7662 35.4596 29.7685 35.1482 29.4548C34.6393 28.9453 33.8467 28.5537 33.6189 27.9616C33.3859 27.3554 34.219 26.8364 34.5608 26.2703C40.0678 17.1578 34.8975 5.43643 23.5365 3.01856C22.9466 2.89353 22.344 2.80861 21.7413 2.75672C21.3945 2.72841 21.24 2.65293 21.2552 2.29673C21.2856 1.65747 21.2805 1.01585 21.2552 0.374225C21.2425 0.0369013 21.359 -0.0220744 21.7084 0.00623249C25.909 0.364786 29.6158 1.82259 32.8086 4.37021C36.6016 7.39668 38.8398 11.2417 39.5817 15.8392C39.721 16.6955 39.7969 17.5612 39.7665 18.0118L39.764 18.0141Z" fill="#90E21D"/>
<path d="M19.83 36.8877C14.8699 36.8429 10.487 35.3615 6.70929 32.3421C6.3219 32.0331 6.29911 31.8373 6.69663 31.5307C7.1296 31.1957 7.53725 30.8206 7.90945 30.4243C8.21836 30.0964 8.41838 30.1035 8.77792 30.396C11.1757 32.3563 13.9609 33.6089 17.1107 34.0453C22.3899 34.7765 27.0816 33.5098 31.1151 30.2309C31.4518 29.9573 31.6392 29.9007 31.9582 30.2427C32.3659 30.6838 32.8343 31.0778 33.2951 31.4717C33.5306 31.6746 33.5964 31.8114 33.3154 32.0473C30.3378 34.5477 26.8765 36.1022 22.9089 36.6684C21.8885 36.8146 20.8631 36.9019 19.825 36.8854L19.83 36.8877Z" fill="#90E21D"/>
<path d="M154.546 0.25859C156.334 0.25859 157.744 1.55363 157.757 3.20958C157.77 4.83958 156.324 6.19359 154.567 6.19831C152.799 6.20067 151.366 4.87261 151.364 3.22845C151.361 1.56542 152.759 0.25859 154.546 0.25859Z" fill="white"/>
<path d="M210.343 6.15591C208.568 6.14647 207.135 4.79954 207.16 3.16953C207.188 1.51358 208.601 0.235055 210.399 0.239772C212.176 0.24449 213.584 1.56784 213.571 3.21907C213.559 4.86323 212.128 6.16534 210.343 6.15591Z" fill="#90E21D"/>
<path d="M27.1978 18.467C27.2611 18.71 27.1168 18.8185 26.9243 18.9176C26.2686 19.2526 25.6508 19.7951 24.9621 19.8895C24.2202 19.9885 23.3897 20.2409 22.6301 19.8729C22.0402 19.5852 21.4654 19.2667 20.8906 18.9506C20.3868 18.6723 20.3868 18.2996 20.8856 18.0212C21.354 17.7594 21.8249 17.5023 22.3009 17.2546C22.7364 17.0305 23.1466 16.62 23.7011 17.0446C23.7125 17.0538 23.7287 17.0609 23.747 17.0658C23.7899 17.0772 23.8447 17.0767 23.8784 17.0635C24.4454 16.812 24.8935 16.9717 25.3194 17.2032C25.4092 17.2522 25.498 17.3043 25.5868 17.3565L25.5912 17.3587C25.7472 17.4502 25.903 17.5415 26.0635 17.6155C26.3698 17.757 26.661 17.9292 26.9649 18.0778C27.1132 18.1489 27.218 18.234 27.2177 18.3675C27.2178 18.398 27.2122 18.4311 27.2003 18.467H27.1978Z" fill="#A4A4A4"/>
<path d="M18.9106 19.144C19.1739 19.3328 19.5509 19.5167 19.8294 19.3445C20.3536 19.019 20.6929 19.3256 21.0802 19.5238C21.1787 19.5743 21.2772 19.625 21.3755 19.6759C21.7625 19.8761 22.1482 20.0798 22.5284 20.291C22.5885 20.3244 22.6485 20.3581 22.7083 20.3919C22.8541 20.4737 22.949 20.5611 22.993 20.6501C23.076 20.8178 22.9786 20.991 22.7007 21.142C22.3374 21.3403 21.9705 21.5325 21.6034 21.7248C21.2849 21.8916 20.9662 22.0585 20.6498 22.2295C20.4422 22.3403 20.2548 22.3875 20.0295 22.2672C19.8269 22.1587 19.5484 22.128 19.3889 22.2412C19.0156 22.5091 18.7337 22.3517 18.4361 22.1856C18.4086 22.1703 18.3811 22.1549 18.3533 22.1398C18.123 22.0151 17.8909 21.8932 17.6586 21.7716C17.6399 21.7618 17.6212 21.7521 17.6025 21.7423C17.2557 21.5608 16.909 21.3794 16.5683 21.1892C16.4522 21.1243 16.3729 21.043 16.3302 20.9555C16.2378 20.7661 16.3172 20.548 16.5683 20.406C17.257 20.0168 17.9583 19.6464 18.6571 19.269C18.7255 19.2313 18.7989 19.2006 18.9129 19.1464L18.9106 19.144Z" fill="#A4A4A4"/>
<path d="M20.2594 17.8254C20.0445 17.7066 19.8289 17.6502 19.6119 17.6497C19.3766 17.6492 19.1395 17.7145 18.8998 17.8372C18.8916 17.8415 18.8818 17.8435 18.8708 17.8437C18.8106 17.8446 18.7132 17.7899 18.6314 17.744C18.6127 17.7335 18.5947 17.7234 18.5782 17.7145C17.9123 17.3607 17.2489 17.0069 16.5906 16.6436C16.1981 16.4242 16.1981 16.1624 16.6033 15.9407C16.9811 15.734 17.3632 15.5339 17.7454 15.3339C18.0829 15.1571 18.4206 14.9804 18.7554 14.7989C18.8599 14.7421 18.9586 14.7136 19.0581 14.714C19.1442 14.7143 19.231 14.7363 19.3226 14.7801C19.4772 14.854 19.6765 14.8991 19.8212 14.8517C19.8519 14.8416 19.8801 14.8274 19.905 14.8084C20.007 14.7315 20.1036 14.6836 20.1962 14.6578C20.5471 14.5598 20.8402 14.7791 21.1507 14.9452C21.2564 15.0018 21.3624 15.058 21.4684 15.1141C21.4754 15.1178 21.4824 15.1215 21.4894 15.1253C21.5638 15.1646 21.6382 15.2038 21.7125 15.243C21.7632 15.2698 21.8136 15.2969 21.8643 15.3237C21.9953 15.3928 22.1263 15.4619 22.2569 15.5315C22.4129 15.615 22.5684 15.6992 22.7231 15.785C23.0927 15.9878 23.0978 16.3181 22.794 16.5044C22.0394 16.9691 21.2343 17.3631 20.4493 17.783C20.3994 17.8085 20.3372 17.8119 20.2627 17.8278L20.2594 17.8278V17.8254Z" fill="#A4A4A4"/>
<path d="M15.5583 13.8837C15.5583 13.7713 15.5574 13.6587 15.5566 13.546C15.5549 13.3203 15.5532 13.0943 15.5583 12.8693C15.5731 12.42 15.9552 12.2003 16.3764 12.3992C16.3864 12.4039 16.3964 12.4089 16.4065 12.4141C16.4333 12.4279 16.46 12.4417 16.4868 12.4556C17.1031 12.7742 17.7154 13.1006 18.3235 13.4364C18.3656 13.4596 18.4077 13.4829 18.4498 13.5062C18.865 13.7351 18.8701 14.2587 18.4574 14.4852C17.7991 14.8461 17.1331 15.1952 16.4596 15.5349C16.31 15.6109 16.136 15.6112 15.9811 15.5587C15.756 15.4824 15.5713 15.2947 15.5608 15.0655C15.5466 14.7897 15.5498 14.514 15.553 14.2382C15.5544 14.12 15.5557 14.0019 15.5557 13.8837H15.5583Z" fill="#A4A4A4"/>
<path d="M15.5582 18.467C15.5582 18.1108 15.543 17.7546 15.5632 17.3985C15.5673 17.3207 15.5867 17.2501 15.6181 17.1885C15.7439 16.9415 16.0624 16.8379 16.3583 16.9927C17.0419 17.3489 17.723 17.7122 18.3915 18.0943C18.6432 18.2372 18.7335 18.4461 18.6642 18.6369C18.6248 18.7454 18.5338 18.8481 18.3915 18.9294C17.723 19.3115 17.047 19.6819 16.3633 20.0381C15.9557 20.2504 15.5759 20.031 15.5632 19.5899C15.5506 19.2148 15.5632 18.8397 15.5632 18.4647L15.5582 18.467Z" fill="#A4A4A4"/>
<path d="M16.1099 21.4463C16.1438 21.46 16.1745 21.472 16.2026 21.4829C16.2643 21.5069 16.3138 21.5261 16.3584 21.5492C16.3634 21.5518 16.3684 21.5545 16.3733 21.5572C16.4981 21.6231 16.6232 21.6887 16.7482 21.7545C16.7763 21.7692 16.8043 21.784 16.8324 21.7988L16.8347 21.8001C16.8891 21.8287 16.9435 21.8573 16.9978 21.886C17.4317 22.1142 17.8655 22.3428 18.2966 22.5761C18.3561 22.6083 18.4155 22.6406 18.4748 22.6729C18.8622 22.8829 18.8571 23.1471 18.4925 23.357C17.7734 23.7745 17.0417 24.1708 16.3049 24.5577C16.1398 24.6445 15.9687 24.6479 15.8322 24.5884C15.6756 24.5201 15.5645 24.369 15.5605 24.1661C15.5529 23.7993 15.5542 23.4331 15.5554 23.0669C15.5567 22.7006 15.558 22.3344 15.5504 21.9676C15.5452 21.6911 15.7209 21.623 15.8922 21.5565C15.9708 21.5261 16.0485 21.496 16.1074 21.4463H16.1099Z" fill="#A4A4A4"/>
<path fill-rule="evenodd" clip-rule="evenodd" d="M192.454 24.7767L192.636 24.7761C192.575 24.7763 192.514 24.7765 192.452 24.7767L192.454 24.7767ZM195.256 24.7889C195.143 24.7866 195.03 24.7846 194.916 24.7829C195.028 24.7846 195.14 24.7866 195.252 24.7889C195.256 24.7889 195.261 24.789 195.265 24.7891L195.256 24.7889Z" fill="#90E21D"/>
</svg>
