<svg width="85" height="82" viewBox="0 0 85 82" fill="none" xmlns="http://www.w3.org/2000/svg">
<g filter="url(#filter0_bdi_5542_7802)">
<g clip-path="url(#clip0_5542_7802)">
<rect x="12" y="13" width="48" height="48" rx="12" fill="url(#paint0_linear_5542_7802)" fill-opacity="0.04" shape-rendering="crispEdges"/>
<g style="mix-blend-mode:plus-lighter" opacity="0.5" filter="url(#filter1_f_5542_7802)">
<path d="M42.9866 31.2088C43.1112 30.4033 42.3454 29.7676 41.6292 30.082L27.3648 36.3448C26.8512 36.5703 26.8888 37.3483 27.4215 37.5179L30.3631 38.4547C30.9246 38.6335 31.5325 38.541 32.0228 38.2023L38.655 33.6203C38.855 33.4821 39.073 33.7665 38.9021 33.9426L34.1281 38.8646C33.665 39.3421 33.7569 40.1512 34.314 40.5005L39.659 43.8523C40.2585 44.2282 41.0297 43.8506 41.1418 43.1261L42.9866 31.2088Z" fill="white"/>
</g>
<circle cx="36" cy="37" r="14" fill="url(#paint1_linear_5542_7802)"/>
<path d="M42.9866 31.2088C43.1112 30.4033 42.3454 29.7676 41.6292 30.082L27.3648 36.3448C26.8512 36.5703 26.8888 37.3483 27.4215 37.5179L30.3631 38.4547C30.9246 38.6335 31.5325 38.541 32.0228 38.2023L38.655 33.6203C38.855 33.4821 39.073 33.7665 38.9021 33.9426L34.1281 38.8646C33.665 39.3421 33.7569 40.1512 34.314 40.5005L39.659 43.8523C40.2585 44.2282 41.0297 43.8506 41.1418 43.1261L42.9866 31.2088Z" fill="white"/>
<g filter="url(#filter2_f_5542_7802)">
<ellipse cx="36.5" cy="60.5" rx="11.5" ry="6.5" fill="#1893D1"/>
</g>
</g>
<rect x="12" y="13" width="48" height="48" rx="12" stroke="url(#paint2_linear_5542_7802)" stroke-opacity="0.5" stroke-width="0.8" shape-rendering="crispEdges"/>
</g>
<g style="mix-blend-mode:screen" filter="url(#filter3_f_5542_7802)">
<circle cx="29" cy="30" r="9" fill="white" fill-opacity="0.18"/>
</g>
<defs>
<filter id="filter0_bdi_5542_7802" x="-8.40039" y="-7.3999" width="92.8008" height="88.7998" filterUnits="userSpaceOnUse" color-interpolation-filters="sRGB">
<feFlood flood-opacity="0" result="BackgroundImageFix"/>
<feGaussianBlur in="BackgroundImageFix" stdDeviation="10"/>
<feComposite in2="SourceAlpha" operator="in" result="effect1_backgroundBlur_5542_7802"/>
<feColorMatrix in="SourceAlpha" type="matrix" values="0 0 0 0 0 0 0 0 0 0 0 0 0 0 0 0 0 0 127 0" result="hardAlpha"/>
<feOffset dx="8" dy="4"/>
<feGaussianBlur stdDeviation="8"/>
<feComposite in2="hardAlpha" operator="out"/>
<feColorMatrix type="matrix" values="0 0 0 0 0 0 0 0 0 0 0 0 0 0 0 0 0 0 0.08 0"/>
<feBlend mode="normal" in2="effect1_backgroundBlur_5542_7802" result="effect2_dropShadow_5542_7802"/>
<feBlend mode="normal" in="SourceGraphic" in2="effect2_dropShadow_5542_7802" result="shape"/>
<feColorMatrix in="SourceAlpha" type="matrix" values="0 0 0 0 0 0 0 0 0 0 0 0 0 0 0 0 0 0 127 0" result="hardAlpha"/>
<feOffset/>
<feGaussianBlur stdDeviation="4"/>
<feComposite in2="hardAlpha" operator="arithmetic" k2="-1" k3="1"/>
<feColorMatrix type="matrix" values="0 0 0 0 0.0509804 0 0 0 0 0.707059 0 0 0 0 0.988235 0 0 0 0.32 0"/>
<feBlend mode="normal" in2="shape" result="effect3_innerShadow_5542_7802"/>
</filter>
<filter id="filter1_f_5542_7802" x="8" y="9" width="56" height="56" filterUnits="userSpaceOnUse" color-interpolation-filters="sRGB">
<feFlood flood-opacity="0" result="BackgroundImageFix"/>
<feBlend mode="normal" in="SourceGraphic" in2="BackgroundImageFix" result="shape"/>
<feGaussianBlur stdDeviation="6" result="effect1_foregroundBlur_5542_7802"/>
</filter>
<filter id="filter2_f_5542_7802" x="7" y="36" width="59" height="49" filterUnits="userSpaceOnUse" color-interpolation-filters="sRGB">
<feFlood flood-opacity="0" result="BackgroundImageFix"/>
<feBlend mode="normal" in="SourceGraphic" in2="BackgroundImageFix" result="shape"/>
<feGaussianBlur stdDeviation="9" result="effect1_foregroundBlur_5542_7802"/>
</filter>
<filter id="filter3_f_5542_7802" x="0" y="1" width="58" height="58" filterUnits="userSpaceOnUse" color-interpolation-filters="sRGB">
<feFlood flood-opacity="0" result="BackgroundImageFix"/>
<feBlend mode="normal" in="SourceGraphic" in2="BackgroundImageFix" result="shape"/>
<feGaussianBlur stdDeviation="10" result="effect1_foregroundBlur_5542_7802"/>
</filter>
<linearGradient id="paint0_linear_5542_7802" x1="12" y1="13" x2="60" y2="61" gradientUnits="userSpaceOnUse">
<stop stop-color="#F8FBFF"/>
<stop offset="1" stop-color="white" stop-opacity="0"/>
</linearGradient>
<linearGradient id="paint1_linear_5542_7802" x1="36" y1="23" x2="36" y2="51" gradientUnits="userSpaceOnUse">
<stop stop-color="#37BBFE"/>
<stop offset="1" stop-color="#007DBB"/>
</linearGradient>
<linearGradient id="paint2_linear_5542_7802" x1="13" y1="12" x2="58.5" y2="61" gradientUnits="userSpaceOnUse">
<stop stop-color="#D8D8D8" stop-opacity="0.05"/>
<stop offset="1" stop-color="white" stop-opacity="0.4"/>
</linearGradient>
<clipPath id="clip0_5542_7802">
<rect x="12" y="13" width="48" height="48" rx="12" fill="white"/>
</clipPath>
</defs>
</svg>
