<svg width="78" height="36" viewBox="0 0 78 36" fill="none" xmlns="http://www.w3.org/2000/svg">
<path fill-rule="evenodd" clip-rule="evenodd" d="M1 17.3268H14.9781L13.2483 14.3397C12.9023 13.7434 12.2634 13.3756 11.5727 13.3756V13.3756H7.86444L11.032 7.90373L22.5114 27.7386L30.8279 13.3756H26.2514L22.5114 19.8358L11.032 0L1 17.3268Z" fill="url(#paint0_linear_1210_2672)"/>
<path fill-rule="evenodd" clip-rule="evenodd" d="M66.9081 15.7358H69.5269V13.125H66.9081V15.7358ZM59.8639 25.1192C58.3335 25.1192 57.0884 23.8782 57.0884 22.3523C57.0884 20.8268 58.3335 19.5853 59.8639 19.5853C61.3938 19.5853 62.6389 20.8268 62.6389 22.3523C62.6389 23.8782 61.3938 25.1192 59.8639 25.1192ZM59.8639 16.9746C58.7878 16.9746 57.7857 17.2917 56.9432 17.8346V13.1257H54.3248V27.4607H56.9432V26.8695C57.7857 27.4129 58.7878 27.73 59.8639 27.73C62.8378 27.73 65.2568 25.3175 65.2568 22.3523C65.2568 19.387 62.8378 16.9746 59.8639 16.9746ZM76.9999 17.0348V18.3501C76.9999 19.0653 76.4179 19.6446 75.7011 19.6446H74.3815V22.9753C74.3815 24.0198 75.2303 24.8666 76.2779 24.8666H76.9999V27.4769H76.2779C73.7844 27.4769 71.7636 25.4611 71.7636 22.9753V13.1258H73.0828C73.8 13.1258 74.3815 13.7056 74.3815 14.4207V17.0348H76.9999ZM42.8733 27.477H52.3319V26.1266C52.3319 25.4309 51.7656 24.8657 51.0669 24.8657H47.6577L52.6856 17.0349H43.5146V19.6452H47.9012L42.8733 27.477ZM69.5264 27.4889H66.9076V17.0345H69.5264V27.4889ZM35.507 18.0767L33.7487 22.3681H37.1717L35.507 18.0767ZM41.9608 27.477H40.3976C39.6481 27.477 38.9755 27.017 38.7044 26.3202L38.1386 24.8658H32.7253L31.6558 27.477H28.8276L34.3283 13.9376C34.53 13.4459 35.0081 13.1259 35.5397 13.1259C36.0804 13.1259 36.5664 13.4572 36.7611 13.9594L41.9608 27.477Z" fill="url(#paint1_linear_1210_2672)"/>
<defs>
<linearGradient id="paint0_linear_1210_2672" x1="15.9139" y1="0" x2="15.9139" y2="27.7386" gradientUnits="userSpaceOnUse">
<stop stop-color="#18C994"/>
<stop offset="1" stop-color="#17875E"/>
</linearGradient>
<linearGradient id="paint1_linear_1210_2672" x1="35.384" y1="15.9649" x2="35.384" y2="24.9713" gradientUnits="userSpaceOnUse">
<stop stop-color="white"/>
<stop offset="1" stop-color="white" stop-opacity="0.72"/>
</linearGradient>
</defs>
</svg>
