<?xml version="1.0" encoding="UTF-8"?>
<svg xmlns:xodm="http://www.corel.com/coreldraw/odm/2003" xmlns="http://www.w3.org/2000/svg" xmlns:xlink="http://www.w3.org/1999/xlink" version="1.1" id="Layer_1" x="0px" y="0px" viewBox="0 0 2500 503" style="enable-background:new 0 0 2500 503;" xml:space="preserve">
<style type="text/css">
	.st0{fill:#F0B90B;}
</style>
<g id="Layer_x0020_1">
	<path class="st0" d="M113.4,251.5L57,308L0,251.5l57-57L113.4,251.5z M251.4,113.5l97.2,97.2l57-56.9L251.4,0.1L97.2,154.3l57,56.9   C154.2,211.2,251.4,113.5,251.4,113.5z M445.8,194.5l-56.5,57l57,57l56.9-57L445.8,194.5z M251.4,389.5l-97.2-97.7l-57,57   l154.2,154.2l154.2-154.2l-57-56.9L251.4,389.5L251.4,389.5z M251.4,308l57-57l-57-56.4l-57,56.9L251.4,308L251.4,308L251.4,308z    M850.4,313.8v-1c0-36.8-19.6-55.5-51.5-67.8c19.6-10.8,36.3-28.5,36.3-59.4v-1c0-43.2-34.9-71.2-90.8-71.2H616.2V389h131.1   C809.6,389.5,850.4,363.9,850.4,313.8L850.4,313.8L850.4,313.8z M774.7,196c0,20.6-16.7,28.9-43.7,28.9h-56v-58.4H735   c25.5,0,39.8,10.3,39.8,28.5V196L774.7,196z M790,306c0,20.6-16.2,30-42.7,30h-72.1v-60.4h70.2c30.9,0,44.7,11.3,44.7,30V306   L790,306z M977.5,389.5V113.5h-60.9V389h60.9V389.5z M1303.5,389.5V113.5h-59.9v169.9l-129.1-169.9h-56V389h59.9V214.2L1252,389.5   L1303.5,389.5L1303.5,389.5L1303.5,389.5z M1639.3,389.5L1521,112.1h-56l-118.3,277.4h62.4l25-61.9h116.4l25,61.9H1639.3   L1639.3,389.5L1639.3,389.5z M1528.9,274.1h-73.1l36.8-89.3L1528.9,274.1z M1928.5,389.5V113.5h-59.9v169.9l-129.1-169.9h-56V389   h59.9V214.2L1877,389.5L1928.5,389.5L1928.5,389.5L1928.5,389.5z M2241.3,344.8l-38.8-38.8c-21.6,19.6-40.8,32.4-72.7,32.4   c-47.1,0-80-39.3-80-86.4v-1.5c0-47.1,33.4-85.9,80-85.9c27.5,0,49.1,11.8,70.7,30.9l38.8-44.7c-25.5-25-56.5-42.7-108.5-42.7   c-84.4,0-143.8,64.3-143.8,142.4v1c0,79,60.4,141.9,141.4,141.9C2181.4,393.9,2212.8,375.2,2241.3,344.8L2241.3,344.8z M2500,389.5   v-54h-149.8v-57.9h130.1v-54h-130.1v-56H2498v-54h-207.7V389H2500L2500,389.5L2500,389.5z"></path>
</g>
</svg>
