<?xml version="1.0" encoding="UTF-8"?>
<svg id="wpac" xmlns="http://www.w3.org/2000/svg" viewBox="0 0 516 516">
  <defs>
    <style>
      .cls-1 {
        fill: #fff;
      }

      .cls-2 {
        fill: #002235;
      }
    </style>
  </defs>
  <circle id="bg" class="cls-2" cx="258" cy="258" r="258"/>
  <g>
    <path class="cls-1" d="M58.06,309.16c-17.85-69.6,2.11-144.07,52.36-195.43l-15.38-26.64C31.2,147.86,6.51,239.98,31.42,324.54l26.64-15.38Z"/>
    <path class="cls-1" d="M206.84,58.06c69.6-17.85,144.07,2.11,195.43,52.36l26.64-15.38C368.14,31.2,276.02,6.51,191.46,31.42l15.38,26.64Z"/>
    <path class="cls-1" d="M457.94,206.84c17.85,69.6-2.11,144.07-52.36,195.43l15.38,26.64c63.85-60.78,88.53-152.89,63.62-237.45l-26.64,15.38Z"/>
    <path class="cls-1" d="M309.16,457.94c-69.6,17.85-144.07-2.11-195.43-52.36l-26.64,15.38c60.78,63.85,152.89,88.53,237.45,63.62l-15.38-26.64Z"/>
  </g>
  <path id="pactus" class="cls-1" d="M239.43,149.66h20.2l-5.7,16.7h9.32l5.7-16.7h20.45l-5.83,16.7h45.96c24.34,1.55,51.52,12.3,51.14,47.12-.65,53.72-86.35,89.71-147.71,99.16l-26.15,75.6-24.47-72.5,37.02-108.1h49.84l-27.19,78.71c37.54-4.01,80.13-37.02,80.13-62.79s-12.69-25.63-30.81-25.63h-124.15l-10.74-31.59h77.16l5.7-16.7h.13Z"/>
</svg>