<?xml version="1.0" encoding="UTF-8" standalone="no"?>
<!-- Generator: Adobe Illustrator 24.0.0, SVG Export Plug-In . SVG Version: 6.00 Build 0)  -->

<svg
   version="1.1"
   id="Layer_1"
   x="0px"
   y="0px"
   viewBox="0 0 24 24"
   style="enable-background:new 0 0 24 24;"
   xml:space="preserve"
   sodipodi:docname="sushiswap-color (copy).svg"
   inkscape:version="1.1.2 (0a00cf5339, 2022-02-04)"
   xmlns:inkscape="http://www.inkscape.org/namespaces/inkscape"
   xmlns:sodipodi="http://sodipodi.sourceforge.net/DTD/sodipodi-0.dtd"
   xmlns:xlink="http://www.w3.org/1999/xlink"
   xmlns="http://www.w3.org/2000/svg"
   xmlns:svg="http://www.w3.org/2000/svg"><defs
   id="defs50" /><sodipodi:namedview
   id="namedview48"
   pagecolor="#ffffff"
   bordercolor="#666666"
   borderopacity="1.0"
   inkscape:pageshadow="2"
   inkscape:pageopacity="0.0"
   inkscape:pagecheckerboard="0"
   showgrid="false"
   inkscape:zoom="34.958333"
   inkscape:cx="11.985697"
   inkscape:cy="12.014303"
   inkscape:window-width="1920"
   inkscape:window-height="1011"
   inkscape:window-x="0"
   inkscape:window-y="32"
   inkscape:window-maximized="1"
   inkscape:current-layer="Layer_1" />
<style
   type="text/css"
   id="style2">
	.st0{clip-path:url(#SVGID_2_);}
	.st1{fill:url(#SVGID_3_);}
	.st2{fill:url(#SVGID_4_);}
	.st3{fill:url(#SVGID_5_);}
	.st4{fill:#0E0F23;}
	.st5{fill-rule:evenodd;clip-rule:evenodd;fill:#FFFFFF;}
	.st6{fill:#FFFFFF;}
</style>
<g
   id="g45">
	<defs
   id="defs5">
		<rect
   id="SVGID_1_"
   width="24"
   height="24" />
	</defs>
	<clipPath
   id="SVGID_2_">
		<use
   xlink:href="#SVGID_1_"
   style="overflow:visible;"
   id="use7" />
	</clipPath>
	<g
   class="st0"
   clip-path="url(#SVGID_2_)"
   id="g43">
		
			<linearGradient
   id="SVGID_3_"
   gradientUnits="userSpaceOnUse"
   x1="20.6442"
   y1="1011.5057"
   x2="24.3328"
   y2="998.8395"
   gradientTransform="matrix(1 0 0 -1 -12 1012)">
			<stop
   offset="0"
   style="stop-color:#03B8FF"
   id="stop10" />
			<stop
   offset="1"
   style="stop-color:#FA52A0"
   id="stop12" />
		</linearGradient>
		<path
   class="st1"
   d="M5,2.3L23.6,15l-4.6,6.8L0.4,9L5,2.3z"
   id="path15"
   style="fill:#ffffff" />
		
			<linearGradient
   id="SVGID_4_"
   gradientUnits="userSpaceOnUse"
   x1="23.6818"
   y1="1012.3904"
   x2="27.3705"
   y2="999.7241"
   gradientTransform="matrix(1 0 0 -1 -12 1012)">
			<stop
   offset="0"
   style="stop-color:#03B8FF"
   id="stop17" />
			<stop
   offset="1"
   style="stop-color:#FA52A0"
   id="stop19" />
		</linearGradient>
		<path
   class="st2"
   d="M23.6,15c-1.6,2.3-7,1.4-12.1-2.2C6.3,9.3,3.5,4.6,5,2.3c1.6-2.3,7-1.4,12.1,2.2C22.3,7.9,25.1,12.7,23.6,15z    "
   id="path22"
   style="fill:#ffffff" />
		
			<linearGradient
   id="SVGID_5_"
   gradientUnits="userSpaceOnUse"
   x1="17.616"
   y1="1010.6239"
   x2="21.3047"
   y2="997.9576"
   gradientTransform="matrix(1 0 0 -1 -12 1012)">
			<stop
   offset="0"
   style="stop-color:#03B8FF"
   id="stop24" />
			<stop
   offset="1"
   style="stop-color:#FA52A0"
   id="stop26" />
		</linearGradient>
		<path
   class="st3"
   d="M19,21.7c-1.6,2.3-7,1.4-12.1-2.2s-8-8.2-6.4-10.6c1.6-2.3,7-1.4,12.1,2.2C17.7,14.7,20.5,19.4,19,21.7z"
   id="path29"
   style="fill:#ffffff" />
		<path
   class="st4"
   d="M23.6,15C23.6,15,23.6,15,23.6,15l-4.6,6.8l0,0c-1.6,2.3-7,1.3-12.1-2.2c-1-0.7-1.9-1.4-2.8-2.2    c0.7-0.1,1.6-0.5,2.5-1.5c1.6-1.7,2.4-2.1,3.1-2c0.7,0,1.5,0.7,2.8,2.4c1.3,1.7,3.1,2.2,4.2,1.3c0.1-0.1,0.2-0.1,0.3-0.2    c0.9-0.7,1.2-1,2.9-4.2c0.4-0.8,1.8-2.1,3.7-1.5C24.1,13,24.1,14.1,23.6,15z"
   id="path31"
   style="fill:#ffffff" />
		<path
   class="st5"
   d="M22.9,14.6c-1.4,2-6.3,1-11-2.3C7.1,9,4.3,4.8,5.7,2.8s6.3-1,11,2.3S24.2,12.6,22.9,14.6z M18.5,11.6    c-0.7,1-3.1,0.5-5.5-1.1c-2.3-1.6-3.7-3.7-3-4.7c0.7-1,3.1-0.5,5.5,1.1C17.8,8.5,19.2,10.6,18.5,11.6z"
   id="path33"
   style="fill:#000000" />
		<path
   class="st6"
   d="M4.6,4.6c0-0.1-0.1-0.2-0.2-0.1S4.2,4.6,4.2,4.7C4.3,5,4.4,5.2,4.4,5.4c0,0.1,0.1,0.2,0.2,0.1    c0.1,0,0.2-0.1,0.1-0.2C4.7,5.1,4.7,4.9,4.6,4.6z"
   id="path35" />
		<path
   class="st6"
   d="M5.1,6.2C5.1,6.1,5,6,4.9,6.1S4.8,6.2,4.8,6.3c1.1,2.5,3.4,5.2,6.4,7.2c0.1,0.1,0.2,0,0.3,0    c0.1-0.1,0-0.2,0-0.3C8.4,11.2,6.2,8.6,5.1,6.2z"
   id="path37" />
		<path
   class="st6"
   d="M17.2,16c-0.1,0-0.2,0-0.2,0.1c0,0.1,0,0.2,0.1,0.2c0.3,0.1,0.7,0.2,1,0.3c0.1,0,0.2,0,0.2-0.1    c0-0.1,0-0.2-0.1-0.2C17.9,16.2,17.5,16.1,17.2,16z"
   id="path39" />
		<path
   class="st6"
   d="M19,16.4c-0.1,0-0.2,0.1-0.2,0.2c0,0.1,0.1,0.2,0.2,0.2c0.8,0.1,1.7,0.2,2.4,0.1c0.1,0,0.2-0.1,0.2-0.2    c0-0.1-0.1-0.2-0.2-0.2C20.6,16.6,19.8,16.5,19,16.4z"
   id="path41" />
	</g>
</g>
</svg>
