<?xml version="1.0" encoding="UTF-8"?>
<svg id="wpac-bsc" xmlns="http://www.w3.org/2000/svg" viewBox="0 0 516 516">
  <defs>
    <style>
      .cls-1 {
        fill: #fff;
      }

      .cls-2 {
        fill: none;
      }

      .cls-3 {
        fill: #f0b90b;
        fill-rule: evenodd;
      }

      .cls-4 {
        fill: #002235;
      }
    </style>
  </defs>
  <circle id="coin" class="cls-2" cx="250" cy="250" r="250"/>
  <g id="wpac">
    <circle id="bg" class="cls-4" cx="250" cy="250" r="250"/>
    <g>
      <path class="cls-1" d="M56.26,299.57c-17.29-67.45,2.04-139.6,50.74-189.37l-14.91-25.82C30.23,143.28,6.31,232.54,30.45,314.47l25.82-14.91Z"/>
      <path class="cls-1" d="M200.43,56.26c67.45-17.29,139.6,2.04,189.37,50.74l25.82-14.91C356.72,30.23,267.46,6.31,185.53,30.45l14.91,25.82Z"/>
      <path class="cls-1" d="M443.74,200.43c17.29,67.45-2.04,139.6-50.74,189.37l14.91,25.82c61.87-58.89,85.79-148.15,61.65-230.09l-25.82,14.91Z"/>
      <path class="cls-1" d="M299.57,443.74c-67.45,17.29-139.6-2.04-189.37-50.74l-25.82,14.91c58.89,61.87,148.15,85.79,230.09,61.65l-14.91-25.82Z"/>
    </g>
    <path id="pactus" class="cls-1" d="M232,145.02h19.57l-5.52,16.18h9.03l5.52-16.18h19.82l-5.64,16.18h44.53c23.58,1.51,49.93,11.92,49.55,45.66-.63,52.06-83.67,86.93-143.13,96.09l-25.34,73.26-23.71-70.25,35.88-104.74h48.3l-26.34,76.27c36.38-3.89,77.65-35.88,77.65-60.84s-12.29-24.84-29.86-24.84h-120.3l-10.41-30.61h74.76l5.52-16.18h.13Z"/>
  </g>
  <circle id="network" class="cls-1" cx="402.44" cy="402.44" r="113.56"/>
  <g id="bsc">
    <path class="cls-3" d="M402.44,288.88c62.72,0,113.56,50.84,113.56,113.56s-50.84,113.56-113.56,113.56-113.56-50.84-113.56-113.56,50.84-113.56,113.56-113.56h0Z"/>
    <path class="cls-1" d="M351.29,402.44l.08,30.03,25.51,15.01v17.58l-40.45-23.72v-47.68l14.85,8.78h0ZM351.29,372.41v17.5l-14.86-8.79v-17.5l14.86-8.79,14.93,8.79-14.93,8.79h0ZM387.55,363.62l14.86-8.79,14.93,8.79-14.93,8.79-14.86-8.79h0Z"/>
    <path class="cls-1" d="M362.03,426.24v-17.58l14.86,8.79v17.5l-14.86-8.71h0ZM387.55,453.78l14.86,8.79,14.93-8.79v17.5l-14.93,8.79-14.86-8.79v-17.5h0ZM438.65,363.62l14.86-8.79,14.93,8.79v17.5l-14.93,8.79v-17.5l-14.86-8.79h0ZM453.51,432.47l.08-30.03,14.86-8.79v47.68l-40.45,23.72v-17.58l25.51-15h0Z"/>
    <polygon class="cls-1" points="442.85 426.24 427.99 434.95 427.99 417.45 442.85 408.66 442.85 426.24"/>
    <path class="cls-1" d="M442.85,378.64l.08,17.58-25.59,15.01v30.1l-14.86,8.71-14.86-8.71v-30.1l-25.59-15.01v-17.58l14.92-8.79,25.43,15.09,25.59-15.09,14.93,8.79h-.06ZM362.03,348.62l40.37-23.8,40.45,23.8-14.86,8.79-25.59-15.09-25.51,15.09-14.86-8.79h0Z"/>
  </g>
</svg>