<?xml version="1.0" encoding="UTF-8"?>
<svg id="wpac-ether" xmlns="http://www.w3.org/2000/svg" viewBox="0 0 516 516">
  <defs>
    <style>
      .cls-1 {
        fill: #fff;
      }

      .cls-2 {
        fill: none;
      }

      .cls-3 {
        fill: #002235;
      }

      .cls-4 {
        fill: #677de3;
        fill-rule: evenodd;
      }
    </style>
  </defs>
  <circle id="coin" class="cls-2" cx="250" cy="250" r="250"/>
  <g id="wpac">
    <circle id="bg" class="cls-3" cx="250" cy="250" r="250"/>
    <g>
      <path class="cls-1" d="M56.26,299.57c-17.29-67.45,2.04-139.6,50.74-189.37l-14.91-25.82C30.23,143.28,6.31,232.54,30.45,314.47l25.82-14.91Z"/>
      <path class="cls-1" d="M200.43,56.26c67.45-17.29,139.6,2.04,189.37,50.74l25.82-14.91C356.72,30.23,267.46,6.31,185.53,30.45l14.91,25.82Z"/>
      <path class="cls-1" d="M443.74,200.43c17.29,67.45-2.04,139.6-50.74,189.37l14.91,25.82c61.87-58.89,85.79-148.15,61.65-230.09l-25.82,14.91Z"/>
      <path class="cls-1" d="M299.57,443.74c-67.45,17.29-139.6-2.04-189.37-50.74l-25.82,14.91c58.89,61.87,148.15,85.79,230.09,61.65l-14.91-25.82Z"/>
    </g>
    <path id="pactus" class="cls-1" d="M232,145.02h19.57l-5.52,16.18h9.03l5.52-16.18h19.82l-5.64,16.18h44.53c23.58,1.51,49.93,11.92,49.55,45.66-.63,52.06-83.67,86.93-143.13,96.09l-25.34,73.26-23.71-70.25,35.88-104.74h48.3l-26.34,76.27c36.38-3.89,77.65-35.88,77.65-60.84s-12.29-24.84-29.86-24.84h-120.3l-10.41-30.61h74.76l5.52-16.18h.13Z"/>
  </g>
  <circle id="network" class="cls-1" cx="402.44" cy="402.44" r="113.56"/>
  <g id="ether">
    <path class="cls-4" d="M402.44,288.88c62.72,0,113.56,50.84,113.56,113.56s-50.84,113.56-113.56,113.56-113.56-50.84-113.56-113.56,50.84-113.56,113.56-113.56h0Z"/>
    <g>
      <path class="cls-1" d="M402.43,384.11v-52.01l-43.17,71.63,43.17-19.62Z"/>
      <path class="cls-1" d="M402.43,429.26v-45.15l-43.17,19.62,43.17,25.53ZM402.43,384.11l43.17,19.62-43.17-71.63v52.01Z"/>
      <path class="cls-1" d="M402.43,384.11v45.15l43.17-25.53-43.17-19.62Z"/>
      <path class="cls-1" d="M402.43,437.44l-43.17-25.5,43.17,60.84v-35.34Z"/>
      <path class="cls-1" d="M445.63,411.93l-43.2,25.5v35.34l43.2-60.84Z"/>
    </g>
  </g>
</svg>