<?xml version="1.0" encoding="UTF-8"?>
<svg id="wpac-sol" xmlns="http://www.w3.org/2000/svg" xmlns:xlink="http://www.w3.org/1999/xlink" viewBox="0 0 516 516">
  <defs>
    <style>
      .cls-1 {
        fill: url(#linear-gradient-2);
      }

      .cls-2 {
        fill: #fff;
      }

      .cls-3 {
        fill: none;
      }

      .cls-4 {
        fill: url(#linear-gradient-3);
      }

      .cls-5 {
        fill: #002235;
      }

      .cls-6 {
        fill-rule: evenodd;
      }

      .cls-7 {
        fill: url(#linear-gradient);
      }
    </style>
    <linearGradient id="linear-gradient" x1="463.17" y1="215.98" x2="380.84" y2="373.69" gradientTransform="translate(0 114)" gradientUnits="userSpaceOnUse">
      <stop offset="0" stop-color="#00ffa3"/>
      <stop offset="1" stop-color="#dc1fff"/>
    </linearGradient>
    <linearGradient id="linear-gradient-2" x1="427.18" y1="197.19" x2="344.84" y2="354.9" xlink:href="#linear-gradient"/>
    <linearGradient id="linear-gradient-3" x1="445.06" y1="206.53" x2="362.72" y2="364.24" xlink:href="#linear-gradient"/>
  </defs>
  <circle id="coin" class="cls-3" cx="250" cy="250" r="250"/>
  <g id="wpac">
    <circle id="bg" class="cls-5" cx="250" cy="250" r="250"/>
    <g>
      <path class="cls-2" d="M56.26,299.57c-17.29-67.45,2.04-139.6,50.74-189.37l-14.91-25.82C30.23,143.28,6.31,232.54,30.45,314.47l25.82-14.91Z"/>
      <path class="cls-2" d="M200.43,56.26c67.45-17.29,139.6,2.04,189.37,50.74l25.82-14.91C356.72,30.23,267.46,6.31,185.53,30.45l14.91,25.82Z"/>
      <path class="cls-2" d="M443.74,200.43c17.29,67.45-2.04,139.6-50.74,189.37l14.91,25.82c61.87-58.89,85.79-148.15,61.65-230.09l-25.82,14.91Z"/>
      <path class="cls-2" d="M299.57,443.74c-67.45,17.29-139.6-2.04-189.37-50.74l-25.82,14.91c58.89,61.87,148.15,85.79,230.09,61.65l-14.91-25.82Z"/>
    </g>
    <path id="pactus" class="cls-2" d="M232,145.02h19.57l-5.52,16.18h9.03l5.52-16.18h19.82l-5.64,16.18h44.53c23.58,1.51,49.93,11.92,49.55,45.66-.63,52.06-83.67,86.93-143.13,96.09l-25.34,73.26-23.71-70.25,35.88-104.74h48.3l-26.34,76.27c36.38-3.89,77.65-35.88,77.65-60.84s-12.29-24.84-29.86-24.84h-120.3l-10.41-30.61h74.76l5.52-16.18h.13Z"/>
  </g>
  <circle id="network" class="cls-2" cx="402.44" cy="402.44" r="113.56"/>
  <g id="sol">
    <path class="cls-6" d="M402.44,288.88c62.72,0,113.56,50.84,113.56,113.56s-50.84,113.56-113.56,113.56-113.56-50.84-113.56-113.56,50.84-113.56,113.56-113.56h0Z"/>
    <g>
      <path class="cls-7" d="M352.12,433.2c.9-.9,2.14-1.42,3.45-1.42h118.97c2.17,0,3.26,2.62,1.72,4.16l-23.5,23.5c-.9.9-2.14,1.42-3.45,1.42h-118.97c-2.17,0-3.26-2.62-1.72-4.16l23.5-23.5Z"/>
      <path class="cls-1" d="M352.12,345.45c.94-.9,2.17-1.42,3.45-1.42h118.97c2.17,0,3.26,2.62,1.72,4.16l-23.5,23.5c-.9.9-2.14,1.42-3.45,1.42h-118.97c-2.17,0-3.26-2.62-1.72-4.16l23.5-23.5Z"/>
      <path class="cls-4" d="M452.76,389.04c-.9-.9-2.14-1.42-3.45-1.42h-118.97c-2.17,0-3.26,2.62-1.72,4.16l23.5,23.5c.9.9,2.14,1.42,3.45,1.42h118.97c2.17,0,3.26-2.62,1.72-4.16l-23.5-23.5Z"/>
    </g>
  </g>
</svg>