<svg width="160" height="38" viewBox="0 0 160 38" fill="none" xmlns="http://www.w3.org/2000/svg">
<path d="M0.019299 0.0884106C0.0771959 0.264343 9.89072 12.7946 9.94862 12.775C10.1223 12.7164 12.2259 10.009 12.1584 9.92102C12.1198 9.86238 11.039 8.45493 9.76528 6.78358C8.4819 5.10246 7.43011 3.70478 7.43011 3.67546C7.43011 3.64613 8.424 3.61681 9.64949 3.61681H11.8592L13.9339 6.22646L16.0085 8.84589L15.6901 9.23684C14.2619 11.0059 0 29.1366 0 29.1757C0 29.2051 3.07819 29.2246 6.83184 29.2246H13.6637L15.2462 27.2307C16.1146 26.1458 16.8094 25.2075 16.7998 25.1586C16.7612 25.0414 14.6286 22.3926 14.5707 22.3926C14.5418 22.3926 13.9242 23.1159 13.1908 24.0053L11.8592 25.6082H9.63984C8.27926 25.6082 7.43011 25.5691 7.4494 25.5203C7.4687 25.4616 10.2767 21.8453 13.7023 17.4861C17.1278 13.1171 20.042 9.37368 20.1964 9.1782L20.4569 8.81656L17.0603 4.40851L13.654 0.000445405H6.82219C2.8466 0.000445405 0 0.0395421 0.019299 0.0884106Z" fill="#EBBE5A"/>
<path d="M21.4418 1.97479C20.5402 3.06947 19.8089 3.998 19.8089 4.03709C19.8189 4.13483 22.0629 6.83245 22.133 6.83245C22.1631 6.83245 22.8042 6.10917 23.5655 5.21974L24.948 3.61681H27.2521C28.6746 3.61681 29.5461 3.65591 29.5261 3.71455C29.5161 3.76342 26.4807 7.54595 22.7842 12.1202C19.0976 16.6944 16.0723 20.4769 16.0723 20.5258C16.0723 20.5649 17.6451 22.5392 19.5785 24.9143L23.0847 29.2246H30.1772C34.3045 29.2246 37.2598 29.1855 37.2397 29.1366C37.1796 28.9607 26.9916 16.4305 26.9315 16.45C26.7512 16.5087 24.5673 19.2161 24.6374 19.304C24.6775 19.3529 25.7995 20.7701 27.1218 22.4415C28.4542 24.1226 29.5461 25.5203 29.5461 25.5496C29.5461 25.5789 28.5143 25.6082 27.2521 25.6082H24.948L22.8443 23.1159C21.6822 21.7475 20.7305 20.5746 20.7305 20.516C20.7305 20.4671 24.4471 15.844 28.9951 10.2631C33.5432 4.6724 37.2598 0.0786364 37.2598 0.0493163C37.2598 0.0199938 34.0641 0.000445405 30.1672 0.000445405H23.0747L21.4418 1.97479Z" fill="white"/>
<path d="M147.053 5.96191C147.595 5.96191 148.233 6.1851 148.584 6.79088L152.282 13.6777L156.076 6.79088C156.395 6.1851 156.969 5.96191 157.511 5.96191C158.436 5.96191 159.36 6.63146 159.36 7.7155C159.36 8.00244 159.296 8.35316 159.105 8.67199L154.291 17.1529L159.775 26.7179C159.966 27.0368 159.998 27.3556 159.998 27.6744C159.998 28.7266 159.041 29.4918 158.117 29.4918C157.543 29.4918 156.937 29.2048 156.555 28.5034L152.282 20.6282L148.01 28.5034C147.627 29.2048 147.085 29.4918 146.448 29.4918C145.523 29.4918 144.566 28.7266 144.566 27.6744C144.566 27.3556 144.63 27.0687 144.821 26.7179L150.242 17.2486L145.459 8.67199C145.3 8.38504 145.204 8.06621 145.204 7.77926C145.204 6.66335 146.097 5.96191 147.053 5.96191Z" fill="white"/>
<path d="M134.934 11.1279C140.067 11.1279 144.308 15.3046 144.308 20.1509C144.308 21.3943 143.638 22.032 142.491 22.032H129.546C129.992 24.4233 132.447 26.2087 134.934 26.2087C136.497 26.2087 137.836 25.6348 138.856 24.6146C139.27 24.232 139.812 23.9769 140.291 23.9769C141.247 23.9769 142.012 24.8059 142.012 25.7942C142.012 26.3044 141.917 26.7826 141.534 27.1652C139.876 28.9826 137.549 29.8753 134.934 29.8753C129.769 29.8753 125.561 25.6986 125.561 20.5335C125.561 15.3684 129.769 11.1279 134.934 11.1279ZM134.934 14.7945C132.447 14.7945 130.088 16.6437 129.578 19.0031H140.291C139.844 16.6119 137.389 14.7945 134.934 14.7945Z" fill="white"/>
<path d="M113.981 11.1279C116.245 11.1279 118.413 12.3395 119.561 13.6148C119.656 12.212 120.198 11.5424 121.537 11.5424C122.43 11.5424 123.1 12.1801 123.1 13.1366V28.1536C123.1 32.8086 120.358 37.4954 113.726 37.4954C112.419 37.4954 111.749 36.794 111.749 35.6462C111.749 34.5303 112.451 33.7969 113.599 33.7969C118.062 33.7969 119.369 31.0231 119.369 27.6116C118.285 29.0463 116.468 29.8753 113.981 29.8753C109.103 29.8753 104.607 25.6667 104.607 20.5016C104.607 15.3365 109.103 11.1279 113.981 11.1279ZM113.981 26.2087C117.074 26.2087 119.401 23.6581 119.401 20.5016C119.401 17.3452 117.074 14.7945 113.981 14.7945C110.793 14.7945 108.274 17.3452 108.274 20.5016C108.274 23.6581 110.793 26.2087 113.981 26.2087Z" fill="white"/>
<path d="M93.026 11.1279C95.2897 11.1279 97.4578 12.3395 98.6056 13.6148C98.7013 12.212 99.2433 11.5424 100.582 11.5424C101.475 11.5424 102.145 12.1801 102.145 13.1366V28.1536C102.145 32.8086 99.4027 37.4954 92.771 37.4954C91.4637 37.4954 90.7942 36.794 90.7942 35.6462C90.7942 34.5303 91.4956 33.7969 92.6434 33.7969C97.1071 33.7969 98.4143 31.0231 98.4143 27.6116C97.3303 29.0463 95.5129 29.8753 93.026 29.8753C88.1479 29.8753 83.6523 25.6667 83.6523 20.5016C83.6523 15.3365 88.1479 11.1279 93.026 11.1279ZM93.026 26.2087C96.1187 26.2087 98.4462 23.6581 98.4462 20.5016C98.4462 17.3452 96.1187 14.7945 93.026 14.7945C89.8377 14.7945 87.3189 17.3452 87.3189 20.5016C87.3189 23.6581 89.8377 26.2087 93.026 26.2087Z" fill="white"/>
<path d="M72.4147 11.1279C77.5479 11.1279 81.7884 15.3046 81.7884 20.1509C81.7884 21.3943 81.1188 22.032 79.971 22.032H67.0264C67.4728 24.4233 69.9278 26.2087 72.4147 26.2087C73.977 26.2087 75.3161 25.6348 76.3363 24.6146C76.7508 24.232 77.2928 23.9769 77.7711 23.9769C78.7276 23.9769 79.4928 24.8059 79.4928 25.7942C79.4928 26.3044 79.3971 26.7826 79.0145 27.1652C77.3566 28.9826 75.0291 29.8753 72.4147 29.8753C67.2496 29.8753 63.041 25.6986 63.041 20.5335C63.041 15.3684 67.2496 11.1279 72.4147 11.1279ZM72.4147 14.7945C69.9278 14.7945 67.5684 16.6437 67.0583 19.0031H77.7711C77.3247 16.6119 74.8697 14.7945 72.4147 14.7945Z" fill="white"/>
<path d="M49.2584 5.96191C49.8004 5.96191 50.4381 6.1851 50.7888 6.79088L54.4872 13.6777L58.2814 6.79088C58.6002 6.1851 59.1741 5.96191 59.7161 5.96191C60.6407 5.96191 61.5653 6.63146 61.5653 7.7155C61.5653 8.00244 61.5016 8.35316 61.3103 8.67199L56.4959 17.1529L61.9798 26.7179C62.1711 27.0368 62.203 27.3556 62.203 27.6744C62.203 28.7266 61.2465 29.4918 60.3219 29.4918C59.748 29.4918 59.1422 29.2048 58.7596 28.5034L54.4872 20.6282L50.2149 28.5034C49.8323 29.2048 49.2903 29.4918 48.6526 29.4918C47.728 29.4918 46.7715 28.7266 46.7715 27.6744C46.7715 27.3556 46.8353 27.0687 47.0266 26.7179L52.4467 17.2486L47.6642 8.67199C47.5048 8.38504 47.4092 8.06621 47.4092 7.77926C47.4092 6.66335 48.3019 5.96191 49.2584 5.96191Z" fill="white"/>
</svg>
